<svg width="34" height="34" viewBox="0 0 34 34" fill="none" xmlns="http://www.w3.org/2000/svg">
<mask id="path-1-inside-1" fill="white">
<path fill-rule="evenodd" clip-rule="evenodd" d="M29.8924 9H26.9505C26.4488 3.94668 22.1852 0 16.9999 0C11.8145 0 7.55098 3.94668 7.04925 9H4.1074C1.51 9 -0.398526 11.4369 0.223974 13.9586L4.42055 30.9587C4.8615 32.7449 6.46408 34 8.30397 34H25.6958C27.5357 34 29.1383 32.7449 29.5792 30.9587L33.7758 13.9587C34.3983 11.4369 32.4898 9 29.8924 9Z"/>
</mask>
<path d="M14.9999 10C14.9999 8.89543 15.8953 8 16.9999 8V6C14.7907 6 12.9999 7.79086 12.9999 10H14.9999ZM16.9999 8C18.1044 8 18.9999 8.89543 18.9999 10H20.9999C20.9999 7.79086 19.209 6 16.9999 6V8ZM18.9999 10V13H20.9999V10H18.9999ZM12.9999 10V13H14.9999V10H12.9999ZM26.9505 9L24.9603 9.1976L25.1392 11H26.9505V9ZM7.04925 9V11H8.86051L9.03947 9.1976L7.04925 9ZM0.223974 13.9586L-1.71774 14.438L0.223974 13.9586ZM4.42055 30.9587L2.47883 31.438L4.42055 30.9587ZM29.5792 30.9587L31.521 31.438L29.5792 30.9587ZM33.7758 13.9587L31.8341 13.4793V13.4793L33.7758 13.9587ZM26.9505 11H29.8924V7H26.9505V11ZM16.9999 2C21.147 2 24.5591 5.15708 24.9603 9.1976L28.9407 8.8024C28.3384 2.73628 23.2235 -2 16.9999 -2V2ZM9.03947 9.1976C9.44063 5.15708 12.8528 2 16.9999 2V-2C10.7763 -2 5.66132 2.73628 5.05904 8.8024L9.03947 9.1976ZM4.1074 11H7.04925V7H4.1074V11ZM2.16569 13.4793C1.85444 12.2185 2.8087 11 4.1074 11V7C0.211303 7 -2.65149 10.6554 -1.71774 14.438L2.16569 13.4793ZM6.36226 30.4793L2.16569 13.4793L-1.71774 14.438L2.47883 31.438L6.36226 30.4793ZM8.30397 32C7.38403 32 6.58274 31.3725 6.36226 30.4793L2.47883 31.438C3.14026 34.1174 5.54414 36 8.30397 36V32ZM25.6958 32H8.30397V36H25.6958V32ZM27.6375 30.4793C27.4171 31.3725 26.6158 32 25.6958 32V36C28.4557 36 30.8595 34.1174 31.521 31.438L27.6375 30.4793ZM31.8341 13.4793L27.6375 30.4793L31.521 31.438L35.7175 14.438L31.8341 13.4793ZM29.8924 11C31.1911 11 32.1454 12.2185 31.8341 13.4793L35.7175 14.438C36.6513 10.6554 33.7885 7 29.8924 7V11Z" fill="#8E898F" mask="url(#path-1-inside-1)"/>
</svg>
