<svg width="24" height="24" viewBox="0 0 24 24" fill="none" xmlns="http://www.w3.org/2000/svg">
<path d="M5.09797 5.65154C4.61336 5.62846 4.1292 5.74385 3.64459 6.02031C3.13689 6.27415 2.65274 6.73523 2.19166 7.40446C1.33782 8.97323 0.899817 10.7266 0.922894 12.6411C0.899817 14.4171 1.26905 16.0325 1.98397 17.4854C2.51474 18.57 3.22966 19.5849 4.17582 20.5306C6.3672 22.722 8.99705 23.8066 12.088 23.8066C15.1558 23.8066 17.7626 22.722 19.954 20.5306C20.8997 19.5849 21.6377 18.57 22.1684 17.4854C22.7218 16.3551 23.068 15.1325 23.1834 13.8175C23.2064 13.4252 23.2295 13.0334 23.2526 12.6411C23.2295 12.2488 23.2064 11.8569 23.1834 11.4646C22.9295 8.88092 21.8684 6.64338 19.954 4.752C18.3164 3.09092 16.4015 2.076 14.2332 1.68415C14.1409 1.29185 13.9563 0.969231 13.6563 0.669231C13.4024 0.415385 13.126 0.230769 12.8029 0.115385C12.5952 0.0461538 12.3644 0 12.1106 0C11.8567 0 11.6029 0.0461538 11.3957 0.115385C11.0957 0.230769 10.8187 0.415385 10.5654 0.669231C10.1269 1.08462 9.91966 1.59185 9.91966 2.19185C9.91966 2.79138 10.1274 3.32215 10.5654 3.76015C10.9803 4.17554 11.488 4.38323 12.111 4.38323C12.7106 4.38323 13.2183 4.17554 13.6567 3.76015C13.9337 3.46015 14.1183 3.16062 14.2106 2.81446C16.0789 3.20677 17.7169 4.10631 19.1472 5.53662C21.1078 7.49723 22.0997 9.87323 22.0997 12.6415C22.0997 14.4185 21.6847 16.0329 20.877 17.4858C20.4155 18.2935 19.839 19.0311 19.1472 19.7234C17.1861 21.684 14.8332 22.6532 12.0884 22.6532C9.32012 22.6532 6.94413 21.684 4.98351 19.7234C4.2912 19.0311 3.71474 18.2935 3.27628 17.4858C2.46905 16.0329 2.05366 14.4185 2.05366 12.6415C2.05366 10.6809 2.53828 8.95061 3.48397 7.40538C3.89889 6.94385 4.36043 6.75969 4.8912 6.82846C5.39889 6.89769 5.88305 7.17461 6.36766 7.68185L7.88982 9.20446C7.86674 9.20446 7.84366 9.22754 7.84366 9.25061C7.03597 10.2194 6.62105 11.3497 6.64412 12.6646C6.62105 14.1637 7.15182 15.432 8.23597 16.5166C8.62828 16.9089 9.06628 17.2315 9.52782 17.4858C10.2889 17.9238 11.1654 18.1311 12.1115 18.1311C13.0577 18.1311 13.9106 17.9238 14.6952 17.4858C15.1337 17.2315 15.5717 16.9089 15.964 16.5166C17.0481 15.432 17.5789 14.1637 17.5789 12.6646C17.5789 11.1646 17.0486 9.87323 15.964 8.81215C14.8798 7.728 13.611 7.19723 12.1115 7.19723C10.7966 7.19723 9.6432 7.61215 8.67443 8.41985C7.98259 7.70492 7.33689 7.08185 6.73689 6.528C6.11336 5.95154 5.58259 5.67461 5.09797 5.65154ZM7.68166 12.6642C7.68166 11.4415 8.12013 10.4031 8.97351 9.54969C9.82736 8.67323 10.888 8.23477 12.1106 8.23477C13.3332 8.23477 14.3712 8.67323 15.2477 9.54969C16.101 10.4031 16.5395 11.4415 16.5395 12.6642C16.5395 13.8863 16.101 14.9238 15.2477 15.8012C14.3712 16.6551 13.3332 17.0931 12.1106 17.0931C10.888 17.0931 9.82689 16.6551 8.97351 15.8012C8.12013 14.9243 7.68166 13.8868 7.68166 12.6642Z" fill="#8E898F"/>
<path d="M10.5656 11.1414C10.1272 11.5563 9.91992 12.064 9.91992 12.664C9.91992 13.2636 10.1276 13.7943 10.5656 14.2323C10.981 14.6468 11.4882 14.8554 12.1113 14.8554C12.7113 14.8554 13.2185 14.6473 13.657 14.2323C14.0955 13.7943 14.3027 13.2631 14.3027 12.664C14.3027 12.0636 14.095 11.5563 13.657 11.1414C13.2185 10.703 12.7113 10.4727 12.1113 10.4727C11.4882 10.4727 10.981 10.703 10.5656 11.1414Z" fill="#8E898F"/>
</svg>
