<svg width="24" height="24" viewBox="0 0 24 24" fill="none" xmlns="http://www.w3.org/2000/svg">
<path d="M23.9974 6.71728C23.9807 6.51928 23.881 6.33759 23.7228 6.21717C23.1966 5.81644 22.6641 5.62889 22.1943 5.46342C22.0604 5.41627 21.9303 5.37038 21.8027 5.32092C21.8284 5.10731 21.8307 4.88967 21.8066 4.67166C21.7177 3.86452 21.2847 3.1403 20.6188 2.68477C18.0145 0.903281 15.116 0 12.0035 0C8.88639 0 5.98539 0.903281 3.38116 2.68477C2.7152 3.1403 2.28227 3.86447 2.1933 4.67166C2.16925 4.88967 2.1715 5.10731 2.19719 5.32092C2.06969 5.37038 1.93956 5.41627 1.80564 5.46342C1.33581 5.62889 0.803314 5.81644 0.277095 6.21717C0.118986 6.33759 0.0192359 6.51928 0.00250153 6.71728C-0.0142328 6.91533 0.0535484 7.11117 0.189158 7.25644L2.43124 9.65761C2.56577 9.80166 2.75261 9.88088 2.94517 9.88088C2.99669 9.88088 3.04863 9.8752 3.1001 9.86358C3.34375 9.80855 3.53997 9.62831 3.61544 9.39019C3.63953 9.31416 3.66484 9.23334 3.69128 9.14883C3.82792 8.71223 4.00038 8.16202 4.19158 7.69467C4.97125 7.93012 5.83474 7.82578 6.52684 7.35052C8.19442 6.20555 10.0371 5.625 12.0035 5.625C13.9929 5.625 15.782 6.18942 17.4731 7.35052C17.9292 7.66369 18.4596 7.81584 18.9916 7.81584C19.2669 7.81584 19.5423 7.77455 19.8082 7.69425C19.9995 8.16169 20.172 8.71209 20.3087 9.14883C20.3351 9.23334 20.3605 9.3142 20.3845 9.39019C20.46 9.62836 20.6562 9.80855 20.8999 9.86358C20.9514 9.8752 21.0033 9.88088 21.0548 9.88088C21.2473 9.88088 21.4342 9.80166 21.5688 9.65761L23.8108 7.25644C23.9464 7.11117 24.0142 6.91533 23.9974 6.71728Z" fill="white"/>
<path d="M14.1133 9.84375H12.707V7.06017C12.4757 7.04109 12.2415 7.03125 12.0039 7.03125C11.7674 7.03125 11.5331 7.04152 11.3008 7.06125V9.84375H9.89453V7.308C9.41415 7.43761 8.94508 7.61278 8.48828 7.83277V10.5469C8.48828 12.2446 9.69803 13.6651 11.3008 13.9918V16.875H10.5977C10.2093 16.875 9.89453 17.1898 9.89453 17.5781V23.2969C9.89453 23.6852 10.2093 24 10.5977 24H13.4101C13.7985 24 14.1133 23.6852 14.1133 23.2969V17.5781C14.1133 17.1898 13.7985 16.875 13.4101 16.875H12.707V13.9918C14.3098 13.6651 15.5195 12.2447 15.5195 10.5469V7.83248C15.0612 7.60936 14.5933 7.43339 14.1133 7.30397V9.84375Z" fill="white"/>
</svg>
