<svg width="54" height="40" viewBox="0 0 54 40" fill="none" xmlns="http://www.w3.org/2000/svg">
<g clip-path="url(#clip0)">
<path d="M51.6706 33.3333H1.67057C1.21918 33.3333 0.828559 33.1684 0.498698 32.8385C0.168837 32.5087 0.00390625 32.1181 0.00390625 31.6667C0.00390625 25.1389 2.02648 19.5747 6.07161 14.974C10.1168 10.3733 15.3164 7.60417 21.6706 6.66667C22.122 6.66667 22.5126 6.50174 22.8424 6.17188C23.1723 5.84201 23.3372 5.45139 23.3372 5C23.3372 4.54861 23.1723 4.15799 22.8424 3.82812C22.5126 3.49826 22.122 3.33333 21.6706 3.33333C21.2192 3.33333 20.8286 3.1684 20.4987 2.83854C20.1688 2.50868 20.0039 2.11806 20.0039 1.66667C20.0039 1.21528 20.1688 0.824653 20.4987 0.494792C20.8286 0.164931 21.2192 0 21.6706 0H31.6706C32.122 0 32.5126 0.164931 32.8424 0.494792C33.1723 0.824653 33.3372 1.21528 33.3372 1.66667C33.3372 2.11806 33.1723 2.50868 32.8424 2.83854C32.5126 3.1684 32.122 3.33333 31.6706 3.33333C31.2192 3.33333 30.8286 3.49826 30.4987 3.82812C30.1688 4.15799 30.0039 4.54861 30.0039 5C30.0039 5.45139 30.1688 5.84201 30.4987 6.17188C30.8286 6.50174 31.2192 6.66667 31.6706 6.66667C38.0247 7.60417 43.2244 10.3733 47.2695 14.974C51.3147 19.5747 53.3372 25.1389 53.3372 31.6667C53.3372 32.1181 53.1723 32.5087 52.8424 32.8385C52.5126 33.1684 52.122 33.3333 51.6706 33.3333ZM1.67057 36.6667H51.6706C52.122 36.6667 52.5126 36.8316 52.8424 37.1615C53.1723 37.4913 53.3372 37.8819 53.3372 38.3333C53.3372 38.7847 53.1723 39.1753 52.8424 39.5052C52.5126 39.8351 52.122 40 51.6706 40H1.67057C1.21918 40 0.828559 39.8351 0.498698 39.5052C0.168837 39.1753 0.00390625 38.7847 0.00390625 38.3333C0.00390625 37.8819 0.168837 37.4913 0.498698 37.1615C0.828559 36.8316 1.21918 36.6667 1.67057 36.6667Z" fill="white"/>
</g>
<defs>
<clipPath id="clip0">
<rect width="53.34" height="40" fill="white"/>
</clipPath>
</defs>
</svg>
