<svg width="32" height="32" viewBox="0 0 32 32" fill="none" xmlns="http://www.w3.org/2000/svg">
<rect opacity="0.5" x="3" y="3" width="26" height="26" rx="6" fill="#8E898F"/>
<path fill-rule="evenodd" clip-rule="evenodd" d="M16.5 25.6062L17.0481 25.1276C21.6572 21.103 24 17.5888 24 14.4999C24 10.1254 20.5858 6.99988 16.5 6.99988C12.4142 6.99988 9 10.1254 9 14.4999C9 17.5888 11.3428 21.103 15.9519 25.1276L16.5 25.6062ZM13.5 14.3334C13.5 12.9527 14.6193 11.8334 16 11.8334C17.3807 11.8334 18.5 12.9527 18.5 14.3334C18.5 15.7141 17.3807 16.8334 16 16.8334C14.6193 16.8334 13.5 15.7141 13.5 14.3334Z" fill="white"/>
</svg>
