<svg width="20" height="20" viewBox="0 0 20 20" fill="none" xmlns="http://www.w3.org/2000/svg">
<path d="M9.91895 4.98438C9.42449 4.98437 8.94114 5.131 8.53002 5.4057C8.1189 5.6804 7.79847 6.07085 7.60925 6.52767C7.42003 6.98448 7.37052 7.48715 7.46698 7.9721C7.56345 8.45705 7.80155 8.90251 8.15118 9.25214C8.50081 9.60177 8.94627 9.83988 9.43122 9.93634C9.91617 10.0328 10.4188 9.98329 10.8757 9.79407C11.3325 9.60485 11.7229 9.28442 11.9976 8.8733C12.2723 8.46218 12.4189 7.97883 12.4189 7.48437C12.4182 6.82157 12.1546 6.18612 11.6859 5.71744C11.2172 5.24876 10.5818 4.98513 9.91895 4.98438ZM9.91895 8.73437C9.67172 8.73437 9.43004 8.66106 9.22448 8.52371C9.01892 8.38636 8.85871 8.19114 8.7641 7.96273C8.66949 7.73432 8.64473 7.48299 8.69296 7.24051C8.7412 6.99804 8.86025 6.77531 9.03506 6.60049C9.20988 6.42568 9.43261 6.30662 9.67508 6.25839C9.91756 6.21016 10.1689 6.23492 10.3973 6.32953C10.6257 6.42414 10.8209 6.58435 10.9583 6.78991C11.0956 6.99547 11.1689 7.23715 11.1689 7.48437C11.1686 7.81578 11.0367 8.1335 10.8024 8.36784C10.5681 8.60217 10.2503 8.73399 9.91895 8.73437Z" fill="white"/>
<path d="M14.7232 2.67627C13.5354 1.48879 11.9498 0.783378 10.2725 0.69618C8.59524 0.608982 6.94509 1.14618 5.64057 2.2041C4.33605 3.26201 3.46965 4.76565 3.20857 6.4248C2.9475 8.08396 3.31026 9.78101 4.22685 11.1884L8.94978 18.4389C9.05488 18.6003 9.19859 18.7328 9.36787 18.8246C9.53715 18.9163 9.72666 18.9644 9.91921 18.9644C10.1118 18.9644 10.3013 18.9163 10.4706 18.8246C10.6398 18.7328 10.7835 18.6003 10.8886 18.4389L15.6117 11.1884C16.4622 9.88284 16.8381 8.32459 16.6763 6.77485C16.5145 5.2251 15.825 3.77807 14.7232 2.67627V2.67627ZM14.5644 10.5061L9.91923 17.637L5.27404 10.5061C3.85216 8.32335 4.15712 5.40225 5.99915 3.56014C6.51394 3.04534 7.12509 2.63698 7.79769 2.35837C8.4703 2.07976 9.1912 1.93636 9.91923 1.93636C10.6473 1.93636 11.3682 2.07976 12.0408 2.35837C12.7134 2.63698 13.3245 3.04534 13.8393 3.56014C15.6813 5.40225 15.9863 8.32335 14.5644 10.5061Z" fill="white"/>
</svg>
