<svg width="65" height="65" viewBox="0 0 65 65" fill="none" xmlns="http://www.w3.org/2000/svg">
<g opacity="0.5">
<path d="M30.8452 13H33.189V18.148H30.8452V13Z" fill="#FED105"/>
<path d="M22.3262 14.7327L24.384 13.6108L26.9505 18.3191L24.8927 19.4409L22.3262 14.7327Z" fill="#FED105"/>
<path d="M37.0835 18.3208L39.65 13.6125L41.7078 14.7344L39.1413 19.4426L37.0835 18.3208Z" fill="#FED105"/>
<path d="M45.4714 48.3124L42.7391 41.2876V31.9572C42.7391 26.045 37.9293 21.2351 32.0171 21.2351C26.1046 21.2351 21.2947 26.045 21.2947 31.9572V41.2876L18.5625 48.3124H27.5463V48.5294C27.5463 50.9943 29.5519 52.9999 32.0171 52.9999C34.482 52.9999 36.4876 50.9943 36.4876 48.5294V48.3124H45.4714ZM23.6385 31.9572C23.6385 27.3374 27.397 23.5789 32.0171 23.5789C36.6368 23.5789 40.3954 27.3374 40.3954 31.9572V40.3358H23.6385V31.9572ZM23.2683 42.6795H40.7656L42.0449 45.9687H21.989L23.2683 42.6795ZM34.1439 48.5294C34.1439 49.7022 33.1896 50.6562 32.0171 50.6562C30.8443 50.6562 29.89 49.7022 29.89 48.5294V48.3124H34.1436V48.5294H34.1439Z" fill="#FED105"/>
<circle cx="32.5" cy="32.5" fill="none"  r="31" stroke="#FED105" stroke-width="3"/>
</g>
</svg>
