<svg width="18" height="18" viewBox="0 0 18 18" fill="none" xmlns="http://www.w3.org/2000/svg">
<path fill-rule="evenodd" clip-rule="evenodd" d="M6.13436 16.1333C5.99751 16.2706 5.83061 16.3741 5.64686 16.4358L1.89686 17.6858C1.67654 17.7596 1.44003 17.7705 1.21386 17.7173C0.987688 17.6641 0.780819 17.5489 0.616466 17.3847C0.452113 17.2205 0.336783 17.0137 0.283418 16.7876C0.230054 16.5614 0.240768 16.3249 0.314358 16.1045L1.56436 12.3545C1.62586 12.1703 1.72943 12.003 1.86686 11.8658L11.6081 2.12454C12.0769 1.65587 12.7127 1.39258 13.3756 1.39258C14.0385 1.39258 14.6743 1.65587 15.1431 2.12454L15.8756 2.85704C16.3443 3.32586 16.6076 3.96163 16.6076 4.62454C16.6076 5.28745 16.3443 5.92322 15.8756 6.39204L6.13436 16.1333ZM2.75061 12.7495L12.4919 3.00829C12.7263 2.77396 13.0442 2.64231 13.3756 2.64231C13.7071 2.64231 14.0249 2.77396 14.2594 3.00829L14.9919 3.74079C15.2262 3.9752 15.3578 4.29309 15.3578 4.62454C15.3578 4.956 15.2262 5.27388 14.9919 5.50829L5.25061 15.2495L1.50061 16.4995L2.75061 12.7495Z" fill="white"/>
<path fill-rule="evenodd" clip-rule="evenodd" d="M11.3183 2.19968C11.2602 2.14147 11.1913 2.0953 11.1153 2.06379C11.0394 2.03228 10.958 2.01606 10.8758 2.01606C10.7936 2.01606 10.7122 2.03228 10.6362 2.06379C10.5603 2.0953 10.4913 2.14147 10.4333 2.19968L6.31829 6.31843C6.20093 6.43579 6.04176 6.50172 5.87579 6.50172C5.70982 6.50172 5.55065 6.43579 5.43329 6.31843C5.31593 6.20107 5.25 6.0419 5.25 5.87593C5.25 5.70996 5.31593 5.55079 5.43329 5.43343L9.55079 1.31718C9.72491 1.14294 9.93167 1.00472 10.1592 0.910419C10.3868 0.816116 10.6307 0.767578 10.877 0.767578C11.1234 0.767578 11.3673 0.816116 11.5948 0.910419C11.8224 1.00472 12.0292 1.14294 12.2033 1.31718L12.5695 1.68218C12.6869 1.79937 12.7529 1.95838 12.753 2.12424C12.7531 2.29009 12.6874 2.44919 12.5702 2.56655C12.453 2.68391 12.294 2.74991 12.1281 2.75003C11.9623 2.75014 11.8031 2.68437 11.6858 2.56718L11.3195 2.20093L11.3183 2.19968Z" fill="white"/>
<path d="M15.6163 0.508561C15.8507 0.274222 16.1685 0.142578 16.5 0.142578C16.8315 0.142578 17.1493 0.274222 17.3838 0.508561L17.4213 0.546061C17.6491 0.773852 17.7802 1.08081 17.7871 1.40291C17.7941 1.725 17.6765 2.03736 17.4588 2.27481L15.875 3.99981L14 2.12481L15.6163 0.508561Z" fill="white"/>
</svg>
