<svg width="29" height="31" viewBox="0 0 29 31" fill="none" xmlns="http://www.w3.org/2000/svg">
<circle cx="14.0577" cy="8.10558" r="7.10558" stroke="#8E898F" stroke-width="2"/>
<mask id="path-2-inside-1" fill="white">
<path fill-rule="evenodd" clip-rule="evenodd" d="M21.0635 16.7725C19.1493 18.3214 16.7118 19.2492 14.0576 19.2492C11.4035 19.2492 8.96599 18.3214 7.05183 16.7725L0.896688 24.3875C-1.21761 27.0032 0.644151 30.902 4.00755 30.902H24.1077C27.4711 30.902 29.3329 27.0032 27.2186 24.3875L21.0635 16.7725Z"/>
</mask>
<path d="M21.0635 16.7725L22.6189 15.5152L21.361 13.9589L19.8054 15.2177L21.0635 16.7725ZM7.05183 16.7725L8.30993 15.2177L6.75434 13.9589L5.49641 15.5152L7.05183 16.7725ZM0.896688 24.3875L2.45212 25.6447L2.45212 25.6447L0.896688 24.3875ZM27.2186 24.3875L25.6632 25.6447L27.2186 24.3875ZM19.8054 15.2177C18.2342 16.4891 16.2374 17.2492 14.0576 17.2492V21.2492C17.1862 21.2492 20.0644 20.1537 22.3216 18.3272L19.8054 15.2177ZM14.0576 17.2492C11.8779 17.2492 9.88105 16.4891 8.30993 15.2177L5.79374 18.3272C8.05093 20.1537 10.9291 21.2492 14.0576 21.2492V17.2492ZM2.45212 25.6447L8.60726 18.0297L5.49641 15.5152L-0.658739 23.1302L2.45212 25.6447ZM4.00755 28.902C2.32584 28.902 1.39497 26.9526 2.45212 25.6447L-0.658739 23.1302C-3.83019 27.0539 -1.03754 32.902 4.00755 32.902V28.902ZM24.1077 28.902H4.00755V32.902H24.1077V28.902ZM25.6632 25.6447C26.7203 26.9526 25.7894 28.902 24.1077 28.902V32.902C29.1529 32.902 31.9455 27.0539 28.774 23.1302L25.6632 25.6447ZM19.508 18.0297L25.6632 25.6447L28.774 23.1302L22.6189 15.5152L19.508 18.0297Z" fill="#8E898F" mask="url(#path-2-inside-1)"/>
</svg>
