<svg width="16" height="16" viewBox="0 0 16 16" fill="none" xmlns="http://www.w3.org/2000/svg">
<path d="M14.7676 12.9141C14.3992 12.0414 13.8645 11.2486 13.1934 10.5801C12.5243 9.90959 11.7317 9.37501 10.8594 9.00586C10.8516 9.00195 10.8438 9 10.836 8.99609C12.0528 8.11719 12.8438 6.68555 12.8438 5.07031C12.8438 2.39453 10.6758 0.226562 8.00005 0.226562C5.32427 0.226562 3.1563 2.39453 3.1563 5.07031C3.1563 6.68555 3.94731 8.11719 5.16411 8.99805C5.1563 9.00195 5.14849 9.00391 5.14067 9.00781C4.26567 9.37695 3.48052 9.90625 2.80669 10.582C2.1362 11.2511 1.60162 12.0437 1.23247 12.916C0.869819 13.77 0.674232 14.6856 0.656299 15.6133C0.655778 15.6341 0.659434 15.6549 0.667052 15.6743C0.674671 15.6937 0.686098 15.7114 0.700659 15.7263C0.71522 15.7412 0.732622 15.7531 0.751838 15.7612C0.771055 15.7693 0.791697 15.7734 0.812549 15.7734H1.98442C2.07036 15.7734 2.13872 15.7051 2.14067 15.6211C2.17974 14.1133 2.7852 12.7012 3.85552 11.6309C4.96294 10.5234 6.43364 9.91406 8.00005 9.91406C9.56645 9.91406 11.0372 10.5234 12.1446 11.6309C13.2149 12.7012 13.8204 14.1133 13.8594 15.6211C13.8614 15.707 13.9297 15.7734 14.0157 15.7734H15.1875C15.2084 15.7734 15.229 15.7693 15.2483 15.7612C15.2675 15.7531 15.2849 15.7412 15.2994 15.7263C15.314 15.7114 15.3254 15.6937 15.333 15.6743C15.3407 15.6549 15.3443 15.6341 15.3438 15.6133C15.3243 14.6797 15.1309 13.7715 14.7676 12.9141ZM8.00005 8.42969C7.10356 8.42969 6.25981 8.08008 5.62505 7.44531C4.99028 6.81055 4.64067 5.9668 4.64067 5.07031C4.64067 4.17383 4.99028 3.33008 5.62505 2.69531C6.25981 2.06055 7.10356 1.71094 8.00005 1.71094C8.89653 1.71094 9.74028 2.06055 10.375 2.69531C11.0098 3.33008 11.3594 4.17383 11.3594 5.07031C11.3594 5.9668 11.0098 6.81055 10.375 7.44531C9.74028 8.08008 8.89653 8.42969 8.00005 8.42969Z" fill="white"/>
</svg>
