<svg width="24" height="13" viewBox="0 0 24 13" fill="none" xmlns="http://www.w3.org/2000/svg">
<path d="M3.70164 10.649C3.72182 10.4024 3.74306 10.1546 3.78479 9.90631C3.86428 9.31414 4.03531 8.72198 4.20923 8.143C4.31797 7.85456 4.43371 7.57065 4.55272 7.29213C4.70799 7.02127 4.85959 6.75159 5.00975 6.48792C5.35255 5.97267 5.73412 5.49175 6.19008 5.0888C6.29958 4.98526 6.40611 4.88418 6.51126 4.78338C6.63179 4.69383 6.75112 4.60622 6.86907 4.51918C7.11258 4.35328 7.32427 4.17533 7.56923 4.04209C8.05374 3.77209 8.48512 3.51555 8.92311 3.35627C9.34534 3.1802 9.70825 3.02617 10.0345 2.93965C10.6728 2.74656 11.0358 2.64931 11.0358 2.64931C11.0358 2.64931 10.7259 2.83337 10.1846 3.13188C9.90417 3.2698 9.6101 3.48591 9.25664 3.70618C8.89083 3.91709 8.55648 4.21868 8.16242 4.50954C7.96392 4.65676 7.81016 4.84352 7.62338 5.01467C7.53185 5.10118 7.43881 5.19016 7.34431 5.27943C7.26482 5.37748 7.18464 5.47634 7.10224 5.57662C6.7532 5.96468 6.49248 6.42092 6.22002 6.88454C6.10983 7.12566 5.99523 7.37071 5.88018 7.61897C5.80145 7.87772 5.71389 8.13809 5.61795 8.39793C5.4751 8.93081 5.33415 9.47404 5.27514 10.0343C5.23228 10.237 5.21072 10.4425 5.18796 10.648C11.1136 10.6491 15.7012 10.6512 22.1194 10.6512C22.1406 10.4403 22.153 10.2271 22.153 10.0113C22.153 5.95731 18.2126 2.61915 13.1464 2.17695C13.4723 1.94675 13.6782 1.62105 13.6782 1.25818C13.6768 0.563562 12.9267 0 11.9994 0C11.0718 0 10.3193 0.563562 10.3193 1.2596C10.3193 1.62213 10.5252 1.94788 10.8529 2.17804C5.78487 2.62023 1.84668 5.95844 1.84668 10.0124C1.84668 10.2272 1.85727 10.4392 1.8782 10.6491C2.50448 10.649 3.10908 10.649 3.70164 10.649Z" fill="white"/>
<path d="M24 11.1172H0V12.7053H24V11.1172Z" fill="white"/>
</svg>
