<svg width="32" height="32" viewBox="0 0 32 32" fill="none" xmlns="http://www.w3.org/2000/svg">
<rect opacity="0.5" x="3" y="3" width="26" height="26" rx="6" fill="#8E898F"/>
<path d="M11.3701 24.3027L11.1221 29.1151L13.6039 29.1141L13.372 23.3377H13.3749C13.3749 23.3377 13.313 6.41789 13.313 4.9628C13.3008 3.9599 12.2079 5.00188 11.7431 5.95695C11.2808 6.91295 9.39988 11.1981 9.39988 15.6269C9.39988 17.289 9.36719 19.5028 9.36719 20.5644C9.36719 22.4608 11.3701 21.5927 11.3701 24.3027Z" fill="white"/>
<path d="M19.2294 20.0683L18.7626 29.1141L21.3955 29.1131L20.9239 20.077C20.9239 20.077 20.9404 20.0702 20.9609 20.0623C22.0478 19.8143 22.9794 19.1161 23.5615 18.245C24.292 17.1522 23.0019 7.4808 23.0019 7.4808H22.3564V16.5565H21.5244V7.4808H20.5781V16.5565H19.7471V7.4808H18.8359V16.5585H18.0018V7.48181H17.1611C17.1611 7.48181 15.87 17.1522 16.6005 18.246C17.1884 19.1258 18.1279 19.8271 19.2294 20.0683Z" fill="white"/>
</svg>
