<svg width="26" height="27" viewBox="0 0 26 27" fill="none" xmlns="http://www.w3.org/2000/svg">
<mask id="path-1-inside-1232" fill="white">
<path fill-rule="evenodd" clip-rule="evenodd" d="M12.8945 0C8.87204 0 5.56466 3.06157 5.17546 6.9816H4.03879C1.44139 6.9816 -0.467129 9.41855 0.155371 11.9403L2.96789 23.3336C3.40885 25.1198 5.01143 26.3749 6.85132 26.3749H18.9377C20.7775 26.3749 22.3801 25.1198 22.8211 23.3336L25.6336 11.9402C26.2561 9.41855 24.3476 6.9816 21.7502 6.9816H20.6135C20.2243 3.06157 16.9169 0 12.8945 0Z"/>
</mask>
<path d="M11.5673 7.75733C11.5673 7.02434 12.1615 6.43013 12.8945 6.43013V4.43013C11.0569 4.43013 9.56729 5.91977 9.56729 7.75733H11.5673ZM12.8945 6.43013C13.6275 6.43013 14.2217 7.02434 14.2217 7.75733H16.2217C16.2217 5.91977 14.732 4.43013 12.8945 4.43013V6.43013ZM14.2217 7.75733V10.0845H16.2217V7.75733H14.2217ZM9.56729 7.75733V10.0845H11.5673V7.75733H9.56729ZM5.17546 6.9816V8.9816H6.98672L7.16567 7.1792L5.17546 6.9816ZM0.155371 11.9403L-1.78634 12.4196L0.155371 11.9403ZM2.96789 23.3336L4.90961 22.8543V22.8543L2.96789 23.3336ZM22.8211 23.3336L20.8794 22.8542L22.8211 23.3336ZM25.6336 11.9402L27.5753 12.4196H27.5753L25.6336 11.9402ZM20.6135 6.9816L18.6233 7.1792L18.8023 8.9816H20.6135V6.9816ZM7.16567 7.1792C7.45432 4.27197 9.91032 2 12.8945 2V-2C7.83377 -2 3.67501 1.85117 3.18524 6.784L7.16567 7.1792ZM4.03879 8.9816H5.17546V4.9816H4.03879V8.9816ZM2.09708 11.4609C1.78583 10.2001 2.7401 8.9816 4.03879 8.9816V4.9816C0.14269 4.9816 -2.72009 8.63703 -1.78634 12.4196L2.09708 11.4609ZM4.90961 22.8543L2.09708 11.4609L-1.78634 12.4196L1.02618 23.8129L4.90961 22.8543ZM6.85132 24.3749C5.93138 24.3749 5.13008 23.7474 4.90961 22.8543L1.02618 23.8129C1.68761 26.4923 4.09149 28.3749 6.85132 28.3749V24.3749ZM18.9377 24.3749H6.85132V28.3749H18.9377V24.3749ZM20.8794 22.8542C20.6589 23.7474 19.8576 24.3749 18.9377 24.3749V28.3749C21.6975 28.3749 24.1014 26.4923 24.7628 23.8129L20.8794 22.8542ZM23.6919 11.4609L20.8794 22.8542L24.7628 23.8129L27.5753 12.4196L23.6919 11.4609ZM21.7502 8.9816C23.0489 8.9816 24.0031 10.2001 23.6919 11.4609L27.5753 12.4196C28.5091 8.63702 25.6463 4.9816 21.7502 4.9816V8.9816ZM20.6135 8.9816H21.7502V4.9816H20.6135V8.9816ZM12.8945 2C15.8787 2 18.3347 4.27197 18.6233 7.1792L22.6037 6.784C22.114 1.85117 17.9552 -2 12.8945 -2V2Z" fill="black" mask="url(#path-1-inside-1232)"/>
</svg>

