<svg width="32" height="32" viewBox="0 0 32 32" fill="none" xmlns="http://www.w3.org/2000/svg">
<rect opacity="0.5" x="3" y="3" width="26" height="26" rx="6" fill="#8E898F"/>
<path fill-rule="evenodd" clip-rule="evenodd" d="M17.517 6.89709C21.4801 7.37746 24.6224 10.5198 25.1028 14.4829L23.292 14.7847C22.9423 11.5925 20.4074 9.05755 17.2152 8.70791L17.517 6.89709ZM16.9131 10.5203C19.3345 10.7369 21.263 12.6654 21.4796 15.0868L19.663 15.3895C19.5859 13.7387 18.2612 12.414 16.6104 12.3369L16.9131 10.5203Z" fill="white"/>
<path fill-rule="evenodd" clip-rule="evenodd" d="M19.5555 19.7244L18.853 20.4274C17.6588 21.6222 15.6252 20.6037 13.6933 18.6699C11.7601 16.7348 10.7428 14.7019 11.9373 13.5075C12.1269 13.3178 12.361 13.0837 12.6395 12.8049C12.7519 12.6924 12.8033 12.6403 12.865 12.5755C12.949 12.4871 13.0181 12.4095 13.0734 12.3409C12.0051 10.8528 11.279 9.923 10.8875 9.53628C10.6853 9.33657 10.2326 9.37334 10.0664 9.5371C9.62314 9.97386 9.47745 10.1195 9.01759 10.5865C7.36363 12.2414 8.62979 16.6327 12.1791 20.1855C15.7273 23.7372 20.118 25.004 21.7845 23.3367C22.2039 22.9322 22.5457 22.5902 22.8088 22.3121C22.9989 22.1112 23.0329 21.6966 22.8142 21.4694C22.45 21.0909 21.5583 20.3957 20.0186 19.29C19.9064 19.3803 19.7684 19.5114 19.5555 19.7244Z" fill="white" stroke="white" stroke-width="2"/>
</svg>
