<svg width="639" height="347" viewBox="0 0 639 347" fill="none" xmlns="http://www.w3.org/2000/svg">
<path opacity="0.2" fill-rule="evenodd" clip-rule="evenodd" d="M767.504 237.954L767.048 237.164L767.215 236.541L766.759 235.751L766.303 234.961C765.391 233.382 765.102 231.969 764.19 230.39C762.99 227.398 761.166 224.239 759.342 221.079C756.317 214.928 752.67 208.61 748.855 202.915C747.031 199.756 745.041 197.22 743.217 194.061C741.393 190.902 739.403 188.365 736.956 185.039C732.519 179.177 727.914 173.938 723.477 168.076C714.269 157.597 704.271 147.575 693.316 138.631C682.361 129.688 671.072 121.99 658.827 115.371C646.582 108.751 633.38 103.211 620.3 99.7066L615.318 98.3714C614.695 98.2046 613.449 97.8708 612.826 97.7039L610.335 97.0363L605.352 95.7012L602.861 95.0336C602.238 94.8667 602.238 94.8667 601.615 94.6999L600.369 94.3661C596.465 93.9876 592.728 92.9863 588.824 92.6078C584.92 92.2293 581.183 91.228 577.279 90.8495C561.83 88.7127 545.592 87.032 529.186 85.9741C512.781 84.9162 496.375 83.8583 479.969 82.8004C463.564 81.7425 446.535 80.5177 429.674 78.67C412.812 76.8224 395.951 74.9747 378.8 71.7144C361.65 68.4541 345.289 64.7379 328.639 59.6089C312.612 54.6469 296.129 48.8951 280.436 42.6874C264.742 36.4796 249.383 29.026 234.646 21.7394L228.752 18.8248L225.804 17.3674L224.725 16.4108L224.103 16.2439L223.48 16.077C220.077 13.8299 215.884 12.0388 212.48 9.79171C205.674 5.29753 198.077 1.25933 191.271 -3.23483C177.035 -12.3901 163.422 -21.3784 149.976 -30.9897L144.871 -34.3603L142.09 -36.4405L139.933 -38.3538C136.53 -40.6009 133.293 -43.4709 129.89 -45.718L124.952 -49.7115L120.014 -53.705L117.856 -55.6183C117.4 -56.4081 116.322 -57.3647 115.699 -57.5316L111.551 -61.9811L116.656 -58.6104C117.111 -57.8207 118.357 -57.4869 118.813 -56.6972L121.593 -54.617L126.698 -51.2463L131.803 -47.8757C135.207 -45.6286 138.777 -44.0044 142.18 -41.7573L143.715 -40.0109L145.872 -38.0975L151.767 -35.1829C166.337 -27.2734 181.073 -19.9868 195.977 -13.323C203.74 -9.90768 210.88 -6.65924 218.643 -3.24392C222.214 -1.61971 226.407 0.17139 229.977 1.79561L230.6 1.9625L231.222 2.12938L232.468 2.46316L235.582 3.29762L241.021 5.42251C256.258 10.8405 271.663 15.6357 287.234 19.8079C318.376 28.1524 350.353 33.3826 381.918 35.1646C413.483 36.9466 445.261 35.4474 478.617 33.0362C494.901 32.0586 511.807 31.2478 528.713 30.4371C545.62 29.6264 562.359 29.4385 579.721 29.4176C583.792 29.1732 588.319 29.7185 592.39 29.4741C596.461 29.2297 600.987 29.7751 605.058 29.5307L606.76 30.6542C607.383 30.8211 608.006 30.988 608.795 30.532L612.076 30.7436L619.261 31.3337L622.543 31.5452C623.788 31.879 625.034 32.2128 625.824 31.7568L632.842 32.9697C651.405 35.9409 670.257 40.3248 688.442 47.2001C706.627 54.0755 723.688 62.6525 739.625 72.9313C755.563 83.2101 770.544 94.5678 784.568 107.004C791.497 113.534 798.425 120.064 804.731 126.426C808.423 130.086 811.493 133.579 814.562 137.072C817.632 140.565 820.701 144.058 823.771 147.55C829.91 154.536 835.259 161.978 841.064 170.209C843.967 174.325 846.413 177.651 849.149 182.389C850.517 184.759 852.051 186.505 852.796 188.707L853.708 190.287L854.954 190.621L855.41 191.411L856.322 192.99L856.778 193.78L857.234 194.57L857.523 195.982L767.504 237.954ZM669.581 359.253C669.581 359.253 669.748 358.63 669.125 358.464L669.292 357.841L669.459 357.218L669.17 355.805C668.881 354.393 668.592 352.98 667.847 350.778C666.813 347.163 665.612 344.17 664.578 340.555C662.343 333.948 660.108 327.341 657.25 320.567C656.049 317.575 654.392 313.793 653.191 310.801C651.367 307.641 650.333 304.026 648.51 300.867C645.485 294.716 641.837 288.398 638.19 282.08C630.728 270.067 622.476 258.509 613.434 247.408C604.226 236.929 594.228 226.907 583.106 218.586C571.984 210.265 560.073 202.4 547.661 196.404L542.845 194.446C542.222 194.279 540.977 193.946 540.521 193.156L538.029 192.488L533.213 190.53L530.722 189.863C530.099 189.696 530.099 189.696 529.476 189.529L528.231 189.195C524.494 188.194 520.923 186.569 517.186 185.568C513.449 184.567 509.879 182.943 506.142 181.941C490.738 177.146 475.79 173.141 459.596 168.802C444.025 164.629 428.286 161.08 411.926 157.364C395.565 153.647 379.371 149.308 363.177 144.969C346.983 140.63 330.333 135.501 314.64 129.293C298.78 123.708 282.631 116.711 267.438 108.634C252.079 101.181 237.676 92.6485 222.817 83.3264C208.581 74.1711 194.512 64.393 181.066 54.7818L176.128 50.7882L173.347 48.708L172.269 47.7514L171.646 47.5845L171.19 46.7947C167.954 43.9248 164.717 41.0548 161.314 38.8077C154.841 33.0678 148.824 28.1176 142.352 22.3777C130.029 11.0647 117.706 -0.248219 106.173 -12.0172L102.025 -16.4666L99.8677 -18.38L97.877 -20.9161C95.2635 -23.6192 92.194 -27.112 89.5805 -29.8151L85.4322 -34.2646L81.4508 -39.337L79.4602 -41.8732C79.0043 -42.6629 77.9254 -43.6196 77.4695 -44.4093L73.4881 -49.4817L77.6364 -45.0322C78.0923 -44.2424 79.1712 -43.2858 79.794 -43.1189L81.9515 -41.2056L86.0998 -36.7561L91.0378 -32.7626C94.2742 -29.8926 96.8877 -27.1896 100.291 -24.9425L102.449 -23.0292L104.606 -21.1159L109.544 -17.1223C122.201 -7.05512 135.647 2.55609 149.093 12.1673C155.899 16.6615 162.706 21.1557 169.346 26.2727C172.749 28.5198 176.152 30.7669 179.555 33.014L180.178 33.1809L180.801 33.3478L181.88 34.3045L184.827 35.7618L190.099 38.5095C204.046 46.2521 218.616 54.1616 233.519 60.8254C262.536 74.6089 293.011 85.4449 323.864 92.3768C354.55 99.9316 386.238 103.749 419.338 107.278C435.577 108.958 452.438 110.806 469.133 113.276C485.995 115.124 502.689 117.595 519.84 120.855C524.367 121.4 528.104 122.402 532.464 123.57C536.823 124.738 540.727 125.117 545.087 126.285L546.956 126.786C547.579 126.952 548.202 127.119 548.824 127.286L551.939 128.121L558.79 129.956L562.527 130.958C563.773 131.292 565.018 131.625 566.264 131.959L572.948 134.418C590.677 140.503 608.528 148.624 625.255 158.447C641.982 168.27 656.963 179.628 670.821 192.687C684.845 205.124 697.746 219.262 709.067 234.312C715.039 241.921 720.388 249.362 725.737 256.804C728.64 260.92 730.92 264.868 733.199 268.817C735.479 272.766 738.382 276.882 740.661 280.831C745.221 288.728 749.613 297.249 754.006 305.769C756.119 310.341 758.399 314.29 759.889 318.695C760.634 320.897 762.001 323.266 762.746 325.469L763.658 327.048L764.114 327.838L764.57 328.628L765.315 330.83L765.771 331.62L766.227 332.41L766.683 333.199L669.581 359.253ZM537.417 423.979C536.383 420.364 535.972 416.916 534.771 413.924C532.703 406.694 530.468 400.087 528.233 393.479C523.14 380.098 517.258 367.173 510.585 354.703C503.913 342.234 495.661 330.677 486.453 320.198C477.244 309.72 467.079 300.32 455.958 291.999L451.476 288.796C450.853 288.629 449.774 287.672 449.151 287.505L446.827 286.215L442.345 283.011L440.02 281.72C439.397 281.554 439.397 281.554 438.941 280.764L437.863 279.807C434.459 277.56 430.889 275.936 427.486 273.689C423.916 272.065 420.512 269.817 416.942 268.193C402.995 260.451 388.882 253.331 373.978 246.667C359.241 239.38 344.338 232.717 329.434 226.053C314.531 219.389 299.172 211.936 283.812 204.482C268.453 197.029 253.427 188.329 239.024 179.797C224.165 170.475 209.929 161.32 196.817 150.463C183.538 140.229 170.592 128.749 158.27 117.436C145.947 106.123 134.581 93.7309 123.215 81.3391L119.067 76.8896L117.076 74.3534L116.164 72.7739L115.708 71.9841L115.252 71.1944C112.806 67.8684 110.359 64.5425 107.29 61.0496C102.396 54.3977 96.8804 47.579 91.9871 40.9271C82.2006 27.6233 72.4141 14.3195 62.7945 0.392829L59.436 -4.51262L57.4454 -7.0488L55.4547 -9.58499C53.0081 -12.9109 51.3511 -16.6929 48.9045 -20.0188L45.7129 -25.5471L42.5213 -31.0755L41.3203 -34.0677C40.8644 -34.8574 40.4085 -35.6472 40.1194 -37.0598L37.5507 -42.4213L40.9091 -37.5158C41.3651 -36.726 41.821 -35.9363 42.8998 -34.9796L44.8905 -32.4434L48.249 -27.538L52.2304 -22.4656C54.677 -19.1397 57.1237 -15.8137 59.7372 -13.1107L61.7279 -10.5745L63.7185 -8.03829L67.8668 -3.5888C78.6099 8.63614 89.9759 21.028 101.509 32.7969C107.192 38.9928 113.042 44.5658 118.892 50.1389C122.128 53.0089 124.741 55.7119 127.978 58.5819L128.601 58.7488L129.057 59.5385L130.135 60.4952L132.293 62.4085L136.608 66.2351C149.098 76.9252 161.754 86.9924 174.577 96.4368C200.847 115.492 228.574 131.6 257.135 144.594C286.319 157.755 316.338 167.801 347.769 177.558C363.173 182.353 379.2 187.315 395.061 192.9C410.921 198.485 427.404 204.237 443.097 210.445C447.29 212.236 450.86 213.86 455.22 215.028C459.413 216.819 462.983 218.444 467.176 220.235L468.422 220.569C469.045 220.735 469.667 220.902 470.29 221.069L473.238 222.527L479.755 225.608L482.702 227.065C483.948 227.399 485.027 228.356 485.65 228.523L493.535 233.974C510.429 243.173 526.033 254.698 540.057 267.135C554.082 279.571 567.605 293.876 578.759 309.549C590.081 324.599 599.822 340.562 608.608 357.603C613 366.123 616.77 374.477 620.54 382.83C622.652 387.402 624.142 391.807 625.799 395.589C627.289 399.994 628.779 404.398 630.269 408.803C633.249 417.613 636.229 426.422 638.419 435.688C639.909 440.093 640.61 444.954 641.933 449.981C642.678 452.184 642.633 454.842 643.378 457.044L643.5 459.08L642.999 460.949L643.455 461.738L643.577 463.774L643.867 465.186L643.7 465.809L644.156 466.599L544.542 474.623L544.709 474C544.709 474 544.875 473.377 545.042 472.754L545.209 472.131L545.376 471.508L545.087 470.096C544.798 468.683 544.676 466.647 545.01 465.402C544.599 461.953 544.187 458.505 543.776 455.057C542.954 448.161 541.508 441.098 540.063 434.035C539.485 431.209 538.451 427.594 537.417 423.979ZM544.542 474.623C544.542 474.623 545.164 474.789 544.542 474.623V474.623ZM2.9036 -37.6855C3.35956 -36.8957 3.64857 -35.4831 4.10448 -34.6933L5.30542 -31.7012L7.87425 -26.3397L10.443 -20.9782C12.0999 -17.1963 14.5465 -13.8704 16.2034 -10.0884L17.5712 -7.71914L18.9391 -5.34984L22.1307 0.178503C30.3377 14.3943 39.3344 28.154 49.1209 41.4578C54.0142 48.1097 58.1177 55.2176 63.011 61.8695C65.4576 65.1954 67.9042 68.5213 70.3508 71.8473L70.8068 72.6371L71.2628 73.4268L72.3415 74.3835L74.3322 76.9196L78.3136 81.992C88.267 94.6729 99.0101 106.898 110.543 118.667C132.986 142.038 157.509 162.628 183.323 180.894C209.926 198.704 237.82 214.189 267.126 229.385C281.862 236.672 296.432 244.581 311.625 252.658C326.195 260.567 341.22 269.267 356.246 277.966C359.649 280.213 363.675 282.627 367.078 284.874C370.482 287.121 374.508 289.535 377.911 291.782L378.99 292.739C379.613 292.906 380.236 293.073 380.069 293.695L382.849 295.776L388.41 299.936L392.314 300.314C393.393 301.271 394.015 301.438 395.094 302.395L400.655 306.555C415.469 318.536 429.16 332.218 440.481 347.268C452.425 362.485 462.789 378.614 470.952 395.488C479.737 412.529 486.32 430.316 492.28 447.935C495.26 456.744 497.45 466.01 499.64 475.275C500.507 479.513 501.83 484.541 502.697 488.779C503.398 493.64 504.265 497.878 504.965 502.738C506.532 511.837 507.31 521.392 508.088 530.947C508.165 535.64 508.865 540.501 508.943 545.195C508.898 547.853 509.02 549.889 508.975 552.547L509.098 554.583L508.931 555.206L508.597 556.451L508.719 558.487L508.385 559.733L508.218 560.356L508.051 560.979L409.04 551.806L409.207 551.183C409.207 551.183 409.374 550.56 409.54 549.937L409.707 549.314L409.874 548.692L410.208 547.446C410.542 546.2 410.42 544.165 410.92 542.296C411.132 539.015 411.344 535.733 411.722 531.829C412.312 524.644 412.113 517.914 412.08 510.562C411.669 507.114 412.048 503.21 411.636 499.762C411.225 496.314 410.981 492.242 410.57 488.794C409.747 481.898 409.092 474.379 407.647 467.316C405.379 453.356 401.699 439.686 397.229 426.471C392.759 413.257 386.876 400.332 379.414 388.318C372.575 376.472 363.534 365.371 354.325 354.892L350.633 351.232C350.177 350.443 349.554 350.276 348.475 349.319L346.318 347.406L342.625 343.746L340.468 341.833C339.845 341.666 340.012 341.043 339.389 340.876L338.31 339.919C335.074 337.049 332.293 334.969 329.057 332.099C325.654 329.852 323.04 327.149 319.804 324.279C307.147 314.212 294.324 304.768 281.501 295.323C268.678 285.879 255.064 276.891 240.995 267.112C227.549 257.501 213.313 248.346 200.034 238.112C186.755 227.878 172.853 217.477 159.907 205.997C146.962 194.517 134.806 182.581 123.44 170.189C112.074 157.797 101.042 144.16 91.2554 130.856C80.846 117.385 71.8492 103.626 63.0194 89.2431L59.8278 83.7147L57.8371 81.1785L56.9252 79.599L56.4693 78.8092L56.0133 78.0195C53.7336 74.0707 51.9099 70.9116 50.253 67.1297C46.1494 60.0218 42.2128 52.2911 38.7322 45.3501C31.3149 30.6783 24.0645 15.3837 17.437 0.256021L15.0351 -5.72832L13.8342 -8.72048L12.6332 -11.7127C10.9764 -15.4946 9.31947 -19.2765 8.45233 -23.5144L6.05039 -29.4988L4.27137 -35.3162L3.07049 -38.3083C2.4029 -35.8168 2.5698 -36.4397 2.9036 -37.6855L0.501657 -43.6698L2.9036 -37.6855Z" fill="#8E898F"/>
</svg>
