<svg width="184" height="106" viewBox="0 0 184 106" fill="none" xmlns="http://www.w3.org/2000/svg">
<path d="M19.04 68.76C22.1333 65.1333 24.1333 60.52 25.04 54.92C20.9867 58.9733 18.1333 63.3733 16.48 68.12C16.1067 69.1867 15.92 70.0133 15.92 70.6C15.92 70.9733 16.0267 71.16 16.24 71.16C16.5067 71.16 16.8267 71 17.2 70.68C17.7867 70.1467 18.4 69.5067 19.04 68.76ZM1.52 59C1.78667 56.6 2.18667 52.2 2.72 45.8C3.25333 39.4 3.73333 34.4933 4.16 31.08L3.44 34.92C2.32 41 1.49333 47.48 0.96 54.36C0.64 58.2533 0.48 61.5067 0.48 64.12C0.48 64.2267 0.48 64.4133 0.48 64.68C0.533333 64.9467 0.56 65.16 0.56 65.32C0.613333 65.3733 0.64 65.4533 0.64 65.56C0.693333 65.1867 0.986667 63 1.52 59ZM27.04 52.44C30.24 49.9333 33.44 48.44 36.64 47.96C36.9067 47.96 37.0667 48.0933 37.12 48.36C37.1733 48.5733 37.0667 48.7067 36.8 48.76C33.7067 49.0267 30.5333 50.4667 27.28 53.08C27.2267 53.08 27.1733 53.1067 27.12 53.16C27.0667 53.2133 27.0133 53.2667 26.96 53.32L26.64 54.68C25.9467 58.0933 24.8267 61.2667 23.28 64.2C21.7333 67.1867 19.8667 69.56 17.68 71.32C17.1467 71.6933 16.6933 71.9067 16.32 71.96C15.6267 71.96 15.28 71.5333 15.28 70.68C15.3333 69.4 15.8933 67.6667 16.96 65.48C19.2 61 21.9733 57.2133 25.28 54.12C25.8667 50.8667 26.0533 47.2667 25.84 43.32C25.68 39.3733 25.0933 36.1467 24.08 33.64C23.44 32.3067 22.72 31.24 21.92 30.44C21.1733 29.64 20.1067 29.24 18.72 29.24C17.92 29.24 17.0933 29.3733 16.24 29.64C16.1867 29.6933 16.1067 29.6933 16 29.64C15.8933 29.5333 15.8667 29.4267 15.92 29.32C17.3067 26.3867 18.4267 23.3733 19.28 20.28C20.6133 15.1067 20.6933 11.24 19.52 8.68C17.9733 6.06666 15.2267 7.16 11.28 11.96C11.2267 12.0667 11.1733 12.1467 11.12 12.2C8.56 15.72 6.58667 20.6 5.2 26.84C4.61333 32.2267 4.18667 36.4933 3.92 39.64L2.96 49.4C2.26667 57.0267 1.76 61.88 1.44 63.96C1.28 65.1867 1.06667 66.0133 0.8 66.44C0.8 66.4933 0.773333 66.5467 0.72 66.6C0.72 66.6 0.693333 66.6 0.64 66.6C0.586667 66.6533 0.533333 66.68 0.48 66.68C0.32 66.6267 0.213333 66.52 0.16 66.36C0.16 66.3067 0.133333 66.2267 0.08 66.12C0.08 66.0667 0.08 66.04 0.08 66.04C0.08 65.9333 0.08 65.8 0.08 65.64C0.08 65.5333 0.08 65.4267 0.08 65.32C0.0266667 65.0533 0 64.6533 0 64.12C0 55.48 0.933333 45.72 2.8 34.84C3.38667 31.5867 4.02667 28.4133 4.72 25.32L5.36 20.04C6.37333 11.9867 7.36 6.33333 8.32 3.08C8.37333 2.97333 8.42667 2.86666 8.48 2.76C8.53333 2.65333 8.61333 2.46666 8.72 2.2C8.88 1.88 8.98667 1.66666 9.04 1.56C9.14667 1.4 9.28 1.21333 9.44 0.999997C9.6 0.733331 9.73333 0.626664 9.84 0.679996C9.94667 0.733329 10.08 0.786663 10.24 0.839999C10.3467 1.05333 10.32 1.24 10.16 1.4C9.94667 1.56 9.6 2.2 9.12 3.32C8.64 4.54666 8.05333 6.89333 7.36 10.36C6.61333 14.52 6.08 18.2267 5.76 21.48C7.57333 15.56 9.54667 11.5333 11.68 9.4C13.0667 7.74666 14.4 6.65333 15.68 6.12C16.8533 5.74666 17.84 5.74666 18.64 6.12C19.4933 6.44 20.16 7.02666 20.64 7.88C22.0267 10.7067 21.9467 14.8667 20.4 20.36C19.4933 23.4 18.2667 26.1733 16.72 28.68C17.4667 28.36 18.16 28.1733 18.8 28.12C19.4933 28.0133 20.1067 28.04 20.64 28.2C21.1733 28.3067 21.68 28.52 22.16 28.84C22.6933 29.16 23.1467 29.5333 23.52 29.96C23.8933 30.3333 24.24 30.7867 24.56 31.32C24.9333 31.8533 25.2267 32.4133 25.44 33C25.7067 33.5333 25.9467 34.12 26.16 34.76C26.3733 35.3467 26.56 35.9333 26.72 36.52C26.88 37.0533 27.0133 37.5867 27.12 38.12C27.9733 42.6 27.9467 47.3733 27.04 52.44ZM54.8881 48.12C54.9948 48.0133 55.1015 48.0133 55.2081 48.12C55.4215 48.3333 55.4481 48.52 55.2881 48.68C55.1281 48.84 54.4881 49.5067 53.3681 50.68C52.2481 51.8533 51.3948 52.7067 50.8081 53.24C48.6215 55.48 46.6481 56.9467 44.8881 57.64C43.8215 58.0667 42.9415 57.9333 42.2481 57.24C41.5548 56.4933 41.2881 55.5067 41.4481 54.28C41.6081 53.2133 41.7148 52.44 41.7681 51.96C41.8748 51.3733 41.8748 50.8933 41.7681 50.52C41.6615 50.0933 41.5015 49.8 41.2881 49.64C41.0748 49.4267 40.8081 49.1867 40.4881 48.92C40.1681 48.6533 39.9015 48.3867 39.6881 48.12C39.4215 47.5867 39.5281 47.0267 40.0081 46.44C40.3281 46.0667 40.6748 46.04 41.0481 46.36C41.3681 46.6267 41.3415 46.9467 40.9681 47.32H40.8881V47.4C40.9415 47.56 41.2081 47.8 41.6881 48.12C42.4881 48.8133 42.9948 49.56 43.2081 50.36V50.92C43.2081 51.24 43.1548 51.7467 43.0481 52.44C42.9415 53.08 42.8615 53.6667 42.8081 54.2C42.7548 54.7333 42.7548 55.2667 42.8081 55.8C42.8615 56.28 43.0481 56.6267 43.3681 56.84C43.6881 57.0533 44.1415 57.08 44.7281 56.92C45.6881 56.7067 47.0748 55.8533 48.8881 54.36C48.9415 54.3067 49.1815 54.0933 49.6081 53.72C50.0348 53.2933 50.3548 52.9733 50.5681 52.76L52.0081 51.32C52.1681 51.16 52.8615 50.4133 54.0881 49.08L54.8881 48.12ZM62.6025 46.36C62.4425 47.2133 62.0158 47.9333 61.3225 48.52C60.6825 49.0533 59.9092 49.32 59.0025 49.32H58.7625C58.6025 49.9067 58.4692 50.52 58.3625 51.16C58.3092 51.7467 58.3092 52.36 58.3625 53C58.4158 53.64 58.6292 54.12 59.0025 54.44C59.3758 54.76 59.9358 54.84 60.6825 54.68C62.0158 54.3067 63.6425 53.2667 65.5625 51.56C66.5225 50.7067 67.5092 49.56 68.5225 48.12C68.7358 47.8533 68.9492 47.8533 69.1625 48.12C69.2158 48.28 69.1892 48.44 69.0825 48.6C68.1758 49.72 67.4292 50.6267 66.8425 51.32C66.2558 51.96 65.4025 52.7067 64.2825 53.56C63.2158 54.4133 62.0958 55.0267 60.9225 55.4C59.5358 55.88 58.5492 55.64 57.9625 54.68C57.4292 53.6667 57.2425 52.4667 57.4025 51.08C57.5625 49.6933 57.8825 48.5733 58.3625 47.72C59.1625 46.12 60.2025 45.2667 61.4825 45.16H61.9625C62.0158 45.16 62.0958 45.1867 62.2025 45.24C62.3092 45.24 62.3892 45.2667 62.4425 45.32C62.4425 45.3733 62.4692 45.4267 62.5225 45.48V45.4C62.6292 45.56 62.6825 45.7467 62.6825 45.96C62.6825 46.0133 62.6558 46.1467 62.6025 46.36ZM59.3225 48.2C59.3758 48.2 59.4292 48.2 59.4825 48.2C59.5892 48.1467 59.6692 48.12 59.7225 48.12C60.0958 48.0133 60.4425 47.8 60.7625 47.48C61.1358 47.1067 61.3758 46.7333 61.4825 46.36C60.7358 46.36 60.0158 46.9733 59.3225 48.2ZM104.597 48.68C104.437 48.7867 104.09 49.0267 103.557 49.4C103.024 49.7733 102.624 50.0667 102.357 50.28C102.144 50.44 101.77 50.68 101.237 51C100.757 51.32 100.304 51.56 99.8769 51.72C99.5035 51.8267 99.0502 51.96 98.5169 52.12C97.9835 52.2267 97.4502 52.28 96.9169 52.28C94.7835 52.0133 93.4235 51.6667 92.8369 51.24L91.9569 50.68C91.5302 50.4133 90.8369 49.8 89.8769 48.84C89.1835 51.0267 88.3835 52.7067 87.4769 53.88C87.2635 54.3067 86.8902 54.76 86.3569 55.24C85.8769 55.6667 85.3169 56.04 84.6769 56.36C84.0902 56.6267 83.4502 56.7333 82.7569 56.68C82.0635 56.6267 81.4235 56.36 80.8369 55.88C79.7702 55.08 78.9702 53.48 78.4369 51.08L78.2769 49.72V49.16C75.8769 51.3467 74.1169 52.7333 72.9969 53.32C72.3035 53.5333 71.7702 53.48 71.3969 53.16C71.0235 52.84 70.8369 52.28 70.8369 51.48C70.8369 51.2133 70.8635 50.8933 70.9169 50.52C70.9702 50.0933 71.0502 49.6667 71.1569 49.24C71.2102 48.76 71.3169 48.3867 71.4769 48.12C71.6902 47.8533 71.9035 47.7733 72.1169 47.88C72.2769 47.9333 72.3835 48.0133 72.4369 48.12C72.4902 48.2267 72.5169 48.3867 72.5169 48.6C72.5169 48.76 72.4902 48.92 72.4369 49.08C72.4369 49.1867 72.4102 49.3733 72.3569 49.64C72.3035 49.8533 72.2769 49.9867 72.2769 50.04C72.2235 50.4133 72.1702 50.9467 72.1169 51.64C72.1169 51.96 72.1169 52.1733 72.1169 52.28L72.1969 52.44C72.3035 52.44 72.7035 52.28 73.3969 51.96C74.8369 51.16 76.5435 49.8533 78.5169 48.04C78.7835 47.88 78.9702 47.96 79.0769 48.28C79.2369 49.5067 79.5302 50.9733 79.9569 52.68C80.1169 53.32 80.3302 53.88 80.5969 54.36C80.8635 54.84 81.2369 55.24 81.7169 55.56C82.2502 55.88 82.8635 56.0133 83.5569 55.96C83.8235 55.96 84.0635 55.9333 84.2769 55.88C84.4902 55.7733 84.7035 55.64 84.9169 55.48C85.1835 55.2667 85.3702 55.1067 85.4769 55C85.6369 54.8933 85.8235 54.7333 86.0369 54.52C86.2502 54.2533 86.4102 54.0933 86.5169 54.04C87.3702 53.1333 88.1969 51.64 88.9969 49.56L89.4769 48.36C89.5302 48.2 89.6369 48.1467 89.7969 48.2C89.7969 48.2 89.8235 48.2267 89.8769 48.28C90.8902 49.24 91.6635 49.88 92.1969 50.2L92.9969 50.68C94.1702 51.2667 95.4769 51.56 96.9169 51.56C97.3435 51.56 98.3302 51.32 99.8769 50.84L100.757 50.36C102.09 49.56 103.21 48.7867 104.117 48.04C104.33 47.88 104.49 47.9067 104.597 48.12C104.757 48.28 104.757 48.4667 104.597 48.68ZM108.217 48.76C108.217 49.0267 108.164 49.4 108.057 49.88C108.004 50.36 107.977 50.7067 107.977 50.92C107.977 51.6133 108.084 52.12 108.297 52.44C108.564 52.76 109.044 52.8667 109.737 52.76C110.11 52.76 110.484 52.7067 110.857 52.6C111.284 52.44 111.63 52.3067 111.897 52.2C112.217 52.04 112.59 51.8267 113.017 51.56C113.444 51.24 113.737 51.0267 113.897 50.92C114.057 50.8133 114.377 50.6 114.857 50.28C115.337 49.9067 115.604 49.6933 115.657 49.64C115.87 49.48 116.084 49.2933 116.297 49.08C116.564 48.8667 116.75 48.7067 116.857 48.6C117.017 48.44 117.177 48.3067 117.337 48.2C117.55 48.0933 117.684 48.04 117.737 48.04C117.79 48.04 117.87 48.0667 117.977 48.12C118.137 48.3333 118.11 48.52 117.897 48.68C114.59 51.0267 112.377 52.4667 111.257 53C110.19 53.5333 109.177 53.64 108.217 53.32C107.257 52.9467 106.777 52.12 106.777 50.84C106.777 50.5733 106.804 50.28 106.857 49.96C106.857 49.64 106.91 49.32 107.017 49C107.07 48.6267 107.177 48.36 107.337 48.2C107.497 48.04 107.657 47.9867 107.817 48.04C108.084 48.0933 108.217 48.2533 108.217 48.52V48.76ZM109.577 41.32C109.684 41.48 109.684 41.7467 109.577 42.12C109.47 42.44 109.31 42.76 109.097 43.08C108.884 43.4 108.697 43.5333 108.537 43.48C108.377 43.3733 108.324 43.1333 108.377 42.76C108.484 42.3867 108.67 42.04 108.937 41.72C109.204 41.3467 109.417 41.2133 109.577 41.32ZM127.573 46.2C127.84 46.2 128.08 46.2533 128.293 46.36H128.373H128.453V46.44C128.773 46.6 129.066 46.8667 129.333 47.24C129.653 47.56 129.92 47.9067 130.133 48.28C130.346 48.6 130.613 48.92 130.933 49.24C131.253 49.5067 131.573 49.6933 131.893 49.8C132.32 50.0133 132.746 50.12 133.173 50.12L133.813 50.04C134.933 50.04 136.186 49.6133 137.573 48.76L138.773 48.04C138.986 47.9333 139.173 48.0133 139.333 48.28C139.44 48.4933 139.386 48.6533 139.173 48.76L137.973 49.4C136.96 50.04 135.84 50.4667 134.613 50.68C134.186 50.7867 133.946 50.84 133.893 50.84L133.173 50.92C133.066 50.92 132.933 50.92 132.773 50.92C132.613 50.8667 132.48 50.84 132.373 50.84C132 50.7867 131.626 50.68 131.253 50.52C130.933 50.36 130.613 50.1733 130.293 49.96C130.026 49.6933 129.786 49.4533 129.573 49.24C129.36 49.0267 129.12 48.76 128.853 48.44C128.586 48.12 128.346 47.8533 128.133 47.64C128.026 47.4267 127.893 47.32 127.733 47.32H127.573C126.933 47.32 126 47.8 124.773 48.76C123.813 49.5067 122.4 50.68 120.533 52.28C120.426 52.3867 120.32 52.44 120.213 52.44C120.106 52.3867 120.026 52.3067 119.973 52.2C119.92 52.0933 119.893 51.9867 119.893 51.88L120.773 47.4C120.773 47.24 120.853 47.16 121.013 47.16C121.173 47.1067 121.306 47.1333 121.413 47.24C121.52 47.2933 121.546 47.4 121.493 47.56L120.933 50.68L121.893 49.64C123.866 47.8267 125.466 46.7333 126.693 46.36C126.96 46.2533 127.253 46.2 127.573 46.2ZM182.018 48.12C182.071 48.12 182.178 48.0933 182.338 48.04C182.445 47.9867 182.525 47.96 182.578 47.96C182.685 47.96 182.791 47.9867 182.898 48.04C183.005 48.04 183.111 48.0933 183.218 48.2C183.271 48.4133 183.191 48.52 182.978 48.52V48.68C182.765 48.7333 182.418 48.84 181.938 49C181.511 49.1067 181.138 49.2133 180.818 49.32C178.098 50.28 175.805 51.3733 173.938 52.6C174.365 54.4667 174.471 57 174.258 60.2C174.098 62.76 173.671 65.7467 172.978 69.16C170.845 79.4533 167.591 88.0133 163.218 94.84C160.125 99.6933 156.898 102.92 153.538 104.52C151.671 105.427 150.125 105.453 148.898 104.6C147.191 103.267 146.631 100.387 147.218 95.96C147.805 91.4267 149.405 86.1467 152.018 80.12C156.071 71.0533 161.138 63.48 167.218 57.4C168.925 55.6933 170.791 54.1467 172.818 52.76C172.285 51.3733 171.431 50.4933 170.258 50.12C169.138 49.6933 167.591 49.6133 165.618 49.88C163.111 50.2 159.751 51.0267 155.538 52.36C151.378 53.64 148.471 54.4667 146.818 54.84C145.218 55.16 144.018 55.32 143.218 55.32C142.791 55.32 142.338 55.2667 141.858 55.16C141.378 55.0533 141.005 54.92 140.738 54.76C139.938 54.2267 139.511 53.5867 139.458 52.84C139.351 52.0933 139.565 51.3467 140.098 50.6C140.578 49.8533 141.058 49.24 141.538 48.76C141.965 48.2267 142.418 47.7733 142.898 47.4C144.445 46.12 146.365 45 148.658 44.04C150.951 43.08 153.005 42.5467 154.818 42.44C158.018 42.12 160.578 43.08 162.498 45.32C162.498 45.3733 162.525 45.4267 162.578 45.48C162.685 45.5333 162.738 45.5867 162.738 45.64C163.218 46.12 163.165 46.4933 162.578 46.76C162.205 46.8667 161.885 46.7867 161.618 46.52C160.818 45.7733 160.365 45.3467 160.258 45.24C158.925 44.28 157.111 43.9067 154.818 44.12C152.685 44.28 150.285 45.0267 147.618 46.36C145.005 47.6933 143.058 49.16 141.778 50.76C141.565 50.9733 141.378 51.24 141.218 51.56C141.058 51.8267 140.951 52.1733 140.898 52.6C140.845 52.9733 141.005 53.2133 141.378 53.32C141.591 53.5333 142.151 53.64 143.058 53.64C144.391 53.64 146.658 53.24 149.858 52.44C150.818 52.2267 152.045 51.9067 153.538 51.48C155.031 51.0533 156.311 50.7067 157.378 50.44C158.498 50.12 159.778 49.8 161.218 49.48C162.658 49.16 164.018 48.92 165.298 48.76C168.818 48.3867 171.138 48.76 172.258 49.88C173.058 50.52 173.565 51.24 173.778 52.04C176.178 50.3333 178.925 49.0267 182.018 48.12ZM172.898 53.24C168.098 56.6 163.645 61.2933 159.538 67.32C155.111 73.72 151.778 80.52 149.538 87.72C148.578 90.8667 147.965 93.6133 147.698 95.96C147.218 100.227 147.698 102.867 149.138 103.88C149.671 104.253 150.285 104.387 150.978 104.28C151.778 104.28 152.445 104.093 152.978 103.72C156.391 102.067 159.511 98.9467 162.338 94.36C166.765 87.2133 169.965 78.7333 171.938 68.92C173.271 62.3067 173.591 57.08 172.898 53.24Z" fill="#FFF227"/>
</svg>
