<svg width="703" height="552" viewBox="0 0 703 552" fill="none" xmlns="http://www.w3.org/2000/svg">
<path opacity="0.3" fill-rule="evenodd" clip-rule="evenodd" d="M837.675 144.696L837.012 144.032V143.369L836.348 142.706L835.684 142.042C834.357 140.715 833.693 139.389 832.365 138.062C830.374 135.409 827.719 132.755 825.064 130.102C820.417 124.795 815.107 119.488 809.797 114.844C807.142 112.191 804.487 110.201 801.832 107.547C799.177 104.894 796.522 102.904 793.203 100.25C787.229 95.6068 781.255 91.6266 775.281 86.9831C763.333 79.0228 750.722 71.7258 737.446 65.7555C724.171 59.7852 710.896 55.1417 696.957 51.8249C683.017 48.5081 668.414 46.518 654.475 46.518H649.165C648.501 46.518 647.174 46.518 646.51 46.518H643.855H638.545H635.89C635.226 46.518 635.226 46.518 634.562 46.518H633.235C629.252 47.1814 625.27 47.1814 621.287 47.8447C617.304 48.5081 613.322 48.5081 609.339 49.1714C593.409 51.1615 576.814 53.815 560.22 57.1318C543.626 60.4486 527.032 63.7654 510.438 67.0822C493.843 70.399 476.585 73.7159 459.328 76.3693C442.07 79.0228 424.812 81.6762 406.89 83.0029C388.968 84.3296 371.71 84.993 353.788 84.3296C336.53 83.6663 318.609 82.3396 301.351 80.3495C284.093 78.3594 266.835 75.0426 250.241 71.7258L243.603 70.399L240.284 69.7357L238.957 69.0723H238.293H237.629C233.646 67.7456 229 67.0822 225.017 65.7555C217.052 63.1021 208.423 61.112 200.458 58.4585C183.864 53.1516 167.933 47.8447 152.003 41.8745L146.029 39.8844L142.71 38.5577L140.055 37.2309C136.072 35.9042 132.09 33.9141 128.107 32.5874L122.133 29.9339L116.159 27.2805L113.504 25.9538C112.841 25.2904 111.513 24.627 110.849 24.627L105.539 21.3102L111.513 23.3003C112.177 23.9637 113.504 23.9637 114.168 24.627L117.487 25.9538L123.461 27.9439L129.435 29.9339C133.417 31.2607 137.4 31.924 141.383 33.2508L143.374 34.5775L146.029 35.9042L152.667 37.2309C169.261 41.2111 185.855 44.5279 202.449 47.1814C211.078 48.5081 219.044 49.8348 227.672 51.1615C231.655 51.8249 236.301 52.4883 240.284 53.1516H240.948H241.612H242.939H246.258L252.232 53.815C268.826 55.1417 285.42 55.8051 302.014 55.8051C335.203 55.8051 368.391 52.4883 400.252 45.8546C432.113 39.221 463.31 29.2706 495.835 17.9934C511.765 12.6865 528.359 7.37963 544.954 2.07273C561.548 -3.23417 578.142 -7.8777 595.4 -12.5212C599.383 -13.848 604.029 -14.5113 608.012 -15.838C611.994 -17.1648 616.641 -17.8281 620.623 -19.1549L622.615 -18.4915C623.278 -18.4915 623.942 -18.4915 624.606 -19.1549L627.925 -19.8182L635.226 -21.1449L638.545 -21.8083C639.872 -21.8083 641.2 -21.8083 641.864 -22.4717L649.165 -23.135C668.414 -25.1251 688.328 -25.7885 708.241 -23.7984C728.154 -21.8083 747.403 -17.8281 765.988 -11.8579C784.574 -5.88762 802.496 1.40937 819.754 10.0331C828.383 14.6766 837.012 19.3201 844.977 23.9637C849.623 26.6171 853.606 29.2706 857.588 31.924C861.571 34.5775 865.554 37.2309 869.536 39.8844C877.501 45.1913 884.803 51.1615 892.768 57.7952C896.751 61.112 900.07 63.7654 904.052 67.7456C906.043 69.7357 908.035 71.0624 909.362 73.0525L910.69 74.3792H912.017L912.681 75.0426L914.009 76.3693L914.672 77.0327L915.336 77.696L916 79.0227L837.675 144.696ZM772.626 291.299C772.626 291.299 772.626 290.635 771.962 290.635V289.972V289.309L771.299 287.982C770.635 286.655 769.971 285.328 768.643 283.338C766.652 280.022 764.661 277.368 762.67 274.051C758.687 268.081 754.704 262.111 750.058 256.14C748.067 253.487 745.412 250.17 743.42 247.517C740.765 244.863 738.774 241.546 736.119 238.893C731.472 233.586 726.162 228.279 720.852 222.972C710.232 213.022 698.948 203.735 687 195.111C675.052 187.151 662.441 179.854 649.165 174.547C635.89 169.24 621.951 164.596 608.012 161.943L602.701 161.28C602.038 161.28 600.71 161.28 600.046 160.616H597.391L592.081 159.953H589.426C588.762 159.953 588.762 159.953 588.099 159.953H586.771C582.788 159.953 578.806 159.29 574.823 159.29C570.841 159.29 566.858 158.626 562.875 158.626C546.281 157.963 530.351 157.963 513.093 157.963C496.499 157.963 479.904 158.626 462.646 159.29C445.388 159.953 428.13 159.953 410.872 159.953C393.615 159.953 375.693 159.29 358.435 157.299C341.177 155.973 323.255 153.319 305.997 149.339C288.739 146.022 272.145 141.379 254.887 136.072C238.293 130.765 221.699 124.795 205.768 118.824L199.794 116.171L196.475 114.844L195.148 114.181H194.484L193.82 113.518C189.838 111.527 185.855 109.537 181.872 108.211C173.907 104.231 166.606 100.914 158.641 96.9335C143.374 88.9732 128.107 81.0128 113.504 72.3891L108.194 69.0723L105.539 67.7456L102.884 65.7555C99.5652 63.7654 95.5826 61.112 92.2638 59.1219L86.9536 55.8051L81.6435 51.8249L78.9885 49.8348C78.3247 49.1714 76.9971 48.5081 76.3334 47.8447L71.0231 43.8646L76.3334 47.1814C76.9971 47.8447 78.3247 48.5081 78.9885 48.5081L81.6435 49.8348L86.9536 53.1516L92.9276 55.8051C96.9102 57.7952 100.229 59.7852 104.212 61.112L106.867 62.4387L109.522 63.7654L115.496 66.4189C130.762 73.0525 146.693 79.0227 162.623 84.993C170.588 87.6465 178.554 90.2999 186.519 93.6167C190.501 94.9434 194.484 96.2701 198.467 97.5969H199.13H199.794L201.122 98.2602L204.441 98.9236L210.414 100.25C226.345 104.231 242.939 108.211 259.533 110.864C292.058 116.834 325.246 119.488 357.771 118.161C390.296 117.498 422.82 112.854 456.672 107.547C473.267 104.894 490.525 102.24 507.783 100.25C525.041 97.5969 542.299 95.6068 560.22 94.2801C564.867 93.6167 568.849 93.6167 573.496 93.6167C578.142 93.6167 582.125 92.9533 586.771 92.9533H588.762C589.426 92.9533 590.09 92.9533 590.754 92.9533H594.072H601.374H605.357C606.684 92.9533 608.012 92.9533 609.339 92.9533L616.641 93.6167C635.89 94.9434 655.803 98.2602 675.052 103.567C694.301 108.874 712.223 116.171 729.481 125.458C746.739 134.082 763.333 144.696 778.6 156.636C786.565 162.606 793.867 168.577 801.168 174.547C805.151 177.864 808.47 181.181 811.788 184.497C815.107 187.814 819.09 191.131 822.409 194.448C829.046 201.081 835.684 208.378 842.322 215.675C845.641 219.656 848.959 222.972 851.614 226.953C852.942 228.943 854.933 230.933 856.261 232.923L857.588 234.25L858.252 234.913L858.916 235.576L860.243 237.566L860.907 238.23L861.571 238.893L862.235 239.556L772.626 291.299ZM658.458 390.803C656.467 387.486 655.139 384.169 653.148 381.516C649.165 374.882 645.183 368.912 641.2 362.942C632.571 351.001 623.278 339.724 613.322 329.11C603.365 318.497 592.081 309.209 580.133 301.249C568.186 293.289 555.574 286.655 542.299 281.348L536.988 279.358C536.325 279.358 534.997 278.695 534.333 278.695L531.678 278.031L526.368 276.041L523.713 275.378C523.049 275.378 523.049 275.378 522.386 274.715L521.058 274.051C517.075 272.725 513.093 272.061 509.11 270.734C505.128 270.071 501.145 268.744 497.162 268.081C481.232 264.101 465.301 260.784 448.707 258.131C432.113 254.814 415.519 252.16 398.925 249.507C382.33 246.853 365.073 243.537 347.815 240.22C330.557 236.903 313.299 232.259 296.704 227.616C279.446 222.309 262.852 217.002 246.922 209.705C230.991 203.071 215.061 195.111 199.794 187.151C184.528 179.19 169.925 169.903 155.322 160.616L150.012 157.299L147.357 155.309L146.029 153.983L145.365 153.319L144.701 152.656C141.383 150.003 138.064 147.349 134.081 144.696C127.443 139.389 120.142 134.082 113.504 128.775C100.229 118.161 86.9536 107.547 73.6782 96.2701L69.0319 92.29L66.3768 90.2999L63.7217 88.3098C60.4029 85.6564 57.7478 82.3396 54.429 79.6861L49.7826 75.0426L45.1362 70.399L43.1449 67.7456C42.4811 67.0822 41.8174 66.4189 41.1536 65.0921L37.1711 60.4486L41.8174 64.4288C42.4812 65.0921 43.145 65.7555 44.4725 66.4189L47.1275 68.409L51.7739 72.3891L57.0841 76.3693C60.403 79.0228 63.7217 81.6762 67.0406 83.6663L69.6957 85.6564L72.3508 87.6465L77.6608 90.9633C91.6 100.25 106.203 109.537 120.806 118.161C128.107 122.805 135.409 126.785 142.71 130.765C146.693 132.755 150.012 134.745 153.994 136.735H154.658L155.322 137.399L156.649 138.062L159.304 139.389L164.615 142.042C179.881 149.339 195.148 155.973 210.414 161.943C241.612 173.884 273.472 182.507 305.333 187.814C337.858 193.121 370.383 195.111 404.235 196.438C420.829 197.101 438.087 197.765 455.345 199.091C472.603 200.418 490.525 201.745 507.783 203.735C512.429 204.398 516.412 205.062 521.058 205.062C525.704 205.725 529.687 206.388 534.333 207.052H535.661C536.325 207.052 536.988 207.052 537.652 207.052L540.971 207.715L548.272 209.042L551.591 209.705C552.919 209.705 554.246 210.368 554.91 210.368L564.203 213.685C583.452 218.329 602.038 225.626 619.296 234.25C636.554 242.873 653.812 253.487 669.078 266.091C684.345 278.031 698.284 291.299 711.559 305.893C718.197 313.19 724.171 320.487 730.145 327.784C733.464 331.764 736.119 335.744 738.774 339.061C741.429 343.041 744.084 347.021 746.739 351.001C752.049 358.962 757.359 366.922 762.006 375.546C764.661 379.526 766.652 384.169 769.307 388.813C770.635 390.803 771.299 393.456 772.626 395.447L773.29 397.437V399.427L773.954 400.09L774.617 402.08L775.281 403.407V404.07L775.945 404.734L679.035 439.228V438.565C679.035 438.565 679.035 437.902 679.035 437.238V436.575V435.912L678.371 434.585C677.707 433.258 677.043 431.268 677.043 429.941C675.716 426.625 674.388 423.308 673.061 419.991C670.406 413.357 667.087 406.724 663.768 400.09C662.441 397.437 660.449 394.12 658.458 390.803ZM679.035 439.228C679.035 439.228 679.699 439.228 679.035 439.228V439.228ZM3.98267 74.3792C4.64642 75.0426 5.31012 76.3693 5.97388 77.0327L7.96515 79.6861L11.9479 84.3296L15.9304 88.9732C18.5855 92.29 21.9043 94.9434 24.5594 98.2602L26.5507 100.25L28.5421 102.24L33.1884 106.884C45.1362 118.824 57.7477 130.102 71.0231 140.715C77.6608 146.022 83.6348 151.993 90.2725 157.299C93.5913 159.953 96.9102 162.606 100.229 165.26L100.893 165.923L101.557 166.587L102.884 167.25L105.539 169.24L110.849 173.22C124.125 183.171 138.064 192.458 152.667 201.081C181.209 218.329 211.078 232.259 241.612 243.537C272.809 254.15 304.67 262.111 337.858 269.408C354.452 272.725 371.046 276.705 388.304 280.685C404.899 284.665 422.157 289.309 439.414 293.952C443.397 295.279 448.043 296.606 452.026 297.932C456.009 299.259 460.655 300.586 464.638 301.912L465.965 302.576C466.629 302.576 467.293 302.576 467.293 303.239L470.612 304.566L477.249 307.219L481.232 306.556C482.559 307.219 483.223 307.219 484.551 307.883L491.188 310.536C509.11 318.497 526.368 328.447 541.635 340.387C557.565 352.328 572.168 365.595 584.78 380.189C598.055 394.783 609.339 410.704 619.959 426.625C625.27 434.585 629.916 443.209 634.562 451.832C636.554 455.812 639.209 460.456 641.2 464.436C643.191 469.08 645.183 473.06 647.174 477.703C651.157 486.327 654.475 495.614 657.794 504.901C659.122 509.545 661.113 514.188 662.441 518.832C663.104 521.485 663.768 523.475 664.432 526.129L665.096 528.119V528.782V530.109L665.759 532.099V533.426V534.089V534.753L564.867 552V551.337C564.867 551.337 564.867 550.673 564.867 550.01V549.347V548.683V547.357C564.867 546.03 564.203 544.04 564.203 542.05C563.539 538.733 562.875 535.416 562.212 531.436C560.884 524.139 558.893 517.505 556.901 510.208C555.574 506.891 554.91 502.911 553.583 499.594C552.255 496.278 550.928 492.297 549.6 488.981C546.945 482.347 544.29 475.05 540.971 468.416C534.997 455.149 527.696 442.545 519.73 430.605C511.765 418.664 502.472 407.387 491.852 397.437C481.896 387.486 469.948 378.862 458 370.902L453.354 368.249C452.69 367.585 452.026 367.585 450.699 366.922L448.043 365.595L443.397 362.942L440.742 361.615C440.078 361.615 440.078 360.952 439.414 360.952L438.087 360.288C434.104 358.298 430.786 356.971 426.803 354.981C422.82 353.655 419.501 351.665 415.519 349.675C400.252 343.041 384.985 337.071 369.719 331.1C354.452 325.13 338.522 319.823 321.928 313.853C305.997 307.883 289.403 302.576 273.472 295.942C257.542 289.309 240.948 282.675 225.017 274.715C209.087 266.754 193.82 258.131 179.217 248.843C164.614 239.556 150.012 228.943 136.736 218.329C122.797 207.715 110.185 196.438 97.5739 184.497L92.9276 179.854L90.2725 177.864L88.9449 176.537L88.2812 175.874L87.6174 175.21C84.2985 171.893 81.6436 169.24 78.9885 165.923C73.0145 159.953 67.0406 153.319 61.7305 147.349C50.4464 134.745 39.1624 121.478 28.5421 108.211L24.5594 102.904L22.5681 100.25L20.5768 97.5969C17.9218 94.2801 15.2667 90.9633 13.2754 86.9831L9.29272 81.6762L5.97388 76.3693L3.98267 73.7159C3.98267 76.3693 3.98267 75.7059 3.98267 74.3792L0 69.0723L3.98267 74.3792Z" fill="#8E898F"/>
</svg>
