<svg width="676" height="385" viewBox="0 0 676 385" fill="none" xmlns="http://www.w3.org/2000/svg">
<path opacity="0.2" fill-rule="evenodd" clip-rule="evenodd" d="M837.675 169.696L837.012 169.032V168.369L836.348 167.706L835.684 167.042C834.357 165.715 833.693 164.389 832.365 163.062C830.374 160.409 827.719 157.755 825.064 155.102C820.417 149.795 815.107 144.488 809.797 139.844C807.142 137.191 804.487 135.201 801.832 132.547C799.177 129.894 796.522 127.904 793.203 125.25C787.229 120.607 781.255 116.627 775.281 111.983C763.333 104.023 750.722 96.7258 737.446 90.7555C724.171 84.7852 710.896 80.1417 696.957 76.8249C683.017 73.5081 668.414 71.518 654.475 71.518H649.165C648.501 71.518 647.174 71.518 646.51 71.518H643.855H638.545H635.89C635.226 71.518 635.226 71.518 634.562 71.518H633.235C629.252 72.1814 625.27 72.1814 621.287 72.8447C617.304 73.5081 613.322 73.5081 609.339 74.1714C593.409 76.1615 576.814 78.815 560.22 82.1318C543.626 85.4486 527.032 88.7654 510.438 92.0822C493.844 95.399 476.585 98.7159 459.328 101.369C442.07 104.023 424.812 106.676 406.89 108.003C388.968 109.33 371.71 109.993 353.788 109.33C336.53 108.666 318.609 107.34 301.351 105.349C284.093 103.359 266.835 100.043 250.241 96.7258L243.603 95.399L240.284 94.7357L238.957 94.0723H238.293H237.629C233.646 92.7456 229 92.0822 225.017 90.7555C217.052 88.1021 208.423 86.112 200.458 83.4585C183.864 78.1516 167.933 72.8447 152.003 66.8745L146.029 64.8844L142.71 63.5577L140.055 62.2309C136.072 60.9042 132.09 58.9141 128.107 57.5874L122.133 54.9339L116.159 52.2805L113.504 50.9538C112.841 50.2904 111.513 49.627 110.849 49.627L105.539 46.3102L111.513 48.3003C112.177 48.9637 113.504 48.9637 114.168 49.627L117.487 50.9538L123.461 52.9439L129.435 54.9339C133.417 56.2607 137.4 56.924 141.383 58.2508L143.374 59.5775L146.029 60.9042L152.667 62.2309C169.261 66.2111 185.855 69.5279 202.449 72.1814C211.078 73.5081 219.044 74.8348 227.672 76.1615C231.655 76.8249 236.301 77.4883 240.284 78.1516H240.948H241.612H242.939H246.258L252.232 78.815C268.826 80.1417 285.42 80.8051 302.014 80.8051C335.203 80.8051 368.391 77.4883 400.252 70.8546C432.113 64.221 463.31 54.2706 495.835 42.9934C511.765 37.6865 528.359 32.3796 544.954 27.0727C561.548 21.7658 578.142 17.1223 595.4 12.4788C599.383 11.152 604.029 10.4887 608.012 9.16195C611.994 7.83523 616.641 7.17187 620.623 5.84514L622.615 6.5085C623.278 6.5085 623.942 6.5085 624.606 5.84514L627.925 5.18178L635.226 3.85506L638.545 3.19169C639.872 3.19169 641.2 3.19169 641.864 2.52833L649.165 1.86497C668.414 -0.125118 688.328 -0.78848 708.241 1.20161C728.154 3.19169 747.403 7.17187 765.988 13.1421C784.574 19.1124 802.496 26.4094 819.754 35.0331C828.383 39.6766 837.012 44.3201 844.977 48.9637C849.623 51.6171 853.606 54.2706 857.588 56.924C861.571 59.5775 865.554 62.2309 869.536 64.8844C877.501 70.1913 884.803 76.1615 892.768 82.7952C896.751 86.112 900.07 88.7654 904.052 92.7456C906.043 94.7357 908.035 96.0624 909.362 98.0525L910.69 99.3792H912.017L912.681 100.043L914.009 101.369L914.672 102.033L915.336 102.696L916 104.023L837.675 169.696ZM772.626 316.299C772.626 316.299 772.626 315.635 771.962 315.635V314.972V314.309L771.299 312.982C770.635 311.655 769.971 310.328 768.643 308.338C766.652 305.022 764.661 302.368 762.67 299.051C758.687 293.081 754.704 287.111 750.058 281.14C748.067 278.487 745.412 275.17 743.42 272.517C740.765 269.863 738.774 266.547 736.119 263.893C731.472 258.586 726.162 253.279 720.852 247.972C710.232 238.022 698.948 228.735 687 220.111C675.052 212.151 662.441 204.854 649.165 199.547C635.89 194.24 621.951 189.596 608.012 186.943L602.701 186.28C602.038 186.28 600.71 186.28 600.046 185.616H597.391L592.081 184.953H589.426C588.762 184.953 588.762 184.953 588.099 184.953H586.771C582.788 184.953 578.806 184.29 574.823 184.29C570.841 184.29 566.858 183.626 562.875 183.626C546.281 182.963 530.351 182.963 513.093 182.963C496.499 182.963 479.904 183.626 462.646 184.29C445.388 184.953 428.13 184.953 410.872 184.953C393.615 184.953 375.693 184.29 358.435 182.299C341.177 180.973 323.255 178.319 305.997 174.339C288.739 171.022 272.145 166.379 254.887 161.072C238.293 155.765 221.699 149.795 205.768 143.824L199.794 141.171L196.475 139.844L195.148 139.181H194.484L193.82 138.518C189.838 136.527 185.855 134.537 181.872 133.211C173.907 129.231 166.606 125.914 158.641 121.934C143.374 113.973 128.107 106.013 113.504 97.3891L108.194 94.0723L105.539 92.7456L102.884 90.7555C99.5652 88.7654 95.5826 86.112 92.2638 84.1219L86.9536 80.8051L81.6435 76.8249L78.9885 74.8348C78.3246 74.1714 76.9971 73.5081 76.3334 72.8447L71.0231 68.8646L76.3334 72.1814C76.9971 72.8447 78.3246 73.5081 78.9885 73.5081L81.6435 74.8348L86.9536 78.1516L92.9276 80.8051C96.9102 82.7952 100.229 84.7852 104.212 86.112L106.867 87.4387L109.522 88.7654L115.496 91.4189C130.762 98.0525 146.693 104.023 162.623 109.993C170.588 112.646 178.554 115.3 186.519 118.617C190.501 119.943 194.484 121.27 198.467 122.597H199.13H199.794L201.122 123.26L204.441 123.924L210.414 125.25C226.345 129.231 242.939 133.211 259.533 135.864C292.058 141.834 325.246 144.488 357.771 143.161C390.296 142.498 422.82 137.854 456.672 132.547C473.267 129.894 490.525 127.24 507.783 125.25C525.041 122.597 542.299 120.607 560.22 119.28C564.867 118.617 568.849 118.617 573.496 118.617C578.142 118.617 582.125 117.953 586.771 117.953H588.762C589.426 117.953 590.09 117.953 590.754 117.953H594.072H601.374H605.357C606.684 117.953 608.012 117.953 609.339 117.953L616.641 118.617C635.89 119.943 655.803 123.26 675.052 128.567C694.301 133.874 712.223 141.171 729.481 150.458C746.739 159.082 763.333 169.696 778.6 181.636C786.565 187.606 793.867 193.577 801.168 199.547C805.151 202.864 808.47 206.181 811.788 209.497C815.107 212.814 819.09 216.131 822.409 219.448C829.046 226.081 835.684 233.378 842.322 240.675C845.641 244.656 848.959 247.972 851.614 251.953C852.942 253.943 854.933 255.933 856.261 257.923L857.588 259.25L858.252 259.913L858.916 260.576L860.243 262.566L860.907 263.23L861.571 263.893L862.235 264.556L772.626 316.299ZM658.458 415.803C656.467 412.486 655.139 409.169 653.148 406.516C649.165 399.882 645.183 393.912 641.2 387.942C632.571 376.001 623.278 364.724 613.322 354.11C603.365 343.497 592.081 334.209 580.133 326.249C568.186 318.289 555.574 311.655 542.299 306.348L536.988 304.358C536.325 304.358 534.997 303.695 534.333 303.695L531.678 303.031L526.368 301.041L523.713 300.378C523.049 300.378 523.049 300.378 522.386 299.715L521.058 299.051C517.075 297.725 513.093 297.061 509.11 295.734C505.128 295.071 501.145 293.744 497.162 293.081C481.232 289.101 465.301 285.784 448.707 283.131C432.113 279.814 415.519 277.16 398.925 274.507C382.33 271.853 365.072 268.537 347.815 265.22C330.557 261.903 313.299 257.259 296.704 252.616C279.446 247.309 262.852 242.002 246.922 234.705C230.991 228.071 215.061 220.111 199.794 212.151C184.528 204.19 169.925 194.903 155.322 185.616L150.012 182.299L147.357 180.309L146.029 178.983L145.365 178.319L144.701 177.656C141.383 175.002 138.064 172.349 134.081 169.696C127.443 164.389 120.142 159.082 113.504 153.775C100.229 143.161 86.9536 132.547 73.6782 121.27L69.0319 117.29L66.3768 115.3L63.7217 113.31C60.4029 110.656 57.7478 107.34 54.429 104.686L49.7826 100.043L45.1362 95.399L43.1449 92.7456C42.4811 92.0822 41.8174 91.4189 41.1536 90.0921L37.1711 85.4486L41.8174 89.4288C42.4812 90.0921 43.1449 90.7555 44.4725 91.4189L47.1275 93.409L51.7739 97.3891L57.0841 101.369C60.403 104.023 63.7217 106.676 67.0406 108.666L69.6957 110.656L72.3508 112.646L77.6608 115.963C91.6 125.25 106.203 134.537 120.806 143.161C128.107 147.805 135.409 151.785 142.71 155.765C146.693 157.755 150.012 159.745 153.994 161.735H154.658L155.322 162.399L156.649 163.062L159.304 164.389L164.615 167.042C179.881 174.339 195.148 180.973 210.414 186.943C241.612 198.884 273.472 207.507 305.333 212.814C337.858 218.121 370.383 220.111 404.235 221.438C420.829 222.101 438.087 222.765 455.345 224.091C472.603 225.418 490.525 226.745 507.783 228.735C512.429 229.398 516.412 230.062 521.058 230.062C525.704 230.725 529.687 231.388 534.333 232.052H535.661C536.325 232.052 536.988 232.052 537.652 232.052L540.971 232.715L548.272 234.042L551.591 234.705C552.919 234.705 554.246 235.368 554.91 235.368L564.203 238.685C583.452 243.329 602.038 250.626 619.296 259.25C636.554 267.873 653.812 278.487 669.078 291.091C684.345 303.031 698.284 316.299 711.559 330.893C718.197 338.19 724.171 345.487 730.145 352.784C733.464 356.764 736.119 360.744 738.774 364.061C741.429 368.041 744.084 372.021 746.739 376.001C752.049 383.962 757.359 391.922 762.006 400.546C764.661 404.526 766.652 409.169 769.307 413.813C770.635 415.803 771.299 418.456 772.626 420.447L773.29 422.437V424.427L773.954 425.09L774.617 427.08L775.281 428.407V429.07L775.945 429.734L679.035 464.228V463.565C679.035 463.565 679.035 462.902 679.035 462.238V461.575V460.912L678.371 459.585C677.707 458.258 677.043 456.268 677.043 454.941C675.716 451.625 674.388 448.308 673.061 444.991C670.406 438.357 667.087 431.724 663.768 425.09C662.441 422.437 660.449 419.12 658.458 415.803ZM679.035 464.228C679.035 464.228 679.699 464.228 679.035 464.228V464.228ZM3.98267 99.3792C4.64642 100.043 5.31012 101.369 5.97388 102.033L7.96515 104.686L11.9479 109.33L15.9304 113.973C18.5855 117.29 21.9044 119.943 24.5594 123.26L26.5507 125.25L28.5421 127.24L33.1884 131.884C45.1363 143.824 57.7478 155.102 71.0231 165.715C77.6608 171.022 83.6348 176.993 90.2725 182.299C93.5913 184.953 96.9102 187.606 100.229 190.26L100.893 190.923L101.557 191.587L102.884 192.25L105.539 194.24L110.849 198.22C124.125 208.171 138.064 217.458 152.667 226.081C181.209 243.329 211.078 257.259 241.612 268.537C272.809 279.15 304.67 287.111 337.858 294.408C354.452 297.725 371.046 301.705 388.304 305.685C404.899 309.665 422.157 314.309 439.414 318.952C443.397 320.279 448.043 321.606 452.026 322.932C456.009 324.259 460.655 325.586 464.638 326.912L465.965 327.576C466.629 327.576 467.293 327.576 467.293 328.239L470.612 329.566L477.249 332.219L481.232 331.556C482.559 332.219 483.223 332.219 484.551 332.883L491.188 335.536C509.11 343.496 526.368 353.447 541.635 365.387C557.565 377.328 572.168 390.595 584.78 405.189C598.055 419.783 609.339 435.704 619.959 451.625C625.27 459.585 629.916 468.209 634.562 476.832C636.554 480.812 639.209 485.456 641.2 489.436C643.191 494.08 645.183 498.06 647.174 502.703C651.157 511.327 654.475 520.614 657.794 529.901C659.122 534.545 661.113 539.188 662.441 543.832C663.104 546.485 663.768 548.475 664.432 551.129L665.096 553.119V553.782V555.109L665.759 557.099V558.426V559.089V559.753L564.867 577V576.337C564.867 576.337 564.867 575.673 564.867 575.01V574.347V573.683V572.357C564.867 571.03 564.203 569.04 564.203 567.05C563.539 563.733 562.875 560.416 562.212 556.436C560.884 549.139 558.893 542.505 556.901 535.208C555.574 531.891 554.91 527.911 553.583 524.594C552.255 521.278 550.928 517.297 549.6 513.981C546.945 507.347 544.29 500.05 540.971 493.416C534.997 480.149 527.696 467.545 519.73 455.605C511.765 443.664 502.472 432.387 491.852 422.437C481.896 412.486 469.948 403.862 458 395.902L453.354 393.249C452.69 392.585 452.026 392.585 450.699 391.922L448.043 390.595L443.397 387.942L440.742 386.615C440.078 386.615 440.078 385.952 439.414 385.952L438.087 385.288C434.104 383.298 430.786 381.972 426.803 379.981C422.82 378.655 419.501 376.665 415.519 374.675C400.252 368.041 384.985 362.071 369.719 356.1C354.452 350.13 338.522 344.823 321.928 338.853C305.997 332.883 289.403 327.576 273.472 320.942C257.542 314.309 240.948 307.675 225.017 299.715C209.087 291.754 193.82 283.131 179.217 273.843C164.615 264.556 150.012 253.943 136.736 243.329C122.797 232.715 110.185 221.438 97.5739 209.497L92.9276 204.854L90.2725 202.864L88.9449 201.537L88.2812 200.874L87.6174 200.21C84.2985 196.893 81.6435 194.24 78.9885 190.923C73.0145 184.953 67.0406 178.319 61.7305 172.349C50.4464 159.745 39.1623 146.478 28.5421 133.211L24.5594 127.904L22.5681 125.25L20.5768 122.597C17.9218 119.28 15.2667 115.963 13.2754 111.983L9.29272 106.676L5.97388 101.369L3.98267 98.7159C3.98267 101.369 3.98267 100.706 3.98267 99.3792L0 94.0723L3.98267 99.3792Z" fill="#8E898F"/>
</svg>
