<svg width="114" height="114" viewBox="0 0 114 114" fill="none" xmlns="http://www.w3.org/2000/svg">
<g filter="url(#filter0_d)">
<circle cx="57" cy="51" r="45" fill="#FED105"/>
<circle cx="57" cy="51" r="44.5" stroke="black"/>
</g>
<circle cx="56.9996" cy="51.0001" r="38.6304" fill="#FED105" stroke="black"/>
<mask id="path-4-inside-1" fill="white">
<path fill-rule="evenodd" clip-rule="evenodd" d="M44.523 40.69L44.1068 41.0176C41.6924 43.5566 43.0244 49.1259 44.4398 51.9925C45.4389 54.1219 45.1058 52.5658 46.4379 56.6609C47.0207 58.3809 48.7691 60.0189 51.1835 60.0189H51.8495L51.35 59.8551C49.8514 59.6913 48.3528 58.6266 48.0198 57.3161C47.5202 55.5143 48.103 54.6134 48.1863 53.1391C48.1863 52.8934 48.2695 52.7296 48.3528 52.4839C48.3528 52.3201 48.3528 52.402 48.2695 52.402C46.6044 53.221 46.4379 52.5658 45.6054 51.3373C43.7737 48.6345 42.9412 43.9661 44.4398 41.0176L44.523 40.69ZM51.8495 68.0453C52.5156 68.7824 52.4323 69.7653 53.5979 69.6015C53.1816 68.8643 53.4314 68.4548 52.6821 67.5539C52.016 66.653 52.2658 66.0797 52.6821 65.1787C50.9337 65.1787 50.9337 66.8987 51.8495 68.0453ZM62.09 69.6015C63.2555 69.6834 63.1723 68.7824 63.8383 68.0453C64.6709 66.8987 64.6709 65.1787 63.0058 65.1787C63.422 66.1616 63.6718 66.653 63.0058 67.5539C62.2565 68.5367 62.5062 68.9462 62.09 69.6015ZM63.422 78.4469C63.3388 78.2012 63.0058 77.7917 62.756 77.6279C62.5895 77.7917 60.2583 79.8392 59.176 80.5764L60.0086 79.5935C60.6746 78.8564 61.4239 78.0374 62.0067 77.2184C62.5062 76.4813 61.8402 76.3994 61.8402 76.1536C61.8402 76.1536 61.8402 76.1536 61.7569 76.0717C61.1741 76.6451 60.3416 77.2184 59.5923 77.7098C59.4258 77.8736 59.509 77.7917 59.2593 77.8736L60.6746 76.1536C61.0909 75.5803 61.5904 75.1708 60.9244 74.5975C59.5923 75.5803 58.9262 76.1536 57.9272 77.3822C57.6774 77.2184 57.5109 76.8908 57.3444 76.6451C56.6783 75.826 55.8458 75.3346 55.0965 74.6794C54.6802 75.2527 54.6802 75.5803 54.3472 75.9079C53.5979 77.0546 53.4314 77.1365 52.6821 78.2012C52.5156 78.4469 52.6821 78.6107 52.9318 78.8564C54.0974 80.3307 56.2621 81.723 58.0104 82.8696C59.9253 81.6411 61.8402 80.085 63.422 78.4469ZM55.1798 80.085C54.8467 79.6754 54.6802 79.5935 54.4304 79.0202C54.93 79.4297 55.3463 79.6754 55.8458 80.1669C55.929 80.2488 55.929 80.3307 56.0956 80.4126C56.2621 80.5764 56.3453 80.6583 56.5118 80.904C55.929 80.7402 55.5128 80.4126 55.1798 80.085ZM35.0319 67.2263L39.6942 62.8036C41.2761 61.4112 42.8579 59.6913 43.7737 57.9713C44.3565 56.8247 44.8561 55.6781 43.857 54.5315C43.6905 54.6953 43.6072 55.1867 43.4407 55.5143C42.7747 56.8247 42.2751 57.5618 41.2761 58.7085L39.944 60.0189L41.3593 58.0533C41.7756 57.3161 42.1919 56.6609 42.5249 55.9238C42.9412 54.8591 43.524 53.8762 43.191 52.8115C43.1077 52.5658 42.7747 51.9106 42.7747 51.9925C42.7747 52.0744 42.6914 52.2382 42.6082 52.6477C42.2751 53.6305 40.9431 56.4152 39.944 57.1523C40.1105 56.8247 40.3603 56.4152 40.5268 56.0057C41.1928 54.7772 41.2761 52.8115 41.5258 51.5011C40.0272 52.7296 40.5268 52.8934 36.697 54.2038C35.2817 54.6134 34.6989 54.6134 34.3659 55.2686C33.2003 57.5618 33.117 60.4284 33.6166 62.8036C33.6998 63.7045 34.4491 66.653 35.0319 67.2263ZM35.1984 56.9066C35.1152 57.7256 34.7821 58.5447 34.6989 59.5275C34.6156 60.5103 34.6989 61.4112 34.6156 62.3941C33.7831 61.2474 34.2826 57.8894 35.1984 56.9066ZM52.3491 77.0546C53.0984 76.0717 53.8477 75.007 54.1807 73.8604C53.8477 73.6147 53.5979 73.369 53.1816 73.2052C53.0151 73.369 51.4333 76.5632 50.3509 77.6279L50.2677 77.7098C50.3509 77.3822 50.7672 76.727 50.9337 76.3994C51.4332 75.4165 52.2658 73.2871 52.3491 72.3042C51.9328 72.0585 52.0993 72.1404 51.5998 71.7309C51.2667 72.6318 50.2677 74.7613 49.6849 75.3346C49.9346 74.2699 50.4342 73.2052 50.6007 71.9766C50.8505 70.3386 50.684 70.6662 49.8514 69.192C49.8514 69.1101 49.7681 69.1101 49.7681 69.0281C49.6849 68.8643 49.6849 68.9462 49.6849 68.8643C49.2686 69.6015 48.6858 70.1748 48.436 71.0757C47.6868 70.83 47.0207 70.3386 46.4379 70.011C46.0216 71.2395 45.6886 71.9766 44.9393 72.9595C44.4398 73.6966 44.2733 73.5328 44.6896 74.4337C45.1058 75.3346 45.7719 76.3994 46.5212 77.1365C47.2705 77.8736 49.3519 79.6754 50.6007 80.1669C51.35 78.2012 50.9337 78.9383 52.3491 77.0546ZM60.3416 69.6834C60.4248 69.2739 60.4248 69.4377 60.1751 68.9462L60.0086 68.7824C59.509 69.192 58.843 69.4377 58.3435 69.9291L57.9272 70.4205L57.8439 70.3386C57.7607 70.1748 56.8449 69.4377 56.3453 69.192C56.2621 69.1101 55.929 68.8643 55.8458 68.7824C55.6793 68.8643 55.596 69.2739 55.1798 69.7653C54.93 70.0929 54.6802 70.3386 54.4304 70.5843C54.3472 70.6662 53.6812 71.3214 53.5979 71.4033C53.4314 71.8128 54.5137 72.9595 54.8467 73.2871C55.1797 73.5328 57.4276 75.1708 57.8439 75.3346C59.2593 74.5975 61.6737 72.7957 62.09 71.649C62.1732 71.3214 62.1732 71.4033 61.7569 70.9938C61.5904 71.1576 60.9244 72.3042 59.8421 73.0414C59.5923 73.2052 59.2593 73.5328 59.0095 73.6147C60.0918 72.8776 60.5914 71.8947 61.1741 70.83C61.3407 70.5843 61.3407 70.5843 61.1741 70.3386C61.0909 70.2567 60.9244 70.011 60.7579 69.9291C60.6746 70.011 60.1751 71.0757 59.509 71.8947C59.4258 72.0585 59.3425 72.0585 59.2593 72.2223L58.9262 72.468C59.0095 72.2223 59.3425 71.8128 59.509 71.5671C60.0086 70.9938 60.1751 70.4205 60.3416 69.6834ZM41.3593 74.5156L42.0254 75.0889C43.191 73.1233 44.8561 71.7309 45.1891 69.3558C44.6896 69.192 44.7728 68.9462 44.3565 68.7005C44.1068 68.9462 43.6905 70.3386 43.4407 70.7481C43.191 71.2395 42.4417 72.3042 42.3584 72.5499C42.4417 71.8128 43.1077 70.7481 43.3575 68.3729C43.4407 67.6358 43.6072 67.7177 43.0244 67.1444C42.6082 68.1272 42.3584 68.8643 41.7756 69.7653C41.8589 69.2739 42.0254 68.6186 42.1086 68.0453C42.3584 65.834 42.1919 66.0797 41.5258 64.5235C41.3593 64.114 41.1928 63.295 40.9431 62.9674L38.1956 65.3425C37.4463 65.9978 37.4463 65.9978 37.5296 67.1444C37.7793 69.9291 39.1947 72.468 41.3593 74.5156ZM51.7663 42.4099C51.35 43.3927 51.5998 43.3927 51.5165 45.0308C51.1002 45.0308 51.1835 44.7032 49.8514 44.4575C47.6035 44.048 47.6035 45.1127 46.7709 45.6041C46.2714 45.9317 45.4389 46.1774 45.2723 46.4231C45.2723 46.4231 45.2723 46.4231 45.3556 46.4231C45.3556 46.4231 45.3556 46.4231 45.4389 46.4231L46.8542 46.2593C47.0207 46.1774 47.104 46.1774 47.2705 46.0955C49.5184 47.8974 50.3509 46.9145 51.017 47.3241C51.5165 47.6517 51.1835 48.225 51.1002 48.5526C51.683 48.5526 51.683 48.5526 51.683 49.1259C51.683 50.682 50.9337 50.7639 51.1002 52.0744C51.2667 51.8287 53.0984 48.4707 52.2658 47.9793C52.1826 47.8974 52.0993 47.8974 52.016 47.8155C52.016 47.5698 52.0993 47.406 52.0993 47.0783C52.0993 46.9145 52.0993 46.8326 52.016 46.6688C51.8495 46.3412 51.9328 46.6688 51.8495 46.4231C52.016 46.4231 52.1826 46.505 52.3491 46.505C52.2658 46.1774 52.1825 46.1774 52.0993 45.8498C52.016 45.6041 52.016 45.2765 51.9328 45.0308C51.7663 43.4746 51.9328 43.6385 52.6821 42.4099C53.0151 42.0004 53.1816 41.509 53.0984 40.9357C52.2658 41.0995 52.0993 41.6728 51.7663 42.4099ZM49.8514 46.9145C48.9356 46.9145 48.4361 46.2593 48.5193 45.4403C48.6858 45.3584 48.8523 45.2765 49.1854 45.2765V45.6041C49.6016 45.5222 49.6849 45.686 49.6849 46.0955C49.4351 46.0955 49.4351 46.0136 49.3519 46.0955C49.6016 46.2593 49.8514 46.505 50.3509 46.3412C50.8505 46.1774 50.7672 45.8498 51.017 45.686C51.4333 45.9317 51.1835 46.9145 49.8514 46.9145ZM64.0048 59.937L63.5053 60.1008H64.1713C66.669 60.1008 68.4174 58.4628 68.9169 56.7428C70.1657 52.7296 69.916 54.2038 70.915 52.0744C72.2471 49.2078 73.6625 43.7204 71.2481 41.0995L70.8318 40.7719L70.9983 41.1814C72.4969 44.1299 71.7476 48.7983 69.8327 51.5011C69.0002 52.7296 68.7504 53.3848 67.1685 52.5658C67.0853 52.4839 67.002 52.4839 67.0853 52.6477C67.1685 52.8934 67.1685 53.0572 67.2518 53.3029C67.3351 54.7772 67.9178 55.6781 67.4183 57.4799C67.002 58.7085 65.5867 59.6913 64.0048 59.937ZM68.0844 70.2567C69.9992 69.6015 72.9132 65.9978 73.5792 64.2778C73.9122 63.295 74.3285 62.476 73.2462 61.8208C72.9964 62.3122 72.8299 62.9674 72.6634 63.4588C72.2471 64.5235 71.1648 66.5711 70.0825 67.472C70.915 66.0797 71.3313 65.4245 71.8309 63.7864C71.9974 63.295 72.7467 60.5103 72.5801 60.1008C72.4969 59.937 72.1639 59.4456 71.9974 59.4456C71.8308 61.0017 70.8318 63.7045 69.9992 64.8511C70.1657 63.4588 70.9983 62.8855 71.0815 60.0189C71.2481 56.3333 70.7485 57.4799 70.4988 55.5143C70.1657 55.76 69.8327 57.6437 69.3332 59.118C67.9178 64.4416 63.0058 64.933 68.0844 70.2567ZM76.2434 64.8511C76.1601 64.4416 75.2443 63.5407 74.7448 63.3769C74.7448 64.6054 72.1639 69.2739 70.6653 69.6834C70.8318 70.83 71.3313 71.8128 71.9141 72.7138C72.2471 73.1233 73.6625 75.2527 73.9955 75.4165C74.3285 74.6794 77.742 72.3042 78.2415 68.2091C78.408 66.7349 78.5745 66.2435 77.3257 65.5064C77.2425 66.653 77.1592 67.7996 76.8262 68.9462C76.4099 70.5843 76.1601 70.5843 75.5773 71.7309C76.2434 69.4377 76.6597 67.3901 76.2434 64.8511ZM74.3285 70.2567C74.3285 69.6015 74.5783 67.3901 74.9113 66.9806C75.0778 67.7996 75.0778 69.5196 74.3285 70.2567ZM36.4473 39.3795C36.6138 39.2157 36.7803 38.97 36.9468 38.8062C37.0301 38.6424 37.2798 38.3967 37.4463 38.151C37.3631 37.9872 37.1133 37.8234 36.9468 37.8234C35.9477 37.8234 35.1152 38.0691 33.8663 38.97C33.3668 39.3795 32.7008 40.1167 32.3677 40.5262C31.1189 42.328 31.1189 46.0136 32.2845 47.9793C32.3677 47.8974 32.3677 47.8155 32.3677 47.7336C32.5343 46.9964 33.4501 45.9317 34.0329 45.3584C35.1152 44.2937 36.031 43.5566 37.2798 42.6556C37.8626 42.0004 38.6119 40.2805 38.4454 39.871C38.3621 40.0348 38.1124 40.3624 38.0291 40.4443C37.5296 41.0176 37.03 41.6728 36.1975 42.1642C36.2807 42.0823 36.1975 42.0823 36.2807 42.0004C36.2807 41.9185 36.364 41.9185 36.4473 41.8366C37.0301 41.2633 37.8626 39.9529 37.8626 39.3795L35.8645 39.9529C36.031 39.6252 36.1975 39.5433 36.4473 39.3795ZM33.6998 40.1167L32.8673 41.5909C32.784 40.7719 33.3668 39.8709 34.0329 39.5433C33.9496 39.789 33.8663 39.9529 33.6998 40.1167ZM69.3332 35.5301C68.9169 35.1206 68.5006 34.793 68.0844 34.4654C65.6699 32.9093 62.9225 33.8102 62.1732 36.1034C63.7551 35.7758 65.8364 35.9396 67.1685 36.6768C68.0011 37.1682 69.0002 38.0691 69.6662 38.8062C71.3313 40.6081 72.5801 41.9185 76.5764 41.5909L76.9927 41.509L76.7429 41.3452C75.1611 40.7719 74.4118 39.4614 73.5792 37.9053C71.4978 33.8102 68.8336 33.6464 67.0853 33.4826C70.4988 34.8749 70.582 36.3492 73.1629 38.97C73.0797 38.97 71.4146 37.7415 69.3332 35.5301ZM40.7765 50.7639C41.1096 50.1906 41.1928 50.0268 41.1928 49.3716C40.4435 49.9449 40.9431 50.1906 38.0291 51.9925L39.1947 51.0097C40.1105 50.1906 41.5258 47.7336 41.5258 46.9964C41.4426 47.1603 41.0263 47.6517 40.8598 47.8155C40.6933 47.9793 37.5296 50.6001 38.3621 49.7811C38.4454 49.6992 38.5286 49.6173 38.6119 49.5354C39.4445 48.8802 40.9431 46.9964 41.1096 46.0955L38.6119 46.2593C38.8617 45.9317 39.1114 45.8498 39.4445 45.5222C39.6942 45.2765 39.944 45.0308 40.1938 44.7032C40.5268 44.2937 41.2761 43.4746 41.5258 42.9832C40.5268 43.147 39.6942 43.2289 38.6119 43.3108C37.1133 43.3927 37.3631 43.4746 36.4473 44.048C35.698 44.4575 34.6989 45.4403 34.1994 46.0136C32.2012 48.4707 30.9524 51.9106 31.6184 55.2686C34.6989 53.1391 38.8617 53.4667 40.7765 50.7639ZM36.6138 45.1946C36.4473 45.4403 36.2808 45.686 36.031 45.9317L34.6156 48.0612C34.6156 48.0612 34.6156 48.0612 34.5324 48.1431C34.6989 46.8326 35.698 45.5222 36.6138 45.1946ZM83.9862 55.1867C84.6522 51.8287 83.4866 48.225 80.989 45.6041C80.1564 44.7851 79.8234 44.5394 78.8243 43.8842C77.742 43.147 77.6587 43.3108 76.6597 43.147C76.6597 43.147 76.7429 43.147 76.7429 43.2289L77.742 43.9661C78.1583 44.2118 78.3248 44.4575 78.7411 44.7851C80.4062 46.1774 82.321 49.2897 82.4043 51.1735C81.988 49.6992 81.2387 48.4707 80.3229 47.1602C79.9899 46.7507 79.6569 46.3412 79.3238 46.0136C78.9908 45.686 78.5745 45.3584 78.2415 45.0308C77.6587 44.5394 75.4108 43.0651 74.7448 42.9832C74.3285 42.9013 73.9955 42.9013 73.5792 42.8194C73.7457 43.2289 74.6615 44.2118 74.9946 44.5394C75.6606 45.2765 75.4941 45.1127 76.2434 45.6041C76.4099 45.7679 76.5764 45.8498 76.6597 46.0136C75.4108 45.9317 75.4108 45.9317 74.162 45.7679C74.4118 46.6688 73.7457 48.8802 73.829 49.5354C73.9955 50.4363 75.3276 51.583 76.3266 52.0744C78.7411 53.221 81.2387 53.3848 83.2369 54.5315C83.5699 54.941 83.7364 55.1048 83.9862 55.1867ZM80.5727 51.7468L80.4062 51.4192C80.0731 50.5182 79.8234 50.0268 79.3238 49.2078C78.9908 48.6345 78.4913 48.0612 77.9918 47.5698C77.9085 47.4879 77.8252 47.406 77.742 47.3241L77.4922 46.9964C78.408 47.4879 78.6578 47.8155 79.2406 48.3888C79.9066 49.2078 80.6559 50.7639 80.5727 51.7468ZM62.5062 42.5737C63.2555 43.8842 63.422 43.6385 63.2555 45.1946C63.1723 45.5222 63.1723 45.7679 63.089 46.0136C63.0058 46.3412 62.8393 46.3412 62.8393 46.6688C63.0058 46.5869 63.1723 46.505 63.3388 46.5869C63.2555 46.8326 63.3388 46.505 63.1723 46.8326C63.089 46.9964 63.089 47.0783 63.089 47.2422C63.089 47.4879 63.1723 47.7336 63.1723 47.9793C63.089 48.0612 63.0058 48.0612 62.9225 48.1431C62.09 48.6345 63.9216 51.9925 64.0881 52.2382C64.2546 51.0097 63.5053 50.9278 63.5053 49.2897C63.5053 48.7164 63.5053 48.7164 64.0881 48.7164C64.0048 48.3069 63.6718 47.7336 64.1713 47.4879C64.8374 47.0783 65.6699 48.0612 67.9178 46.2593C68.0843 46.3412 68.1676 46.3412 68.3341 46.4231L69.7495 46.5869C69.7495 46.5869 69.7495 46.5869 69.8327 46.5869C69.8327 46.5869 69.8327 46.5869 69.916 46.5869C69.7495 46.3412 68.9169 46.0955 68.4174 45.7679C67.6681 45.2765 67.5848 44.1299 65.3369 44.6213C64.0048 44.867 64.0881 45.1946 63.6718 45.1946C63.5886 43.4746 63.9216 43.5566 63.422 42.5737C63.089 41.8366 62.9225 41.2633 62.0067 41.1814C62.0067 41.6728 62.2565 42.1642 62.5062 42.5737ZM64.4211 45.686C64.5876 45.8498 64.5876 46.1774 65.0871 46.3412C65.5867 46.505 65.8365 46.2593 66.0862 46.0955C66.003 46.0136 65.9197 46.0955 65.7532 46.0955C65.7532 45.7679 65.8365 45.5222 66.2527 45.6041V45.2765C66.5857 45.2765 66.669 45.3584 66.9188 45.4403C67.002 46.2593 66.5025 46.8326 65.5867 46.9145C64.0881 46.9145 63.8383 45.9317 64.4211 45.686ZM57.5942 41.0176C58.0937 39.789 57.3444 35.5301 60.6746 34.9568C58.9262 34.6292 58.9262 34.3016 57.6774 33.7283C56.4286 34.3835 56.0956 34.5473 54.5137 35.1206C58.0104 35.6939 56.8449 39.4614 57.5942 41.0176ZM80.5727 67.0625C80.989 66.5711 81.5718 64.6873 81.8215 63.9502C82.4043 61.575 82.5708 58.9542 81.9048 56.579C81.4052 54.941 81.322 54.5315 79.8234 54.2038C80.8224 56.3333 81.2387 59.4456 81.0722 61.9027L80.989 61.575C80.6559 59.6094 80.8224 59.2818 79.9899 57.0704C79.7401 56.3333 79.4071 55.5962 78.9908 54.941C78.3248 53.6305 78.7411 54.04 77.2425 53.5486C77.3257 53.8762 77.2425 53.6305 77.409 53.9581L77.9085 54.941C78.5745 56.579 78.9908 57.9713 78.9908 59.7732C78.9908 59.6913 78.4913 57.7256 78.1583 56.9066C77.8252 56.0057 77.3257 55.2686 76.8262 54.5315C75.9104 53.221 75.8271 53.1391 75.5773 52.9753C74.2453 52.1563 73.9122 51.8287 73.0797 51.2554C72.8299 52.3201 72.4136 53.221 72.0806 54.04C71.9141 54.4496 71.7476 54.7772 71.4978 55.1048C71.4978 55.3505 71.4978 55.5962 71.6643 56.0876C72.0806 57.7256 72.5801 59.118 73.5792 60.2646C74.0787 60.8379 76.0769 62.8855 76.6597 63.3769L79.9066 66.3254C79.9899 66.4073 80.3229 66.8987 80.5727 67.0625ZM75.1611 54.941L75.3276 55.1048C76.4932 56.0057 77.2425 57.8075 77.1592 59.0361C76.8262 58.5447 75.8271 55.6781 75.1611 54.941ZM48.3528 33.4826C46.6044 33.6464 43.9403 33.8102 41.8589 37.9053C41.0263 39.4614 40.277 40.7719 38.6952 41.3452L38.4454 41.509L38.8617 41.5909C42.8579 41.9185 44.1068 40.5262 45.7719 38.8062C46.4379 38.0691 47.437 37.0863 48.2695 36.6768C49.6016 35.9396 51.683 35.6939 53.2649 36.1034C52.5156 33.8102 49.8514 32.9093 47.3537 34.4654C46.9375 34.7111 46.5212 35.0387 46.1049 35.5301C43.9403 37.8234 42.3584 38.97 42.3584 38.97C44.8561 36.3492 45.0226 34.793 48.3528 33.4826ZM42.0254 63.295C42.6914 65.2606 44.1068 67.3901 45.7719 68.7824C46.4379 69.3558 46.9375 69.6015 47.6868 70.0929L48.103 69.5196C49.5184 67.1444 51.017 67.1444 49.2686 65.4245C49.0188 65.834 48.1863 66.8168 47.6868 67.0625C48.4361 66.0797 48.4361 65.834 48.7691 64.933C48.3528 64.3597 48.1863 63.6226 47.9365 62.8855L47.0207 64.2778C46.7709 64.6873 46.8542 64.6054 46.6044 64.7692C46.7709 64.1959 47.2705 63.4588 47.77 62.3122C47.77 62.2303 47.5202 61.575 47.104 60.6741C46.9375 60.3465 46.7709 59.937 46.6044 59.5275C46.5212 59.3637 45.2723 61.6569 45.1891 61.575C45.1058 61.4931 46.3547 58.9542 46.2714 58.7904C46.1882 58.6266 46.1049 58.4628 46.1049 58.3809C45.6886 57.3161 45.2723 56.4152 45.1058 56.2514L44.6896 57.2342C44.6896 57.398 44.6063 57.5618 44.523 57.7256C44.0235 59.118 42.9412 60.6741 41.7756 61.8208C41.6091 62.3122 41.6924 62.2303 42.0254 63.295ZM60.4248 29.8789C61.9234 28.4865 62.2565 26.439 62.2565 26.439C62.2565 26.439 62.3397 26.6028 61.9234 28.077C61.5072 29.5513 60.3416 29.8789 60.0086 31.3531C59.8421 32.1721 59.9253 32.7455 60.0086 33.2369C60.0918 32.8274 59.9253 32.4997 61.7569 30.3703C63.422 28.4046 65.5034 25.7019 63.5886 23.4086C63.0058 22.6715 61.1741 21.8525 59.5923 21.7706C60.0918 22.5077 61.0909 22.6715 61.0909 24.3914C61.0909 26.1933 59.509 28.4865 59.0095 30.5341C58.6765 31.9264 59.0095 32.3359 59.3425 33.0731C59.4258 32.0083 59.5923 30.6979 60.4248 29.8789ZM67.9178 32.6636C70.582 32.5817 73.7457 30.5341 75.4108 30.9436C77.9918 31.6807 78.1583 36.0215 75.1611 35.6939C74.0787 34.4654 75.5773 35.1206 75.8271 33.8102C74.7448 33.8921 73.9955 33.8102 73.1629 33.5645L73.7457 32.4178C72.4969 32.6636 72.4136 33.2369 70.7485 33.155C71.9974 34.6292 75.0778 37.6596 77.3257 37.9053C78.075 37.0863 78.9908 35.2025 79.2406 34.0559C80.4062 29.0599 74.162 29.3875 69.7495 31.435C69.0834 31.7626 68.0843 32.254 67.9178 32.6636ZM65.3369 80.4945C66.669 79.9212 68.3341 78.4469 69.2499 77.546C69.6662 77.1365 71.8308 74.4337 71.2481 73.6966C71.0815 73.5328 71.1648 73.6147 70.915 73.4509C70.8318 74.1061 69.8327 75.2527 69.4164 75.7441C68.7504 76.5632 68.5839 76.6451 67.9178 77.2184C67.6681 77.4641 67.6681 77.4641 67.3351 77.6279C68.0844 76.727 71.1648 72.7957 69.916 71.7309C69.5829 72.3861 68.2509 74.4337 67.5016 74.9251L67.4183 75.007C67.5016 74.7613 67.9178 74.188 68.0844 73.9423C68.5839 73.1233 69.4164 71.0757 69.4164 70.2567C69.0834 70.3386 68.1676 70.9938 67.4183 71.3214C67.1685 70.6662 66.4192 69.7653 66.003 69.2739C65.7532 69.4377 65.4202 70.6662 64.0881 72.0585C63.9216 72.2223 63.8383 72.3042 63.7551 72.3861C63.5886 72.5499 63.5886 72.5499 63.422 72.7138C63.1723 72.9595 63.089 73.1233 62.756 73.2871C62.0067 73.6966 61.5072 74.0242 61.6737 74.5156C62.5895 76.8089 64.7541 78.0374 65.3369 80.4945ZM54.93 33.2369C55.0132 32.8274 55.0965 32.1721 54.93 31.3531C54.597 29.8789 53.4314 29.5513 53.0151 28.077C52.5988 26.6028 52.6821 26.439 52.6821 26.439C52.6821 26.439 53.0151 28.4865 54.5137 29.8789C55.3463 30.6979 55.596 32.0083 55.596 33.0731C55.929 32.4178 56.2621 32.0083 55.929 30.5341C55.4295 28.4865 53.8477 26.2752 53.8477 24.3914C53.8477 22.7534 54.8467 22.5077 55.3463 21.7706C53.7644 21.8525 51.9328 22.7534 51.35 23.4086C49.4351 25.7019 51.5165 28.4046 53.1816 30.3703C55.0132 32.4997 54.8467 32.8274 54.93 33.2369ZM57.0946 28.7322C57.0946 28.4046 57.0946 28.077 57.0946 27.7494C57.1779 26.3571 57.3444 24.8009 57.3444 24.8009C57.3444 24.8009 57.5109 26.8485 57.7607 28.5684C58.6765 25.9476 59.8421 22.262 57.3444 20.8696C55.929 21.7706 55.6793 23.3267 56.0956 25.2924C56.1788 25.9476 56.6783 27.6675 57.0946 28.7322ZM82.1545 38.8881C81.4885 38.3148 81.4052 38.3967 80.7392 38.2329C80.7392 38.2329 80.7392 38.2329 80.7392 38.3148L81.322 38.8881C81.5717 39.1338 81.655 39.2976 81.9048 39.5433C82.9038 40.69 83.6531 42.9832 83.4866 44.2937C83.4034 43.2289 83.0703 42.328 82.6541 41.3452C82.4876 41.0176 82.321 40.69 82.1545 40.4443C81.988 40.1986 81.7383 39.871 81.5717 39.6252C81.2387 39.2157 79.9066 38.0691 79.4904 37.9053C79.1573 37.8234 78.9908 37.7415 78.6578 37.6596C78.7411 37.9053 79.2406 38.7243 79.4071 38.97C79.7401 39.5433 79.6569 39.4614 80.1564 39.871C80.2397 39.9529 80.3229 40.0348 80.4062 40.1986C79.5736 40.0348 78.8243 39.871 77.9918 39.6252C77.9918 40.0348 78.1583 40.4443 78.1583 40.9357C78.1583 41.3452 78.075 41.7547 77.9918 42.1642C78.9076 42.6556 81.0722 43.9661 82.4876 45.6041C82.9038 46.0955 83.9862 47.9793 84.0694 47.9793C85.235 45.7679 85.1517 42.2461 83.6531 40.2805C82.9038 39.6252 82.7373 39.4614 82.1545 38.8881ZM82.1545 44.4575L82.0713 44.2118C81.988 43.5566 81.9048 43.2289 81.655 42.5737C81.4885 42.1642 81.2387 41.7547 80.989 41.3452C80.9057 41.2633 80.9057 41.2633 80.8225 41.1814L80.6559 40.9357C81.2387 41.3452 81.322 41.5909 81.655 42.0823C82.0713 42.6556 82.321 43.8023 82.1545 44.4575ZM80.1564 34.2197C80.0731 34.6292 79.7401 36.2673 79.3238 37.0044C80.9057 36.6768 83.8197 38.8062 84.569 40.8538C84.569 39.5433 84.4857 38.151 83.7364 36.9225C83.0704 35.9396 81.5717 34.0559 80.2397 33.4007C80.989 34.6292 81.655 35.8577 82.9038 36.8406C81.655 36.1853 80.9057 35.2025 80.1564 34.2197ZM65.0039 28.978C63.7551 29.8789 61.2574 31.6807 61.4239 33.4826C62.09 32.5816 63.7551 31.9264 66.2527 30.9436C69.0834 29.8789 68.7504 28.1589 68.7504 28.1589C68.7504 28.1589 69.0834 29.3875 67.9178 30.4522C66.7523 31.435 64.2546 31.8445 63.089 32.8274C62.5062 33.3188 62.3397 33.7283 62.2565 34.0559C64.2546 31.9264 68.9169 31.7626 71.5811 30.0427C74.495 28.1589 70.0825 23.9 65.9197 23.4905C68.0011 25.4562 67.8346 26.9304 65.0039 28.978ZM41.7756 36.1853L43.7737 34.1378C44.19 33.8102 44.19 33.8921 44.4398 33.4007C42.6082 33.4007 42.7747 32.9093 41.3593 32.6636L41.9421 33.8102C41.1096 34.0559 40.3603 34.1378 39.3612 34.0559C39.5277 35.2025 40.277 34.4654 40.3603 35.4482C39.4445 36.5949 38.1124 35.2844 37.7793 34.3835C37.4463 33.3188 38.2789 32.0083 38.9449 31.5169C40.9431 29.9608 45.9384 33.4826 48.2695 32.9912C45.0226 31.8445 41.4426 28.978 37.5296 30.616C34.5324 31.8445 36.4473 36.4311 38.0291 38.2329C39.8607 37.7415 40.7765 37.0044 41.7756 36.1853ZM43.2742 30.0427C45.9384 31.7626 50.6007 31.9264 52.5988 34.0559C52.5156 33.8102 52.3491 33.4007 51.7663 32.8274C50.6007 31.8445 48.103 31.435 46.9375 30.4522C45.7719 29.4694 46.1049 28.1589 46.1049 28.1589C46.1049 28.1589 45.6886 29.797 48.6026 30.9436C51.1002 31.9264 52.7653 32.4997 53.4314 33.4826C53.5979 31.6807 51.1002 29.8789 49.8514 28.978C47.0207 26.9304 46.8542 25.4562 48.8523 23.4905C44.7728 23.9 40.3603 28.1589 43.2742 30.0427ZM36.1142 37.0863C35.698 36.2673 35.3649 34.7111 35.2817 34.3016C34.5324 35.2844 33.7831 36.2673 32.5343 37.0044C33.7831 36.1034 34.4491 34.793 35.1984 33.5645C33.8663 34.2197 32.3677 36.1034 31.7017 37.0863C30.9524 38.2329 30.8691 39.7071 30.8691 41.0176C31.6184 38.8881 34.5324 36.7587 36.1142 37.0863ZM53.8477 56.9066C53.7644 56.9066 53.7644 56.9066 53.6811 56.9066C53.5146 56.9066 53.4314 56.9066 53.3481 56.8247H53.2649C52.5156 56.4971 52.8486 55.2686 52.8486 55.2686C52.5988 54.3676 51.8495 56.0057 52.016 56.3333C52.1825 56.6609 53.7644 58.0533 53.7644 58.0533C55.5128 59.6913 58.6765 62.476 56.6783 63.1312C54.597 63.5407 50.8505 64.5235 50.8505 62.476C52.016 61.9846 52.5988 62.3122 53.7644 62.3941C52.2658 61.4931 52.1826 62.1484 49.8514 61.0017C49.6849 60.9198 49.2686 60.2646 49.1854 60.3465C49.1854 60.3465 49.1854 61.0017 49.1854 61.0836C50.2677 68.291 54.93 61.9846 57.7607 65.0149C61.9234 62.1484 65.1704 67.7177 66.5858 60.4284C66.336 60.4284 65.7532 60.9198 65.5867 61.0836C65.3369 61.3293 64.5044 61.6569 64.1713 61.7389C63.3388 61.9027 62.6727 61.9846 62.0067 62.1484L61.6737 62.3122H62.1732C63.2555 62.3122 63.6718 62.1484 64.7541 62.3941C64.2546 64.3597 61.8402 63.7045 59.5923 63.295C58.3435 63.0493 58.0104 62.9674 58.3435 61.9027C58.9262 59.937 60.7579 59.2818 61.9234 58.0533C62.09 57.8894 63.5053 56.579 63.5886 56.3333C63.7551 56.0876 63.0058 54.3676 62.756 55.2686C62.756 55.2686 63.0058 56.0876 62.6727 56.579C61.6737 57.0704 61.5072 56.8247 60.3416 56.6609C58.9262 56.579 58.9262 57.1523 57.8439 57.2342C56.6783 57.3161 56.5118 56.6609 55.3463 56.6609C54.8467 56.7428 54.3472 56.9066 53.8477 56.9066Z"/>
</mask>
<path fill-rule="evenodd" clip-rule="evenodd" d="M44.523 40.69L44.1068 41.0176C41.6924 43.5566 43.0244 49.1259 44.4398 51.9925C45.4389 54.1219 45.1058 52.5658 46.4379 56.6609C47.0207 58.3809 48.7691 60.0189 51.1835 60.0189H51.8495L51.35 59.8551C49.8514 59.6913 48.3528 58.6266 48.0198 57.3161C47.5202 55.5143 48.103 54.6134 48.1863 53.1391C48.1863 52.8934 48.2695 52.7296 48.3528 52.4839C48.3528 52.3201 48.3528 52.402 48.2695 52.402C46.6044 53.221 46.4379 52.5658 45.6054 51.3373C43.7737 48.6345 42.9412 43.9661 44.4398 41.0176L44.523 40.69ZM51.8495 68.0453C52.5156 68.7824 52.4323 69.7653 53.5979 69.6015C53.1816 68.8643 53.4314 68.4548 52.6821 67.5539C52.016 66.653 52.2658 66.0797 52.6821 65.1787C50.9337 65.1787 50.9337 66.8987 51.8495 68.0453ZM62.09 69.6015C63.2555 69.6834 63.1723 68.7824 63.8383 68.0453C64.6709 66.8987 64.6709 65.1787 63.0058 65.1787C63.422 66.1616 63.6718 66.653 63.0058 67.5539C62.2565 68.5367 62.5062 68.9462 62.09 69.6015ZM63.422 78.4469C63.3388 78.2012 63.0058 77.7917 62.756 77.6279C62.5895 77.7917 60.2583 79.8392 59.176 80.5764L60.0086 79.5935C60.6746 78.8564 61.4239 78.0374 62.0067 77.2184C62.5062 76.4813 61.8402 76.3994 61.8402 76.1536C61.8402 76.1536 61.8402 76.1536 61.7569 76.0717C61.1741 76.6451 60.3416 77.2184 59.5923 77.7098C59.4258 77.8736 59.509 77.7917 59.2593 77.8736L60.6746 76.1536C61.0909 75.5803 61.5904 75.1708 60.9244 74.5975C59.5923 75.5803 58.9262 76.1536 57.9272 77.3822C57.6774 77.2184 57.5109 76.8908 57.3444 76.6451C56.6783 75.826 55.8458 75.3346 55.0965 74.6794C54.6802 75.2527 54.6802 75.5803 54.3472 75.9079C53.5979 77.0546 53.4314 77.1365 52.6821 78.2012C52.5156 78.4469 52.6821 78.6107 52.9318 78.8564C54.0974 80.3307 56.2621 81.723 58.0104 82.8696C59.9253 81.6411 61.8402 80.085 63.422 78.4469ZM55.1798 80.085C54.8467 79.6754 54.6802 79.5935 54.4304 79.0202C54.93 79.4297 55.3463 79.6754 55.8458 80.1669C55.929 80.2488 55.929 80.3307 56.0956 80.4126C56.2621 80.5764 56.3453 80.6583 56.5118 80.904C55.929 80.7402 55.5128 80.4126 55.1798 80.085ZM35.0319 67.2263L39.6942 62.8036C41.2761 61.4112 42.8579 59.6913 43.7737 57.9713C44.3565 56.8247 44.8561 55.6781 43.857 54.5315C43.6905 54.6953 43.6072 55.1867 43.4407 55.5143C42.7747 56.8247 42.2751 57.5618 41.2761 58.7085L39.944 60.0189L41.3593 58.0533C41.7756 57.3161 42.1919 56.6609 42.5249 55.9238C42.9412 54.8591 43.524 53.8762 43.191 52.8115C43.1077 52.5658 42.7747 51.9106 42.7747 51.9925C42.7747 52.0744 42.6914 52.2382 42.6082 52.6477C42.2751 53.6305 40.9431 56.4152 39.944 57.1523C40.1105 56.8247 40.3603 56.4152 40.5268 56.0057C41.1928 54.7772 41.2761 52.8115 41.5258 51.5011C40.0272 52.7296 40.5268 52.8934 36.697 54.2038C35.2817 54.6134 34.6989 54.6134 34.3659 55.2686C33.2003 57.5618 33.117 60.4284 33.6166 62.8036C33.6998 63.7045 34.4491 66.653 35.0319 67.2263ZM35.1984 56.9066C35.1152 57.7256 34.7821 58.5447 34.6989 59.5275C34.6156 60.5103 34.6989 61.4112 34.6156 62.3941C33.7831 61.2474 34.2826 57.8894 35.1984 56.9066ZM52.3491 77.0546C53.0984 76.0717 53.8477 75.007 54.1807 73.8604C53.8477 73.6147 53.5979 73.369 53.1816 73.2052C53.0151 73.369 51.4333 76.5632 50.3509 77.6279L50.2677 77.7098C50.3509 77.3822 50.7672 76.727 50.9337 76.3994C51.4332 75.4165 52.2658 73.2871 52.3491 72.3042C51.9328 72.0585 52.0993 72.1404 51.5998 71.7309C51.2667 72.6318 50.2677 74.7613 49.6849 75.3346C49.9346 74.2699 50.4342 73.2052 50.6007 71.9766C50.8505 70.3386 50.684 70.6662 49.8514 69.192C49.8514 69.1101 49.7681 69.1101 49.7681 69.0281C49.6849 68.8643 49.6849 68.9462 49.6849 68.8643C49.2686 69.6015 48.6858 70.1748 48.436 71.0757C47.6868 70.83 47.0207 70.3386 46.4379 70.011C46.0216 71.2395 45.6886 71.9766 44.9393 72.9595C44.4398 73.6966 44.2733 73.5328 44.6896 74.4337C45.1058 75.3346 45.7719 76.3994 46.5212 77.1365C47.2705 77.8736 49.3519 79.6754 50.6007 80.1669C51.35 78.2012 50.9337 78.9383 52.3491 77.0546ZM60.3416 69.6834C60.4248 69.2739 60.4248 69.4377 60.1751 68.9462L60.0086 68.7824C59.509 69.192 58.843 69.4377 58.3435 69.9291L57.9272 70.4205L57.8439 70.3386C57.7607 70.1748 56.8449 69.4377 56.3453 69.192C56.2621 69.1101 55.929 68.8643 55.8458 68.7824C55.6793 68.8643 55.596 69.2739 55.1798 69.7653C54.93 70.0929 54.6802 70.3386 54.4304 70.5843C54.3472 70.6662 53.6812 71.3214 53.5979 71.4033C53.4314 71.8128 54.5137 72.9595 54.8467 73.2871C55.1797 73.5328 57.4276 75.1708 57.8439 75.3346C59.2593 74.5975 61.6737 72.7957 62.09 71.649C62.1732 71.3214 62.1732 71.4033 61.7569 70.9938C61.5904 71.1576 60.9244 72.3042 59.8421 73.0414C59.5923 73.2052 59.2593 73.5328 59.0095 73.6147C60.0918 72.8776 60.5914 71.8947 61.1741 70.83C61.3407 70.5843 61.3407 70.5843 61.1741 70.3386C61.0909 70.2567 60.9244 70.011 60.7579 69.9291C60.6746 70.011 60.1751 71.0757 59.509 71.8947C59.4258 72.0585 59.3425 72.0585 59.2593 72.2223L58.9262 72.468C59.0095 72.2223 59.3425 71.8128 59.509 71.5671C60.0086 70.9938 60.1751 70.4205 60.3416 69.6834ZM41.3593 74.5156L42.0254 75.0889C43.191 73.1233 44.8561 71.7309 45.1891 69.3558C44.6896 69.192 44.7728 68.9462 44.3565 68.7005C44.1068 68.9462 43.6905 70.3386 43.4407 70.7481C43.191 71.2395 42.4417 72.3042 42.3584 72.5499C42.4417 71.8128 43.1077 70.7481 43.3575 68.3729C43.4407 67.6358 43.6072 67.7177 43.0244 67.1444C42.6082 68.1272 42.3584 68.8643 41.7756 69.7653C41.8589 69.2739 42.0254 68.6186 42.1086 68.0453C42.3584 65.834 42.1919 66.0797 41.5258 64.5235C41.3593 64.114 41.1928 63.295 40.9431 62.9674L38.1956 65.3425C37.4463 65.9978 37.4463 65.9978 37.5296 67.1444C37.7793 69.9291 39.1947 72.468 41.3593 74.5156ZM51.7663 42.4099C51.35 43.3927 51.5998 43.3927 51.5165 45.0308C51.1002 45.0308 51.1835 44.7032 49.8514 44.4575C47.6035 44.048 47.6035 45.1127 46.7709 45.6041C46.2714 45.9317 45.4389 46.1774 45.2723 46.4231C45.2723 46.4231 45.2723 46.4231 45.3556 46.4231C45.3556 46.4231 45.3556 46.4231 45.4389 46.4231L46.8542 46.2593C47.0207 46.1774 47.104 46.1774 47.2705 46.0955C49.5184 47.8974 50.3509 46.9145 51.017 47.3241C51.5165 47.6517 51.1835 48.225 51.1002 48.5526C51.683 48.5526 51.683 48.5526 51.683 49.1259C51.683 50.682 50.9337 50.7639 51.1002 52.0744C51.2667 51.8287 53.0984 48.4707 52.2658 47.9793C52.1826 47.8974 52.0993 47.8974 52.016 47.8155C52.016 47.5698 52.0993 47.406 52.0993 47.0783C52.0993 46.9145 52.0993 46.8326 52.016 46.6688C51.8495 46.3412 51.9328 46.6688 51.8495 46.4231C52.016 46.4231 52.1826 46.505 52.3491 46.505C52.2658 46.1774 52.1825 46.1774 52.0993 45.8498C52.016 45.6041 52.016 45.2765 51.9328 45.0308C51.7663 43.4746 51.9328 43.6385 52.6821 42.4099C53.0151 42.0004 53.1816 41.509 53.0984 40.9357C52.2658 41.0995 52.0993 41.6728 51.7663 42.4099ZM49.8514 46.9145C48.9356 46.9145 48.4361 46.2593 48.5193 45.4403C48.6858 45.3584 48.8523 45.2765 49.1854 45.2765V45.6041C49.6016 45.5222 49.6849 45.686 49.6849 46.0955C49.4351 46.0955 49.4351 46.0136 49.3519 46.0955C49.6016 46.2593 49.8514 46.505 50.3509 46.3412C50.8505 46.1774 50.7672 45.8498 51.017 45.686C51.4333 45.9317 51.1835 46.9145 49.8514 46.9145ZM64.0048 59.937L63.5053 60.1008H64.1713C66.669 60.1008 68.4174 58.4628 68.9169 56.7428C70.1657 52.7296 69.916 54.2038 70.915 52.0744C72.2471 49.2078 73.6625 43.7204 71.2481 41.0995L70.8318 40.7719L70.9983 41.1814C72.4969 44.1299 71.7476 48.7983 69.8327 51.5011C69.0002 52.7296 68.7504 53.3848 67.1685 52.5658C67.0853 52.4839 67.002 52.4839 67.0853 52.6477C67.1685 52.8934 67.1685 53.0572 67.2518 53.3029C67.3351 54.7772 67.9178 55.6781 67.4183 57.4799C67.002 58.7085 65.5867 59.6913 64.0048 59.937ZM68.0844 70.2567C69.9992 69.6015 72.9132 65.9978 73.5792 64.2778C73.9122 63.295 74.3285 62.476 73.2462 61.8208C72.9964 62.3122 72.8299 62.9674 72.6634 63.4588C72.2471 64.5235 71.1648 66.5711 70.0825 67.472C70.915 66.0797 71.3313 65.4245 71.8309 63.7864C71.9974 63.295 72.7467 60.5103 72.5801 60.1008C72.4969 59.937 72.1639 59.4456 71.9974 59.4456C71.8308 61.0017 70.8318 63.7045 69.9992 64.8511C70.1657 63.4588 70.9983 62.8855 71.0815 60.0189C71.2481 56.3333 70.7485 57.4799 70.4988 55.5143C70.1657 55.76 69.8327 57.6437 69.3332 59.118C67.9178 64.4416 63.0058 64.933 68.0844 70.2567ZM76.2434 64.8511C76.1601 64.4416 75.2443 63.5407 74.7448 63.3769C74.7448 64.6054 72.1639 69.2739 70.6653 69.6834C70.8318 70.83 71.3313 71.8128 71.9141 72.7138C72.2471 73.1233 73.6625 75.2527 73.9955 75.4165C74.3285 74.6794 77.742 72.3042 78.2415 68.2091C78.408 66.7349 78.5745 66.2435 77.3257 65.5064C77.2425 66.653 77.1592 67.7996 76.8262 68.9462C76.4099 70.5843 76.1601 70.5843 75.5773 71.7309C76.2434 69.4377 76.6597 67.3901 76.2434 64.8511ZM74.3285 70.2567C74.3285 69.6015 74.5783 67.3901 74.9113 66.9806C75.0778 67.7996 75.0778 69.5196 74.3285 70.2567ZM36.4473 39.3795C36.6138 39.2157 36.7803 38.97 36.9468 38.8062C37.0301 38.6424 37.2798 38.3967 37.4463 38.151C37.3631 37.9872 37.1133 37.8234 36.9468 37.8234C35.9477 37.8234 35.1152 38.0691 33.8663 38.97C33.3668 39.3795 32.7008 40.1167 32.3677 40.5262C31.1189 42.328 31.1189 46.0136 32.2845 47.9793C32.3677 47.8974 32.3677 47.8155 32.3677 47.7336C32.5343 46.9964 33.4501 45.9317 34.0329 45.3584C35.1152 44.2937 36.031 43.5566 37.2798 42.6556C37.8626 42.0004 38.6119 40.2805 38.4454 39.871C38.3621 40.0348 38.1124 40.3624 38.0291 40.4443C37.5296 41.0176 37.03 41.6728 36.1975 42.1642C36.2807 42.0823 36.1975 42.0823 36.2807 42.0004C36.2807 41.9185 36.364 41.9185 36.4473 41.8366C37.0301 41.2633 37.8626 39.9529 37.8626 39.3795L35.8645 39.9529C36.031 39.6252 36.1975 39.5433 36.4473 39.3795ZM33.6998 40.1167L32.8673 41.5909C32.784 40.7719 33.3668 39.8709 34.0329 39.5433C33.9496 39.789 33.8663 39.9529 33.6998 40.1167ZM69.3332 35.5301C68.9169 35.1206 68.5006 34.793 68.0844 34.4654C65.6699 32.9093 62.9225 33.8102 62.1732 36.1034C63.7551 35.7758 65.8364 35.9396 67.1685 36.6768C68.0011 37.1682 69.0002 38.0691 69.6662 38.8062C71.3313 40.6081 72.5801 41.9185 76.5764 41.5909L76.9927 41.509L76.7429 41.3452C75.1611 40.7719 74.4118 39.4614 73.5792 37.9053C71.4978 33.8102 68.8336 33.6464 67.0853 33.4826C70.4988 34.8749 70.582 36.3492 73.1629 38.97C73.0797 38.97 71.4146 37.7415 69.3332 35.5301ZM40.7765 50.7639C41.1096 50.1906 41.1928 50.0268 41.1928 49.3716C40.4435 49.9449 40.9431 50.1906 38.0291 51.9925L39.1947 51.0097C40.1105 50.1906 41.5258 47.7336 41.5258 46.9964C41.4426 47.1603 41.0263 47.6517 40.8598 47.8155C40.6933 47.9793 37.5296 50.6001 38.3621 49.7811C38.4454 49.6992 38.5286 49.6173 38.6119 49.5354C39.4445 48.8802 40.9431 46.9964 41.1096 46.0955L38.6119 46.2593C38.8617 45.9317 39.1114 45.8498 39.4445 45.5222C39.6942 45.2765 39.944 45.0308 40.1938 44.7032C40.5268 44.2937 41.2761 43.4746 41.5258 42.9832C40.5268 43.147 39.6942 43.2289 38.6119 43.3108C37.1133 43.3927 37.3631 43.4746 36.4473 44.048C35.698 44.4575 34.6989 45.4403 34.1994 46.0136C32.2012 48.4707 30.9524 51.9106 31.6184 55.2686C34.6989 53.1391 38.8617 53.4667 40.7765 50.7639ZM36.6138 45.1946C36.4473 45.4403 36.2808 45.686 36.031 45.9317L34.6156 48.0612C34.6156 48.0612 34.6156 48.0612 34.5324 48.1431C34.6989 46.8326 35.698 45.5222 36.6138 45.1946ZM83.9862 55.1867C84.6522 51.8287 83.4866 48.225 80.989 45.6041C80.1564 44.7851 79.8234 44.5394 78.8243 43.8842C77.742 43.147 77.6587 43.3108 76.6597 43.147C76.6597 43.147 76.7429 43.147 76.7429 43.2289L77.742 43.9661C78.1583 44.2118 78.3248 44.4575 78.7411 44.7851C80.4062 46.1774 82.321 49.2897 82.4043 51.1735C81.988 49.6992 81.2387 48.4707 80.3229 47.1602C79.9899 46.7507 79.6569 46.3412 79.3238 46.0136C78.9908 45.686 78.5745 45.3584 78.2415 45.0308C77.6587 44.5394 75.4108 43.0651 74.7448 42.9832C74.3285 42.9013 73.9955 42.9013 73.5792 42.8194C73.7457 43.2289 74.6615 44.2118 74.9946 44.5394C75.6606 45.2765 75.4941 45.1127 76.2434 45.6041C76.4099 45.7679 76.5764 45.8498 76.6597 46.0136C75.4108 45.9317 75.4108 45.9317 74.162 45.7679C74.4118 46.6688 73.7457 48.8802 73.829 49.5354C73.9955 50.4363 75.3276 51.583 76.3266 52.0744C78.7411 53.221 81.2387 53.3848 83.2369 54.5315C83.5699 54.941 83.7364 55.1048 83.9862 55.1867ZM80.5727 51.7468L80.4062 51.4192C80.0731 50.5182 79.8234 50.0268 79.3238 49.2078C78.9908 48.6345 78.4913 48.0612 77.9918 47.5698C77.9085 47.4879 77.8252 47.406 77.742 47.3241L77.4922 46.9964C78.408 47.4879 78.6578 47.8155 79.2406 48.3888C79.9066 49.2078 80.6559 50.7639 80.5727 51.7468ZM62.5062 42.5737C63.2555 43.8842 63.422 43.6385 63.2555 45.1946C63.1723 45.5222 63.1723 45.7679 63.089 46.0136C63.0058 46.3412 62.8393 46.3412 62.8393 46.6688C63.0058 46.5869 63.1723 46.505 63.3388 46.5869C63.2555 46.8326 63.3388 46.505 63.1723 46.8326C63.089 46.9964 63.089 47.0783 63.089 47.2422C63.089 47.4879 63.1723 47.7336 63.1723 47.9793C63.089 48.0612 63.0058 48.0612 62.9225 48.1431C62.09 48.6345 63.9216 51.9925 64.0881 52.2382C64.2546 51.0097 63.5053 50.9278 63.5053 49.2897C63.5053 48.7164 63.5053 48.7164 64.0881 48.7164C64.0048 48.3069 63.6718 47.7336 64.1713 47.4879C64.8374 47.0783 65.6699 48.0612 67.9178 46.2593C68.0843 46.3412 68.1676 46.3412 68.3341 46.4231L69.7495 46.5869C69.7495 46.5869 69.7495 46.5869 69.8327 46.5869C69.8327 46.5869 69.8327 46.5869 69.916 46.5869C69.7495 46.3412 68.9169 46.0955 68.4174 45.7679C67.6681 45.2765 67.5848 44.1299 65.3369 44.6213C64.0048 44.867 64.0881 45.1946 63.6718 45.1946C63.5886 43.4746 63.9216 43.5566 63.422 42.5737C63.089 41.8366 62.9225 41.2633 62.0067 41.1814C62.0067 41.6728 62.2565 42.1642 62.5062 42.5737ZM64.4211 45.686C64.5876 45.8498 64.5876 46.1774 65.0871 46.3412C65.5867 46.505 65.8365 46.2593 66.0862 46.0955C66.003 46.0136 65.9197 46.0955 65.7532 46.0955C65.7532 45.7679 65.8365 45.5222 66.2527 45.6041V45.2765C66.5857 45.2765 66.669 45.3584 66.9188 45.4403C67.002 46.2593 66.5025 46.8326 65.5867 46.9145C64.0881 46.9145 63.8383 45.9317 64.4211 45.686ZM57.5942 41.0176C58.0937 39.789 57.3444 35.5301 60.6746 34.9568C58.9262 34.6292 58.9262 34.3016 57.6774 33.7283C56.4286 34.3835 56.0956 34.5473 54.5137 35.1206C58.0104 35.6939 56.8449 39.4614 57.5942 41.0176ZM80.5727 67.0625C80.989 66.5711 81.5718 64.6873 81.8215 63.9502C82.4043 61.575 82.5708 58.9542 81.9048 56.579C81.4052 54.941 81.322 54.5315 79.8234 54.2038C80.8224 56.3333 81.2387 59.4456 81.0722 61.9027L80.989 61.575C80.6559 59.6094 80.8224 59.2818 79.9899 57.0704C79.7401 56.3333 79.4071 55.5962 78.9908 54.941C78.3248 53.6305 78.7411 54.04 77.2425 53.5486C77.3257 53.8762 77.2425 53.6305 77.409 53.9581L77.9085 54.941C78.5745 56.579 78.9908 57.9713 78.9908 59.7732C78.9908 59.6913 78.4913 57.7256 78.1583 56.9066C77.8252 56.0057 77.3257 55.2686 76.8262 54.5315C75.9104 53.221 75.8271 53.1391 75.5773 52.9753C74.2453 52.1563 73.9122 51.8287 73.0797 51.2554C72.8299 52.3201 72.4136 53.221 72.0806 54.04C71.9141 54.4496 71.7476 54.7772 71.4978 55.1048C71.4978 55.3505 71.4978 55.5962 71.6643 56.0876C72.0806 57.7256 72.5801 59.118 73.5792 60.2646C74.0787 60.8379 76.0769 62.8855 76.6597 63.3769L79.9066 66.3254C79.9899 66.4073 80.3229 66.8987 80.5727 67.0625ZM75.1611 54.941L75.3276 55.1048C76.4932 56.0057 77.2425 57.8075 77.1592 59.0361C76.8262 58.5447 75.8271 55.6781 75.1611 54.941ZM48.3528 33.4826C46.6044 33.6464 43.9403 33.8102 41.8589 37.9053C41.0263 39.4614 40.277 40.7719 38.6952 41.3452L38.4454 41.509L38.8617 41.5909C42.8579 41.9185 44.1068 40.5262 45.7719 38.8062C46.4379 38.0691 47.437 37.0863 48.2695 36.6768C49.6016 35.9396 51.683 35.6939 53.2649 36.1034C52.5156 33.8102 49.8514 32.9093 47.3537 34.4654C46.9375 34.7111 46.5212 35.0387 46.1049 35.5301C43.9403 37.8234 42.3584 38.97 42.3584 38.97C44.8561 36.3492 45.0226 34.793 48.3528 33.4826ZM42.0254 63.295C42.6914 65.2606 44.1068 67.3901 45.7719 68.7824C46.4379 69.3558 46.9375 69.6015 47.6868 70.0929L48.103 69.5196C49.5184 67.1444 51.017 67.1444 49.2686 65.4245C49.0188 65.834 48.1863 66.8168 47.6868 67.0625C48.4361 66.0797 48.4361 65.834 48.7691 64.933C48.3528 64.3597 48.1863 63.6226 47.9365 62.8855L47.0207 64.2778C46.7709 64.6873 46.8542 64.6054 46.6044 64.7692C46.7709 64.1959 47.2705 63.4588 47.77 62.3122C47.77 62.2303 47.5202 61.575 47.104 60.6741C46.9375 60.3465 46.7709 59.937 46.6044 59.5275C46.5212 59.3637 45.2723 61.6569 45.1891 61.575C45.1058 61.4931 46.3547 58.9542 46.2714 58.7904C46.1882 58.6266 46.1049 58.4628 46.1049 58.3809C45.6886 57.3161 45.2723 56.4152 45.1058 56.2514L44.6896 57.2342C44.6896 57.398 44.6063 57.5618 44.523 57.7256C44.0235 59.118 42.9412 60.6741 41.7756 61.8208C41.6091 62.3122 41.6924 62.2303 42.0254 63.295ZM60.4248 29.8789C61.9234 28.4865 62.2565 26.439 62.2565 26.439C62.2565 26.439 62.3397 26.6028 61.9234 28.077C61.5072 29.5513 60.3416 29.8789 60.0086 31.3531C59.8421 32.1721 59.9253 32.7455 60.0086 33.2369C60.0918 32.8274 59.9253 32.4997 61.7569 30.3703C63.422 28.4046 65.5034 25.7019 63.5886 23.4086C63.0058 22.6715 61.1741 21.8525 59.5923 21.7706C60.0918 22.5077 61.0909 22.6715 61.0909 24.3914C61.0909 26.1933 59.509 28.4865 59.0095 30.5341C58.6765 31.9264 59.0095 32.3359 59.3425 33.0731C59.4258 32.0083 59.5923 30.6979 60.4248 29.8789ZM67.9178 32.6636C70.582 32.5817 73.7457 30.5341 75.4108 30.9436C77.9918 31.6807 78.1583 36.0215 75.1611 35.6939C74.0787 34.4654 75.5773 35.1206 75.8271 33.8102C74.7448 33.8921 73.9955 33.8102 73.1629 33.5645L73.7457 32.4178C72.4969 32.6636 72.4136 33.2369 70.7485 33.155C71.9974 34.6292 75.0778 37.6596 77.3257 37.9053C78.075 37.0863 78.9908 35.2025 79.2406 34.0559C80.4062 29.0599 74.162 29.3875 69.7495 31.435C69.0834 31.7626 68.0843 32.254 67.9178 32.6636ZM65.3369 80.4945C66.669 79.9212 68.3341 78.4469 69.2499 77.546C69.6662 77.1365 71.8308 74.4337 71.2481 73.6966C71.0815 73.5328 71.1648 73.6147 70.915 73.4509C70.8318 74.1061 69.8327 75.2527 69.4164 75.7441C68.7504 76.5632 68.5839 76.6451 67.9178 77.2184C67.6681 77.4641 67.6681 77.4641 67.3351 77.6279C68.0844 76.727 71.1648 72.7957 69.916 71.7309C69.5829 72.3861 68.2509 74.4337 67.5016 74.9251L67.4183 75.007C67.5016 74.7613 67.9178 74.188 68.0844 73.9423C68.5839 73.1233 69.4164 71.0757 69.4164 70.2567C69.0834 70.3386 68.1676 70.9938 67.4183 71.3214C67.1685 70.6662 66.4192 69.7653 66.003 69.2739C65.7532 69.4377 65.4202 70.6662 64.0881 72.0585C63.9216 72.2223 63.8383 72.3042 63.7551 72.3861C63.5886 72.5499 63.5886 72.5499 63.422 72.7138C63.1723 72.9595 63.089 73.1233 62.756 73.2871C62.0067 73.6966 61.5072 74.0242 61.6737 74.5156C62.5895 76.8089 64.7541 78.0374 65.3369 80.4945ZM54.93 33.2369C55.0132 32.8274 55.0965 32.1721 54.93 31.3531C54.597 29.8789 53.4314 29.5513 53.0151 28.077C52.5988 26.6028 52.6821 26.439 52.6821 26.439C52.6821 26.439 53.0151 28.4865 54.5137 29.8789C55.3463 30.6979 55.596 32.0083 55.596 33.0731C55.929 32.4178 56.2621 32.0083 55.929 30.5341C55.4295 28.4865 53.8477 26.2752 53.8477 24.3914C53.8477 22.7534 54.8467 22.5077 55.3463 21.7706C53.7644 21.8525 51.9328 22.7534 51.35 23.4086C49.4351 25.7019 51.5165 28.4046 53.1816 30.3703C55.0132 32.4997 54.8467 32.8274 54.93 33.2369ZM57.0946 28.7322C57.0946 28.4046 57.0946 28.077 57.0946 27.7494C57.1779 26.3571 57.3444 24.8009 57.3444 24.8009C57.3444 24.8009 57.5109 26.8485 57.7607 28.5684C58.6765 25.9476 59.8421 22.262 57.3444 20.8696C55.929 21.7706 55.6793 23.3267 56.0956 25.2924C56.1788 25.9476 56.6783 27.6675 57.0946 28.7322ZM82.1545 38.8881C81.4885 38.3148 81.4052 38.3967 80.7392 38.2329C80.7392 38.2329 80.7392 38.2329 80.7392 38.3148L81.322 38.8881C81.5717 39.1338 81.655 39.2976 81.9048 39.5433C82.9038 40.69 83.6531 42.9832 83.4866 44.2937C83.4034 43.2289 83.0703 42.328 82.6541 41.3452C82.4876 41.0176 82.321 40.69 82.1545 40.4443C81.988 40.1986 81.7383 39.871 81.5717 39.6252C81.2387 39.2157 79.9066 38.0691 79.4904 37.9053C79.1573 37.8234 78.9908 37.7415 78.6578 37.6596C78.7411 37.9053 79.2406 38.7243 79.4071 38.97C79.7401 39.5433 79.6569 39.4614 80.1564 39.871C80.2397 39.9529 80.3229 40.0348 80.4062 40.1986C79.5736 40.0348 78.8243 39.871 77.9918 39.6252C77.9918 40.0348 78.1583 40.4443 78.1583 40.9357C78.1583 41.3452 78.075 41.7547 77.9918 42.1642C78.9076 42.6556 81.0722 43.9661 82.4876 45.6041C82.9038 46.0955 83.9862 47.9793 84.0694 47.9793C85.235 45.7679 85.1517 42.2461 83.6531 40.2805C82.9038 39.6252 82.7373 39.4614 82.1545 38.8881ZM82.1545 44.4575L82.0713 44.2118C81.988 43.5566 81.9048 43.2289 81.655 42.5737C81.4885 42.1642 81.2387 41.7547 80.989 41.3452C80.9057 41.2633 80.9057 41.2633 80.8225 41.1814L80.6559 40.9357C81.2387 41.3452 81.322 41.5909 81.655 42.0823C82.0713 42.6556 82.321 43.8023 82.1545 44.4575ZM80.1564 34.2197C80.0731 34.6292 79.7401 36.2673 79.3238 37.0044C80.9057 36.6768 83.8197 38.8062 84.569 40.8538C84.569 39.5433 84.4857 38.151 83.7364 36.9225C83.0704 35.9396 81.5717 34.0559 80.2397 33.4007C80.989 34.6292 81.655 35.8577 82.9038 36.8406C81.655 36.1853 80.9057 35.2025 80.1564 34.2197ZM65.0039 28.978C63.7551 29.8789 61.2574 31.6807 61.4239 33.4826C62.09 32.5816 63.7551 31.9264 66.2527 30.9436C69.0834 29.8789 68.7504 28.1589 68.7504 28.1589C68.7504 28.1589 69.0834 29.3875 67.9178 30.4522C66.7523 31.435 64.2546 31.8445 63.089 32.8274C62.5062 33.3188 62.3397 33.7283 62.2565 34.0559C64.2546 31.9264 68.9169 31.7626 71.5811 30.0427C74.495 28.1589 70.0825 23.9 65.9197 23.4905C68.0011 25.4562 67.8346 26.9304 65.0039 28.978ZM41.7756 36.1853L43.7737 34.1378C44.19 33.8102 44.19 33.8921 44.4398 33.4007C42.6082 33.4007 42.7747 32.9093 41.3593 32.6636L41.9421 33.8102C41.1096 34.0559 40.3603 34.1378 39.3612 34.0559C39.5277 35.2025 40.277 34.4654 40.3603 35.4482C39.4445 36.5949 38.1124 35.2844 37.7793 34.3835C37.4463 33.3188 38.2789 32.0083 38.9449 31.5169C40.9431 29.9608 45.9384 33.4826 48.2695 32.9912C45.0226 31.8445 41.4426 28.978 37.5296 30.616C34.5324 31.8445 36.4473 36.4311 38.0291 38.2329C39.8607 37.7415 40.7765 37.0044 41.7756 36.1853ZM43.2742 30.0427C45.9384 31.7626 50.6007 31.9264 52.5988 34.0559C52.5156 33.8102 52.3491 33.4007 51.7663 32.8274C50.6007 31.8445 48.103 31.435 46.9375 30.4522C45.7719 29.4694 46.1049 28.1589 46.1049 28.1589C46.1049 28.1589 45.6886 29.797 48.6026 30.9436C51.1002 31.9264 52.7653 32.4997 53.4314 33.4826C53.5979 31.6807 51.1002 29.8789 49.8514 28.978C47.0207 26.9304 46.8542 25.4562 48.8523 23.4905C44.7728 23.9 40.3603 28.1589 43.2742 30.0427ZM36.1142 37.0863C35.698 36.2673 35.3649 34.7111 35.2817 34.3016C34.5324 35.2844 33.7831 36.2673 32.5343 37.0044C33.7831 36.1034 34.4491 34.793 35.1984 33.5645C33.8663 34.2197 32.3677 36.1034 31.7017 37.0863C30.9524 38.2329 30.8691 39.7071 30.8691 41.0176C31.6184 38.8881 34.5324 36.7587 36.1142 37.0863ZM53.8477 56.9066C53.7644 56.9066 53.7644 56.9066 53.6811 56.9066C53.5146 56.9066 53.4314 56.9066 53.3481 56.8247H53.2649C52.5156 56.4971 52.8486 55.2686 52.8486 55.2686C52.5988 54.3676 51.8495 56.0057 52.016 56.3333C52.1825 56.6609 53.7644 58.0533 53.7644 58.0533C55.5128 59.6913 58.6765 62.476 56.6783 63.1312C54.597 63.5407 50.8505 64.5235 50.8505 62.476C52.016 61.9846 52.5988 62.3122 53.7644 62.3941C52.2658 61.4931 52.1826 62.1484 49.8514 61.0017C49.6849 60.9198 49.2686 60.2646 49.1854 60.3465C49.1854 60.3465 49.1854 61.0017 49.1854 61.0836C50.2677 68.291 54.93 61.9846 57.7607 65.0149C61.9234 62.1484 65.1704 67.7177 66.5858 60.4284C66.336 60.4284 65.7532 60.9198 65.5867 61.0836C65.3369 61.3293 64.5044 61.6569 64.1713 61.7389C63.3388 61.9027 62.6727 61.9846 62.0067 62.1484L61.6737 62.3122H62.1732C63.2555 62.3122 63.6718 62.1484 64.7541 62.3941C64.2546 64.3597 61.8402 63.7045 59.5923 63.295C58.3435 63.0493 58.0104 62.9674 58.3435 61.9027C58.9262 59.937 60.7579 59.2818 61.9234 58.0533C62.09 57.8894 63.5053 56.579 63.5886 56.3333C63.7551 56.0876 63.0058 54.3676 62.756 55.2686C62.756 55.2686 63.0058 56.0876 62.6727 56.579C61.6737 57.0704 61.5072 56.8247 60.3416 56.6609C58.9262 56.579 58.9262 57.1523 57.8439 57.2342C56.6783 57.3161 56.5118 56.6609 55.3463 56.6609C54.8467 56.7428 54.3472 56.9066 53.8477 56.9066Z" fill="black" stroke="black" stroke-width="2" mask="url(#path-4-inside-1)"/>
<defs>
<filter id="filter0_d" x="0" y="0" width="114" height="114" filterUnits="userSpaceOnUse" color-interpolation-filters="sRGB">
<feFlood flood-opacity="0" result="BackgroundImageFix"/>
<feColorMatrix in="SourceAlpha" type="matrix" values="0 0 0 0 0 0 0 0 0 0 0 0 0 0 0 0 0 0 127 0"/>
<feOffset dy="6"/>
<feGaussianBlur stdDeviation="6"/>
<feColorMatrix type="matrix" values="0 0 0 0 0 0 0 0 0 0 0 0 0 0 0 0 0 0 0.15 0"/>
<feBlend mode="normal" in2="BackgroundImageFix" result="effect1_dropShadow"/>
<feBlend mode="normal" in="SourceGraphic" in2="effect1_dropShadow" result="shape"/>
</filter>
</defs>
</svg>
