<svg width="1600" height="1512" viewBox="0 0 1600 1512" fill="none" xmlns="http://www.w3.org/2000/svg">
<path opacity="0.05" fill-rule="evenodd" clip-rule="evenodd" d="M-216.587 179.236L-214.812 178.212L-214.437 176.812L-212.662 175.788L-210.888 174.764C-207.338 172.715 -205.188 170.292 -201.638 168.243C-195.939 163.771 -188.839 159.674 -181.74 155.577C-168.941 147.008 -154.742 138.813 -140.918 132.019C-133.819 127.922 -127.095 125.224 -119.995 121.127C-112.896 117.03 -106.171 114.332 -97.672 110.61C-82.4482 104.19 -67.5994 99.1701 -52.3757 92.7504C-22.6781 82.7098 8.04438 74.4436 39.4169 69.3513C70.7893 64.259 101.412 61.9655 132.684 62.8457C163.957 63.726 195.88 67.7801 225.277 75.6572L236.476 78.658C237.876 79.0331 240.676 79.7833 242.076 80.1584L247.676 81.6588L258.875 84.6596L264.474 86.16C265.874 86.5351 265.874 86.5351 267.274 86.9102L270.074 87.6604C278.098 91.3103 286.498 93.561 294.522 97.2109C302.546 100.861 310.946 103.111 318.97 106.761C351.443 119.962 384.94 134.937 418.063 151.311C451.185 167.686 484.308 184.06 517.43 200.434C550.553 216.809 585.075 233.558 619.973 248.908C654.87 264.258 689.767 279.608 726.814 292.535C763.862 305.461 799.884 316.613 838.056 325.341C874.828 333.695 913.375 341.024 950.897 346.578C988.419 352.133 1026.69 354.888 1063.56 357.269L1078.31 358.221L1085.69 358.697L1088.86 358.048L1090.26 358.423L1091.66 358.798C1100.81 358.25 1110.98 359.477 1120.13 358.929C1138.43 357.832 1157.76 358.511 1176.05 357.414C1214.05 355.597 1250.65 353.404 1287.62 349.812L1301.34 348.99L1309.09 348.067L1315.44 346.769C1324.59 346.22 1334.12 344.273 1343.27 343.725L1357.36 341.503L1371.46 339.282L1377.81 337.983C1379.59 336.959 1382.76 336.31 1384.16 336.685L1397.24 332.689L1383.51 333.511C1381.74 334.535 1378.94 333.785 1377.16 334.809L1369.41 335.733L1355.69 336.555L1341.97 337.377C1332.82 337.925 1324.04 337.074 1314.89 337.622L1309.94 339.296L1303.59 340.594L1288.85 339.642C1251.6 338.66 1214.73 336.28 1178.23 332.5C1159.28 330.422 1141.73 328.72 1122.78 326.642C1114.01 325.791 1103.83 324.565 1095.06 323.713L1093.66 323.338L1092.26 322.963L1089.46 322.213L1082.46 320.337L1069.49 318.361C1033.74 311.782 998.368 303.804 963.371 294.426C893.376 275.671 825.256 249.92 761.811 217.921C698.366 185.923 638.195 147.302 575.975 105.133C545.377 84.9359 513.379 64.3635 481.382 43.7911C449.384 23.2186 417.012 4.04555 383.239 -15.5026C375.59 -20.552 366.165 -24.577 358.516 -29.6264C350.867 -34.6757 341.442 -38.7008 333.793 -43.7501L329.218 -43.476C327.818 -43.8511 326.418 -44.2262 325.393 -46.0007L318.769 -49.2756L304.12 -56.2004L297.495 -59.4753C294.696 -60.2255 291.896 -60.9757 290.871 -62.7501L275.847 -68.2756C236.375 -83.3516 194.753 -96.004 151.632 -103.059C108.51 -110.114 65.6634 -112.595 23.0918 -110.504C-19.4798 -108.412 -61.4015 -103.147 -102.673 -94.7079C-123.497 -89.7887 -144.32 -84.8694 -163.743 -79.575C-175.042 -76.6033 -184.942 -73.2564 -194.841 -69.9095C-204.74 -66.5626 -214.639 -63.2158 -224.538 -59.8689C-244.337 -53.1752 -263.11 -44.707 -283.658 -35.2145C-293.933 -30.4683 -302.432 -26.7463 -313.081 -20.6007C-318.406 -17.5279 -323.355 -15.8544 -327.28 -12.4065L-330.83 -10.358L-333.629 -11.1082L-335.404 -10.0839L-338.954 -8.0354L-340.729 -7.01113L-342.504 -5.98685L-344.653 -3.56324L-216.587 179.236ZM-162.264 525.256C-162.264 525.256 -161.889 523.857 -160.489 524.232L-160.114 522.832L-159.739 521.433L-157.589 519.009C-155.439 516.586 -153.289 514.162 -149.365 510.714C-143.29 504.843 -137.591 500.37 -131.516 494.499C-119.742 484.155 -107.968 473.812 -94.7944 463.843C-89.0949 459.371 -81.6205 453.874 -75.921 449.402C-68.8216 445.305 -62.7472 439.434 -55.6477 435.336C-42.8488 426.767 -28.65 418.573 -14.4512 410.379C13.5715 395.39 42.6191 382.176 72.6916 370.736C102.389 360.695 133.112 352.429 164.109 348.736C195.107 345.043 227.129 343.125 258.027 345.404L269.601 347.006C271.001 347.381 273.801 348.131 275.575 347.107L281.175 348.607L292.749 350.208L298.349 351.709C299.749 352.084 299.749 352.084 301.149 352.459L303.948 353.209C312.348 355.46 321.122 356.311 329.521 358.562C337.921 360.812 346.695 361.664 355.094 363.914C390.467 371.892 424.064 380.895 460.461 390.647C495.459 400.025 530.081 410.802 566.103 421.954C602.125 433.106 638.523 442.858 674.92 452.611C711.317 462.363 749.489 471.092 787.011 476.646C824.158 483.6 863.455 488.13 902.102 489.487C940.374 492.242 977.996 491.824 1017.39 490.382C1055.39 488.565 1093.76 485.348 1130.73 481.756L1144.83 479.534L1152.58 478.611L1155.76 477.962L1157.16 478.337L1158.93 477.313C1168.46 475.365 1177.98 473.418 1187.13 472.87C1206.18 468.975 1223.45 466.104 1242.5 462.209C1279.2 454.044 1315.89 445.879 1351.57 435.939L1364.64 431.943L1370.99 430.645L1377.71 427.947C1385.84 425.624 1395.74 422.278 1403.86 419.955L1416.94 415.959L1430.38 410.563L1437.11 407.866C1438.88 406.841 1442.06 406.192 1443.83 405.168L1457.28 399.773L1444.21 403.769C1442.43 404.793 1439.26 405.442 1437.86 405.067L1431.51 406.365L1418.44 410.361L1404.34 412.583C1394.81 414.53 1386.69 416.853 1377.54 417.401L1371.19 418.7L1364.84 419.998L1350.74 422.219C1314.79 427.586 1277.82 431.178 1240.85 434.77C1222.55 435.866 1204.25 436.962 1185.58 439.458C1176.43 440.006 1167.28 440.554 1158.13 441.102L1156.73 440.727L1155.33 440.352L1152.16 441.001L1144.78 440.525L1131.43 439.948C1095.59 439.342 1058.34 438.36 1021.84 434.58C949.873 428.795 878.378 415.637 810.534 394.459C742.314 374.679 676.344 346.504 607.949 316.179C574.451 301.204 539.554 285.854 504.282 271.903C469.384 256.553 434.112 242.602 397.065 229.676C387.641 225.651 379.241 223.4 369.442 220.774C359.643 218.149 351.618 214.499 341.819 211.873L337.619 210.748C336.22 210.373 334.82 209.998 333.42 209.622L326.42 207.747L311.022 203.621L302.622 201.37C299.822 200.62 297.023 199.87 294.223 199.12L278.449 196.393C237.102 188.314 193.231 184.058 149.634 184.375C106.038 184.692 64.1159 189.957 22.4692 199.796C-18.8024 208.235 -59.7991 221.247 -98.7459 237.808C-118.919 245.902 -137.693 254.37 -156.466 262.838C-166.74 267.584 -175.615 272.706 -184.489 277.827C-193.363 282.948 -203.637 287.695 -212.511 292.816C-230.26 303.059 -248.383 314.701 -266.507 326.343C-275.756 332.863 -284.63 337.985 -292.48 344.88C-296.404 348.328 -301.729 351.401 -305.654 354.849L-309.203 356.898L-310.978 357.922L-312.753 358.946L-316.678 362.394L-318.453 363.418L-320.227 364.443L-322.002 365.467L-162.264 525.256ZM22.274 799.678C28.3485 793.807 33.023 787.56 38.7225 783.088C50.8715 771.345 62.6455 761.001 74.4195 750.658C99.3674 730.345 125.34 711.807 152.338 695.044C179.336 678.281 208.383 665.066 238.081 655.026C267.778 644.985 298.126 638.118 329.123 634.425L341.447 633.228C342.847 633.603 346.022 632.954 347.422 633.329L353.397 633.43L365.721 632.233L371.695 632.334C373.095 632.709 373.095 632.709 374.87 631.685L378.045 631.035C387.194 630.487 395.968 631.338 405.117 630.79C413.892 631.642 423.041 631.093 431.815 631.945C467.662 632.551 503.135 634.556 539.632 638.336C576.504 640.717 613.001 644.497 649.498 648.277C685.995 652.057 724.267 654.813 762.539 657.569C800.811 660.325 839.833 660.282 877.455 659.864C916.852 658.421 954.849 656.604 992.571 650.213C1029.92 645.222 1068.02 637.432 1104.71 629.267C1141.41 621.102 1177.46 609.763 1213.5 598.424L1226.58 594.428L1233.3 591.73L1236.85 589.681L1238.63 588.657L1240.4 587.633C1248.9 583.911 1257.4 580.189 1267.3 576.842C1284.3 569.398 1302.7 562.329 1319.69 554.885C1353.69 539.997 1387.69 525.11 1422.06 508.822L1434.11 503.052L1440.83 500.354L1447.56 497.656C1456.06 493.934 1463.53 488.438 1472.03 484.716L1484.46 477.546L1496.88 470.376L1502.58 465.904C1504.35 464.88 1506.13 463.856 1508.28 461.432L1519.3 453.887L1507.25 459.657C1505.48 460.682 1503.7 461.706 1500.53 462.355L1493.81 465.053L1481.76 470.823L1468.31 476.219C1459.81 479.941 1451.31 483.663 1443.18 485.985L1436.46 488.683L1429.74 491.381L1416.66 495.377C1382.01 507.091 1345.97 518.43 1310.3 528.369C1292.27 534.039 1274.62 538.309 1256.97 542.579C1247.45 544.527 1239.33 546.849 1229.8 548.797L1228.4 548.421L1226.63 549.446L1223.45 550.095L1217.1 551.393L1204.4 553.99C1168.08 560.756 1132.13 566.122 1096.56 570.089C1024.02 577.648 951.949 577.835 881.754 571.025C810.16 563.84 740.44 549.658 668.296 533.327C632.924 525.349 596.151 516.996 559.004 510.042C521.857 503.088 483.31 495.759 445.788 490.204C435.614 488.978 426.84 488.127 417.04 485.501C406.866 484.275 398.092 483.424 387.918 482.197L385.118 481.447C383.718 481.072 382.318 480.697 380.918 480.322L373.544 479.846L357.395 478.518L350.021 478.042C347.221 477.292 344.046 477.941 342.646 477.566L321.173 479.311C277.951 478.229 234.63 483.119 193.358 491.559C152.086 499.998 109.69 512.635 70.3681 530.596C31.4213 547.157 -5.47569 567.267 -41.7226 590.551C-59.8461 602.193 -76.5697 614.211 -93.2933 626.228C-102.542 632.748 -110.392 639.644 -117.866 645.141C-125.716 652.036 -133.565 658.932 -141.414 665.828C-157.113 679.62 -172.811 693.411 -187.485 708.977C-195.335 715.873 -202.159 724.543 -210.383 732.839C-214.308 736.286 -217.208 741.509 -221.132 744.957L-223.657 748.78L-224.782 752.978L-226.557 754.002L-229.082 757.825L-231.231 760.249L-231.606 761.648L-233.381 762.672L-48.4947 890.204L-48.1198 888.805C-48.1198 888.805 -47.7448 887.405 -47.3699 886.006L-46.9949 884.607L-46.6199 883.207L-44.4702 880.784C-42.3204 878.36 -39.7955 874.537 -39.0456 871.738C-34.371 865.492 -29.6965 859.245 -25.0219 852.998C-15.6728 840.505 -4.92364 828.387 5.82544 816.269C10.125 811.421 16.1995 805.55 22.274 799.678ZM-48.4947 890.204C-48.4947 890.204 -49.8946 889.829 -48.4947 890.204V890.204ZM1581.42 502.029C1579.65 503.053 1577.5 505.477 1575.72 506.501L1570.02 510.973L1559 518.518L1547.98 526.063C1540.5 531.559 1532 535.281 1524.53 540.778L1519.2 543.851L1513.88 546.923L1501.46 554.093C1469.51 572.53 1436.54 589.192 1402.54 604.08C1385.54 611.524 1369.57 620.743 1352.57 628.187C1344.07 631.909 1335.57 635.631 1327.07 639.353L1325.29 640.377L1323.52 641.401L1320.35 642.05L1313.62 644.748L1300.17 650.143C1266.55 663.632 1231.9 675.346 1196.23 685.285C1126.29 705.54 1055.42 718.047 984.647 724.582C912.853 729.342 841.159 728.129 767.04 724.767C730.167 722.387 692.92 721.405 654.273 720.049C617.026 719.068 578.005 719.111 538.983 719.154C529.833 719.702 519.284 719.875 510.135 720.423C500.986 720.971 490.436 721.144 481.287 721.692L478.112 722.342C476.713 721.966 475.313 721.591 474.938 722.991L467.188 723.914L451.69 725.76L443.665 722.11C440.49 722.76 439.09 722.385 435.916 723.034L420.417 724.88C378.12 731.545 336.099 742.783 297.152 759.344C256.805 775.53 218.508 795.265 183.661 818.925C147.414 842.209 114.617 869.417 83.2199 897C67.5213 910.792 52.8476 926.358 38.1738 941.924C31.7244 949.195 23.5001 957.49 17.0507 964.761C10.2263 973.431 3.77683 980.702 -3.04758 989.372C-16.3214 1005.31 -28.5702 1023.03 -40.8191 1040.74C-46.2436 1049.79 -53.068 1058.46 -58.4925 1067.51C-61.3923 1072.73 -63.9171 1076.55 -66.8168 1081.77L-69.3416 1085.6L-69.7165 1087L-70.4665 1089.79L-72.9911 1093.62L-73.7411 1096.42L-74.1161 1097.82L-74.491 1099.22L128.544 1192.61L128.919 1191.21C128.919 1191.21 129.294 1189.81 129.669 1188.42L130.044 1187.02L130.419 1185.62L131.168 1182.82C131.918 1180.02 134.443 1176.2 135.568 1172C138.843 1165.38 142.117 1158.75 145.767 1150.73C152.691 1136.09 160.641 1123.22 168.965 1108.95C173.639 1102.71 177.289 1094.69 181.964 1088.44C186.638 1082.19 191.688 1074.55 196.362 1068.3C205.712 1055.81 215.436 1041.92 226.185 1029.8C246.283 1005.19 268.806 982.724 292.354 962.036C315.902 941.349 341.875 922.811 369.897 907.822C396.52 892.458 426.593 881.018 456.29 870.978L467.589 868.006C469.364 866.981 470.764 867.357 473.939 866.707L480.288 865.409L491.587 862.437L497.937 861.139C499.337 861.514 499.712 860.115 501.112 860.49L504.286 859.841C513.811 857.893 521.56 856.97 531.084 855.022C540.233 854.474 548.358 852.152 557.882 850.204C593.829 844.838 629.402 840.871 664.974 836.904C700.546 832.937 737.143 830.744 775.515 827.527C812.487 823.936 850.484 822.118 887.831 817.127C925.178 812.136 963.925 807.519 1002.02 799.729C1040.12 791.939 1077.19 782.375 1113.24 771.036C1149.28 759.697 1186.08 745.559 1220.08 730.671C1255.48 716.159 1288.45 699.496 1321.8 681.435L1334.22 674.265L1340.94 671.567L1344.49 669.518L1346.27 668.494L1348.04 667.47C1356.92 662.349 1364.02 658.252 1371.49 652.755C1387.46 643.537 1403.81 632.919 1418.39 623.325C1449.31 603.114 1480.61 581.503 1510.5 559.518L1521.9 550.573L1527.6 546.101L1533.3 541.629C1540.78 536.133 1548.25 530.636 1554.7 523.365L1566.1 514.421L1576.1 505.101L1581.8 500.629C1580.3 506.227 1580.67 504.827 1581.42 502.029L1592.82 493.084L1581.42 502.029Z" fill="#8E898F"/>
</svg>
