<svg width="1570" height="1261" viewBox="0 0 1570 1261" fill="none" xmlns="http://www.w3.org/2000/svg">
<path opacity="0.05" fill-rule="evenodd" clip-rule="evenodd" d="M1828.99 370.602L1827.54 369.153V367.705L1826.09 366.256L1824.64 364.807C1821.74 361.91 1820.29 359.012 1817.39 356.115C1813.04 350.32 1807.25 344.525 1801.45 338.73C1791.3 327.14 1779.71 315.55 1768.12 305.409C1762.32 299.614 1756.52 295.268 1750.72 289.473C1744.93 283.678 1739.13 279.332 1731.88 273.537C1718.84 263.396 1705.8 254.704 1692.75 244.562C1666.67 227.178 1639.13 211.242 1610.14 198.203C1581.16 185.164 1552.17 175.023 1521.74 167.78C1491.3 160.536 1459.42 156.19 1428.99 156.19H1417.39C1415.94 156.19 1413.04 156.19 1411.59 156.19H1405.8H1394.2H1388.41C1386.96 156.19 1386.96 156.19 1385.51 156.19H1382.61C1373.91 157.639 1365.22 157.639 1356.52 159.087C1347.83 160.536 1339.13 160.536 1330.43 161.985C1295.65 166.331 1259.42 172.126 1223.19 179.37C1186.96 186.613 1150.72 193.857 1114.49 201.1C1078.26 208.344 1040.58 215.588 1002.9 221.383C965.217 227.178 927.536 232.973 888.406 235.87C849.275 238.767 811.594 240.216 772.464 238.768C734.783 237.319 695.652 234.421 657.971 230.075C620.29 225.729 582.609 218.485 546.377 211.242L531.884 208.344L524.638 206.895L521.739 205.447H520.29H518.841C510.145 202.549 500 201.1 491.304 198.203C473.913 192.408 455.073 188.062 437.681 182.267C401.449 170.677 366.667 159.087 331.884 146.049L318.841 141.702L311.594 138.805L305.797 135.908C297.101 133.01 288.406 128.664 279.71 125.766L266.667 119.972L253.623 114.177L247.826 111.279C246.377 109.83 243.478 108.382 242.029 108.382L230.435 101.138L243.478 105.484C244.928 106.933 247.826 106.933 249.275 108.382L256.522 111.279L269.565 115.625L282.609 119.972C291.304 122.869 300 124.318 308.696 127.215L313.043 130.113L318.841 133.01L333.333 135.908C369.565 144.6 405.797 151.844 442.029 157.639C460.87 160.536 478.261 163.433 497.102 166.331C505.797 167.78 515.942 169.228 524.638 170.677H526.087H527.536H530.435H537.681L550.725 172.126C586.957 175.023 623.188 176.472 659.42 176.472C731.884 176.472 804.348 169.228 873.913 154.741C943.478 140.254 1011.59 118.523 1082.61 93.8943C1117.39 82.3045 1153.62 70.7146 1189.86 59.1248C1226.09 47.5349 1262.32 37.3938 1300 27.2527C1308.7 24.3552 1318.84 22.9065 1327.54 20.009C1336.23 17.1115 1346.38 15.6628 1355.07 12.7653L1359.42 14.2141C1360.87 14.2141 1362.32 14.2141 1363.77 12.7653L1371.01 11.3166L1386.96 8.41914L1394.2 6.97041C1397.1 6.97041 1400 6.97041 1401.45 5.52168L1417.39 4.07295C1459.42 -0.273248 1502.9 -1.72198 1546.38 2.62422C1589.86 6.97041 1631.88 15.6628 1672.46 28.7014C1713.04 41.74 1752.17 57.676 1789.86 76.5096C1808.7 86.6507 1827.54 96.7918 1844.93 106.933C1855.07 112.728 1863.77 118.523 1872.46 124.318C1881.16 130.113 1889.86 135.908 1898.55 141.702C1915.94 153.292 1931.88 166.331 1949.28 180.818C1957.97 188.062 1965.22 193.857 1973.91 202.549C1978.26 206.895 1982.61 209.793 1985.51 214.139L1988.41 217.037H1991.3L1992.75 218.485L1995.65 221.383L1997.1 222.831L1998.55 224.28L2000 227.178L1828.99 370.602ZM1686.96 690.772C1686.96 690.772 1686.96 689.323 1685.51 689.323V687.874V686.426L1684.06 683.528C1682.61 680.631 1681.16 677.733 1678.26 673.387C1673.91 666.143 1669.57 660.349 1665.22 653.105C1656.52 640.066 1647.83 627.028 1637.68 613.989C1633.33 608.194 1627.54 600.951 1623.19 595.156C1617.39 589.361 1613.04 582.117 1607.25 576.322C1597.1 564.732 1585.51 553.142 1573.91 541.552C1550.72 519.822 1526.09 499.539 1500 480.706C1473.91 463.321 1446.38 447.385 1417.39 435.795C1388.41 424.205 1357.97 414.064 1327.54 408.269L1315.94 406.82C1314.49 406.82 1311.59 406.82 1310.14 405.372H1304.35L1292.75 403.923H1286.96C1285.51 403.923 1285.51 403.923 1284.06 403.923H1281.16C1272.46 403.923 1263.77 402.474 1255.07 402.474C1246.38 402.474 1237.68 401.026 1228.99 401.026C1192.75 399.577 1157.97 399.577 1120.29 399.577C1084.06 399.577 1047.83 401.025 1010.14 402.474C972.464 403.923 934.783 403.923 897.101 403.923C859.42 403.923 820.29 402.474 782.609 398.128C744.927 395.231 705.797 389.436 668.116 380.743C630.435 373.5 594.203 363.358 556.522 351.769C520.29 340.179 484.058 327.14 449.275 314.102L436.232 308.307L428.985 305.409L426.087 303.96H424.638L423.188 302.512C414.493 298.166 405.797 293.819 397.102 290.922C379.71 282.229 363.768 274.986 346.377 266.293C313.043 248.909 279.71 231.524 247.826 212.69L236.232 205.447L230.435 202.549L224.638 198.203C217.391 193.857 208.696 188.062 201.449 183.716L189.855 176.472L178.261 167.78L172.464 163.433C171.015 161.985 168.116 160.536 166.667 159.087L155.072 150.395L166.667 157.639C168.116 159.087 171.015 160.536 172.464 160.536L178.261 163.433L189.855 170.677L202.899 176.472C211.594 180.818 218.841 185.164 227.536 188.062L233.333 190.959L239.13 193.857L252.174 199.652C285.507 214.139 320.29 227.178 355.072 240.216C372.464 246.011 389.855 251.806 407.246 259.05C415.942 261.947 424.638 264.845 433.333 267.742H434.783H436.232L439.13 269.191L446.377 270.64L459.42 273.537C494.203 282.229 530.435 290.922 566.667 296.717C637.681 309.755 710.145 315.55 781.159 312.653C852.174 311.204 923.188 301.063 997.102 289.473C1033.33 283.678 1071.01 277.883 1108.7 273.537C1146.38 267.742 1184.06 263.396 1223.19 260.498C1233.33 259.05 1242.03 259.05 1252.17 259.05C1262.32 259.05 1271.01 257.601 1281.16 257.601H1285.51C1286.96 257.601 1288.41 257.601 1289.86 257.601H1297.1H1313.04H1321.74C1324.64 257.601 1327.54 257.601 1330.43 257.601L1346.38 259.05C1388.41 261.947 1431.88 269.191 1473.91 280.781C1515.94 292.371 1555.07 308.307 1592.75 328.589C1630.43 347.422 1666.67 370.602 1700 396.679C1717.39 409.718 1733.33 422.756 1749.28 435.795C1757.97 443.039 1765.22 450.282 1772.46 457.526C1779.71 464.77 1788.41 472.013 1795.65 479.257C1810.14 493.744 1824.64 509.68 1839.13 525.616C1846.38 534.309 1853.62 541.552 1859.42 550.245C1862.32 554.591 1866.67 558.937 1869.57 563.284L1872.46 566.181L1873.91 567.63L1875.36 569.078L1878.26 573.425L1879.71 574.873L1881.16 576.322L1882.61 577.771L1686.96 690.772ZM1437.68 908.082C1433.33 900.838 1430.43 893.594 1426.09 887.799C1417.39 873.312 1408.7 860.273 1400 847.235C1381.16 821.158 1360.87 796.529 1339.13 773.35C1317.39 750.17 1292.75 729.888 1266.67 712.503C1240.58 695.118 1213.04 680.631 1184.06 669.041L1172.46 664.695C1171.01 664.695 1168.12 663.246 1166.67 663.246L1160.87 661.797L1149.28 657.451L1143.48 656.002C1142.03 656.002 1142.03 656.002 1140.58 654.554L1137.68 653.105C1128.99 650.207 1120.29 648.759 1111.59 645.861C1102.9 644.412 1094.2 641.515 1085.51 640.066C1050.72 631.374 1015.94 624.13 979.71 618.335C943.478 611.092 907.246 605.297 871.015 599.502C834.783 593.707 797.101 586.463 759.42 579.22C721.739 571.976 684.058 561.835 647.826 551.694C610.145 540.104 573.913 528.514 539.13 512.578C504.348 498.091 469.565 480.706 436.232 463.321C402.899 445.936 371.015 425.654 339.13 405.372L327.536 398.128L321.739 393.782L318.841 390.884L317.391 389.436L315.942 387.987C308.696 382.192 301.449 376.397 292.754 370.602C278.261 359.012 262.319 347.422 247.826 335.833C218.841 312.653 189.855 289.473 160.87 264.845L150.725 256.152L144.928 251.806L139.13 247.46C131.884 241.665 126.087 234.421 118.841 228.626L108.696 218.485L98.5508 208.344L94.2029 202.549C92.7537 201.1 91.3043 199.652 89.8551 196.754L81.1595 186.613L91.3044 195.306C92.7537 196.754 94.2029 198.203 97.1014 199.652L102.899 203.998L113.044 212.69L124.638 221.383C131.884 227.178 139.13 232.973 146.377 237.319L152.174 241.665L157.971 246.011L169.565 253.255C200 273.537 231.884 293.819 263.768 312.653C279.71 322.794 295.652 331.486 311.594 340.179C320.29 344.525 327.536 348.871 336.232 353.217H337.681L339.13 354.666L342.029 356.115L347.826 359.012L359.42 364.807C392.754 380.743 426.087 395.231 459.42 408.269C527.536 434.346 597.101 453.18 666.667 464.77C737.681 476.36 808.696 480.706 882.609 483.603C918.841 485.052 956.522 486.501 994.203 489.398C1031.88 492.296 1071.01 495.193 1108.7 499.539C1118.84 500.988 1127.54 502.437 1137.68 502.437C1147.83 503.885 1156.52 505.334 1166.67 506.783H1169.57C1171.01 506.783 1172.46 506.783 1173.91 506.783L1181.16 508.232L1197.1 511.129L1204.35 512.578C1207.25 512.578 1210.14 514.027 1211.59 514.027L1231.88 521.27C1273.91 531.411 1314.49 547.347 1352.17 566.181C1389.86 585.014 1427.54 608.194 1460.87 635.72C1494.2 661.797 1524.64 690.772 1553.62 722.644C1568.12 738.58 1581.16 754.516 1594.2 770.452C1601.45 779.145 1607.25 787.837 1613.04 795.081C1618.84 803.773 1624.64 812.465 1630.43 821.158C1642.03 838.543 1653.62 855.927 1663.77 874.761C1669.57 883.453 1673.91 893.594 1679.71 903.736C1682.61 908.082 1684.06 913.877 1686.96 918.223L1688.41 922.569V926.915L1689.86 928.364L1691.3 932.71L1692.75 935.608V937.056L1694.2 938.505L1482.61 1013.84V1012.39C1482.61 1012.39 1482.61 1010.94 1482.61 1009.49V1008.04V1006.6L1481.16 1003.7C1479.71 1000.8 1478.26 996.454 1478.26 993.557C1475.36 986.313 1472.46 979.07 1469.57 971.826C1463.77 957.339 1456.52 942.851 1449.28 928.364C1446.38 922.569 1442.03 915.325 1437.68 908.082ZM1482.61 1013.84C1482.61 1013.84 1484.06 1013.84 1482.61 1013.84V1013.84ZM8.6958 217.037C10.145 218.485 11.5942 221.383 13.0435 222.831L17.3912 228.626L26.087 238.768L34.7826 248.909C40.5797 256.152 47.826 261.947 53.6232 269.191L57.9711 273.537L62.3188 277.883L72.4639 288.024C98.5508 314.102 126.087 338.73 155.072 361.91C169.565 373.5 182.609 386.538 197.101 398.128C204.348 403.923 211.594 409.718 218.841 415.513L220.29 416.962L221.739 418.41L224.638 419.859L230.435 424.205L242.029 432.898C271.015 454.629 301.449 474.911 333.333 493.744C395.652 531.411 460.87 561.835 527.536 586.463C595.652 609.643 665.217 627.028 737.681 642.964C773.913 650.207 810.145 658.9 847.826 667.592C884.058 676.285 921.739 686.426 959.42 696.567C968.116 699.464 978.261 702.362 986.957 705.259C995.652 708.157 1005.8 711.054 1014.49 713.952L1017.39 715.4C1018.84 715.4 1020.29 715.4 1020.29 716.849L1027.54 719.747L1042.03 725.541L1050.72 724.093C1053.62 725.541 1055.07 725.542 1057.97 726.99L1072.46 732.785C1111.59 750.17 1149.28 771.901 1182.61 797.978C1217.39 824.055 1249.28 853.03 1276.81 884.902C1305.8 916.774 1330.43 951.544 1353.62 986.313C1365.22 1003.7 1375.36 1022.53 1385.51 1041.36C1389.86 1050.06 1395.65 1060.2 1400 1068.89C1404.35 1079.03 1408.7 1087.72 1413.04 1097.87C1421.74 1116.7 1428.99 1136.98 1436.23 1157.26C1439.13 1167.4 1443.48 1177.55 1446.38 1187.69C1447.83 1193.48 1449.28 1197.83 1450.72 1203.62L1452.17 1207.97V1209.42V1212.32L1453.62 1216.66V1219.56V1221.01V1222.46L1233.33 1260.12V1258.67C1233.33 1258.67 1233.33 1257.23 1233.33 1255.78V1254.33V1252.88V1249.98C1233.33 1247.09 1231.88 1242.74 1231.88 1238.39C1230.43 1231.15 1228.99 1223.91 1227.54 1215.21C1224.64 1199.28 1220.29 1184.79 1215.94 1168.85C1213.04 1161.61 1211.59 1152.92 1208.7 1145.67C1205.8 1138.43 1202.9 1129.74 1200 1122.49C1194.2 1108.01 1188.41 1092.07 1181.16 1077.58C1168.12 1048.61 1152.17 1021.08 1134.78 995.006C1117.39 968.928 1097.1 944.3 1073.91 922.569C1052.17 900.838 1026.09 882.005 1000 864.62L989.855 858.825C988.406 857.376 986.957 857.376 984.058 855.927L978.261 853.03L968.116 847.235L962.319 844.337C960.87 844.337 960.87 842.889 959.42 842.889L956.522 841.44C947.826 837.094 940.58 834.196 931.884 829.85C923.188 826.953 915.942 822.607 907.246 818.26C873.913 803.773 840.58 790.734 807.246 777.696C773.913 764.657 739.13 753.067 702.899 740.029C668.116 726.99 631.884 715.4 597.101 700.913C562.319 686.426 526.087 671.938 491.304 654.554C456.522 637.169 423.188 618.335 391.304 598.053C359.42 577.771 327.536 554.591 298.551 531.411C268.116 508.232 240.58 483.603 213.043 457.526L202.899 447.385L197.101 443.039L194.203 440.141L192.754 438.693L191.304 437.244C184.058 430 178.261 424.205 172.464 416.962C159.42 403.923 146.377 389.436 134.783 376.397C110.145 348.871 85.5072 319.897 62.3188 290.922L53.6232 279.332L49.2754 273.537L44.9276 267.742C39.1305 260.498 33.3334 253.255 28.9856 244.562L20.2898 232.973L13.0435 221.383L8.6958 215.588C8.6958 221.383 8.6958 219.934 8.6958 217.037L0 205.447L8.6958 217.037Z" fill="#8E898F"/>
</svg>
