<svg width="787" height="917" viewBox="0 0 787 917" fill="none" xmlns="http://www.w3.org/2000/svg">
<g opacity="0.3">
<path d="M193.191 300.695L199.234 295.871L198.026 300.695C176.268 344.114 188.356 412.86 214.948 452.661C227.036 470.752 229.453 480.4 253.628 468.34C254.837 468.34 254.837 467.133 254.837 469.546C253.628 473.164 252.419 475.576 252.419 479.194C251.211 500.904 242.749 514.17 250.002 540.704C254.837 560.001 276.594 575.68 298.352 578.092L305.604 580.505H295.934C260.881 580.505 235.497 556.383 227.036 531.056C207.696 470.752 212.531 493.667 198.026 462.309C177.477 420.096 158.137 338.083 193.191 300.695Z" fill="url(#paint0_linear)"/>
<path d="M330.988 721.616C314.065 724.028 315.274 709.555 305.604 698.7C292.308 681.815 292.308 656.487 317.692 656.487C311.648 669.754 308.022 678.197 317.692 691.464C328.57 704.731 324.944 710.761 330.988 721.616Z" fill="url(#paint1_linear)"/>
<path d="M479.664 698.7C469.994 709.555 471.202 722.822 454.28 721.616C460.324 711.967 456.697 705.937 467.576 691.464C477.246 678.197 473.62 670.96 467.576 656.487C491.751 656.487 491.751 681.815 479.664 698.7Z" fill="url(#paint2_linear)"/>
<path d="M463.95 839.811C467.576 842.223 472.411 848.254 473.62 851.872C450.654 875.993 422.853 898.909 395.051 917C369.668 900.115 338.24 879.612 321.318 857.902C317.692 854.284 315.274 851.872 317.692 848.254C328.57 832.575 330.988 831.369 341.867 814.483C346.702 809.659 346.702 804.835 352.745 796.392C363.624 806.041 375.711 813.277 385.381 825.338C387.799 828.956 390.216 833.781 393.843 836.193C408.348 818.102 418.018 809.659 437.358 795.186C447.027 803.629 439.775 809.659 433.731 818.102L413.183 843.429C416.809 842.223 415.6 843.429 418.018 841.017C428.896 833.781 440.984 825.338 449.445 816.896L450.654 818.102C450.654 821.72 460.324 822.926 453.071 833.781C444.61 845.842 433.731 857.902 424.061 868.757L411.974 883.23C427.688 872.375 461.532 842.223 463.95 839.811Z" fill="url(#paint3_linear)"/>
<path d="M129.127 621.511L61.4373 686.639C52.9761 678.197 42.0974 634.778 40.8887 621.511C33.6362 586.535 34.8449 544.322 51.7674 510.552C56.6024 500.904 65.0635 500.904 85.6122 494.873C141.215 475.576 133.962 473.164 155.72 455.073C152.093 474.37 150.885 503.316 141.215 521.407C138.797 527.437 135.171 533.468 132.753 538.292C147.258 527.437 166.598 486.431 171.433 471.958C172.642 465.927 173.851 463.515 173.851 462.309C173.851 461.103 178.686 470.752 179.895 474.37C184.73 490.049 176.268 504.522 170.224 520.201C165.389 531.055 159.346 540.704 153.302 551.559L132.753 580.505L152.093 561.207C166.598 544.322 173.851 533.468 183.521 514.17C185.938 509.346 187.147 502.11 189.564 499.698C204.069 516.583 196.817 533.468 188.356 550.353C175.059 575.68 152.093 601.008 129.127 621.511Z" fill="url(#paint4_linear)"/>
<path d="M339.449 784.332C334.614 801.217 323.735 816.896 312.857 831.369C292.308 859.108 298.352 848.254 287.473 877.2C269.342 869.963 239.123 843.429 228.244 832.575C217.366 821.72 207.696 806.041 201.652 792.774C195.608 779.507 198.026 781.919 205.278 771.065C216.157 756.592 220.992 745.737 227.036 727.646C235.497 732.47 245.167 739.707 256.046 743.325C259.672 730.058 268.133 721.616 274.177 710.761C274.177 711.967 274.177 710.761 275.386 713.173C275.386 714.379 276.594 714.379 276.594 715.585C288.682 737.295 291.099 732.47 287.473 756.592C285.056 774.683 277.803 790.362 274.177 806.041C282.638 797.598 297.143 766.24 301.978 752.974C309.23 759.004 306.813 757.798 312.857 761.416C311.648 775.889 299.56 807.247 292.308 821.72C289.89 826.544 283.847 836.193 282.638 841.017L283.847 839.811C299.56 824.132 322.527 777.095 324.944 774.683C330.988 777.095 334.614 780.713 339.449 784.332Z" fill="url(#paint5_linear)"/>
<path d="M426.479 711.967C430.105 719.203 430.105 716.791 428.896 722.822C426.479 733.676 424.061 742.119 416.809 750.561C414.391 754.18 409.556 760.21 408.348 763.828L413.183 760.21C414.391 757.798 415.6 757.798 416.809 755.386C426.479 743.325 433.731 727.646 434.94 726.44C437.358 727.646 439.775 731.264 440.984 732.47C443.401 736.089 443.401 736.089 440.984 739.707C432.523 755.386 425.27 769.859 409.556 780.713C413.183 779.507 418.018 774.683 421.644 772.271C437.358 761.416 447.027 744.531 449.445 742.119C455.489 748.149 455.489 746.943 454.28 751.768C448.236 768.653 413.183 795.186 392.634 806.041C386.59 803.629 353.954 779.507 349.119 775.889C344.284 771.065 328.57 754.18 330.988 748.149L343.075 736.089C346.702 732.47 350.328 728.852 353.954 724.028C359.998 716.791 361.207 710.761 363.624 709.555C364.833 710.761 369.668 714.379 370.876 715.585C378.129 719.203 391.425 730.058 392.634 732.47L393.843 733.676L399.886 726.44C407.139 719.203 416.809 715.585 424.061 709.555L426.479 711.967Z" fill="url(#paint6_linear)"/>
<path d="M162.972 802.423L153.302 793.98C121.875 763.828 101.326 726.44 97.6997 685.433C96.491 668.548 96.491 668.548 107.37 658.9L147.258 623.923C150.885 628.748 153.302 640.808 155.72 646.839C165.39 669.754 167.807 666.136 164.181 698.7C162.972 707.143 160.554 716.791 159.346 724.028C167.807 710.761 171.433 699.906 177.477 685.433C185.938 693.876 183.521 692.67 182.312 703.524C178.686 738.501 169.016 754.18 167.807 765.034C169.016 761.416 179.894 745.737 183.521 738.501C187.147 732.47 193.191 711.967 196.817 708.349C202.861 711.967 201.652 715.585 208.904 717.997C204.07 752.974 179.895 773.477 162.972 802.423Z" fill="url(#paint7_linear)"/>
<path d="M300.769 359.793C301.978 335.671 298.352 335.671 304.395 321.198C309.23 310.343 311.648 301.901 323.735 299.489C324.944 307.931 322.527 315.168 317.692 321.198C306.813 339.289 304.395 336.877 306.813 359.793C308.022 363.411 308.022 368.235 309.23 371.853C310.439 376.678 311.648 376.678 312.857 381.502C310.439 381.502 308.022 380.296 305.604 380.296C306.813 383.914 305.604 379.09 308.022 383.914C309.23 386.326 309.23 387.532 309.23 389.945C309.23 394.769 308.022 397.181 308.022 400.799C309.23 402.005 310.439 402.005 311.648 403.211C323.735 410.448 297.143 459.897 294.725 463.515C292.308 444.218 303.187 443.012 303.187 420.096C303.187 411.654 303.187 411.654 294.725 411.654C295.934 406.83 300.769 398.387 293.517 393.563C283.847 387.532 271.759 402.005 239.123 375.472C236.706 376.678 235.497 376.678 233.079 377.884L212.531 380.296H211.322H210.113C212.531 376.678 224.618 373.059 231.871 368.235C243.958 360.999 243.958 345.32 276.594 351.35C295.934 354.968 294.725 359.793 300.769 359.793Z" fill="url(#paint8_linear)"/>
<path d="M474.829 581.711L482.081 579.299C505.047 575.68 525.596 561.207 531.64 543.116C538.892 516.583 530.431 503.316 529.222 481.606C528.014 477.988 528.013 475.576 526.805 471.958C525.596 469.546 526.805 469.546 528.013 470.752C550.98 482.812 554.606 473.164 566.693 455.073C594.495 415.272 605.373 346.526 583.616 303.107L581.198 297.077L587.242 301.901C622.296 340.495 601.747 421.303 582.407 463.515C567.902 494.873 571.529 473.164 553.397 532.262C546.145 557.589 520.761 581.711 484.499 581.711H474.829Z" fill="url(#paint9_linear)"/>
<path d="M621.087 643.221C611.417 668.548 569.111 721.616 541.31 731.264C467.576 652.869 538.892 645.633 559.441 567.238C566.693 545.528 571.528 517.789 576.363 514.17C579.99 543.116 587.242 526.231 584.825 580.505C583.616 622.717 571.528 631.16 569.111 651.663C581.198 634.778 595.703 594.978 598.121 572.062C600.538 572.062 605.373 579.299 606.582 581.711C609 587.741 598.121 628.748 595.703 635.984C588.451 660.106 582.407 669.754 570.32 690.258C586.033 676.991 601.747 646.839 607.791 631.16C610.208 623.923 612.626 614.275 616.252 607.038C631.966 616.687 625.922 628.748 621.087 643.221Z" fill="url(#paint10_linear)"/>
<path d="M638.01 629.954C645.262 632.366 658.558 645.633 659.767 651.663C665.811 689.052 659.767 719.203 650.097 752.974C658.558 736.089 662.184 736.089 668.228 711.967C673.063 695.082 674.272 678.197 675.481 661.312C693.612 672.167 691.194 679.403 688.777 701.112C681.524 761.416 631.966 796.392 627.131 807.247C622.296 804.835 601.747 773.477 596.912 767.447C588.451 754.18 581.198 739.707 578.781 722.822C600.538 716.791 638.01 648.045 638.01 629.954Z" fill="url(#paint11_linear)"/>
<path d="M89.2385 268.131C86.821 270.543 84.4036 274.161 81.9861 276.573C78.3599 278.985 75.9423 280.192 73.5248 285.016L102.535 276.573C102.535 285.016 90.4473 304.313 81.9861 312.756C80.7774 313.962 79.5685 313.962 79.5685 315.168C78.3597 316.374 79.5685 316.374 78.3597 317.58C90.4472 310.343 97.6997 300.695 104.952 292.252C106.161 291.046 109.787 286.222 110.996 283.81C113.413 289.84 102.535 315.168 94.0736 324.816C75.9424 338.083 62.6461 348.938 46.9324 364.617C38.4712 373.059 25.175 388.738 22.7575 399.593C22.7575 400.799 22.7575 402.005 21.5487 403.211C4.62626 374.266 4.62626 319.992 22.7575 293.458C27.5924 287.428 37.2623 276.573 44.5148 270.543C62.646 257.276 74.7335 253.658 89.2385 253.658C91.656 253.658 95.2822 256.07 96.491 258.482C94.0735 262.1 90.4472 265.719 89.2385 268.131Z" fill="url(#paint12_linear)"/>
<path d="M541.311 204.21C547.354 209.034 553.398 213.858 559.441 219.888C589.66 252.452 613.835 270.543 615.043 270.543C577.572 231.948 576.363 210.239 526.805 189.736C552.188 192.148 590.868 194.56 621.087 254.864C633.174 277.779 644.053 297.077 667.019 305.519L670.646 307.931L664.602 309.137C606.582 313.962 588.451 294.664 564.276 268.131C554.606 257.276 540.101 244.009 528.013 236.773C508.674 225.918 478.455 223.506 455.489 228.33C466.367 194.56 506.256 181.293 541.31 204.209L541.311 204.21Z" fill="url(#paint13_linear)"/>
<path d="M150.885 423.715C150.885 433.363 149.676 435.775 144.841 444.218C117.04 484.019 56.6024 479.194 11.8787 510.552C2.20876 461.103 20.3399 410.448 49.3498 374.266C56.6023 365.823 71.1074 351.35 81.9861 345.32C95.2823 336.877 91.656 335.671 113.413 334.465C129.127 333.259 141.215 332.053 155.72 329.641C152.093 336.877 141.215 348.938 136.38 354.968C132.753 359.793 129.127 363.411 125.501 367.029C120.666 371.853 117.04 373.059 113.413 377.884L149.676 375.472C147.258 388.738 125.501 416.478 113.413 426.127L109.787 429.745C97.6997 441.806 143.632 403.211 146.05 400.799C148.467 398.387 154.511 391.151 155.72 388.738C155.72 399.593 135.171 435.775 121.875 447.836L104.952 462.309C147.258 435.775 140.006 432.157 150.885 423.715Z" fill="url(#paint14_linear)"/>
<path d="M728.665 368.235C764.928 406.83 781.85 459.897 772.18 509.346C768.554 508.14 766.137 505.728 761.302 499.698C732.292 482.812 696.029 480.4 660.976 463.515C646.471 456.279 627.131 439.394 624.713 426.127C623.504 416.478 633.174 383.914 629.548 370.647C647.68 373.059 647.679 373.059 665.811 374.266C664.602 371.853 662.184 370.647 659.767 368.235C648.888 360.999 651.306 363.411 641.636 352.556C636.801 347.732 623.505 333.259 621.087 327.229C627.131 328.435 631.966 328.435 638.01 329.641C647.68 330.847 680.316 352.556 688.777 359.793C693.612 364.617 699.656 369.441 704.491 374.266C709.326 379.09 714.161 385.12 718.995 391.151C732.292 410.448 743.17 428.539 749.214 450.248C748.005 422.509 720.204 376.678 696.029 356.174C689.986 351.35 687.568 347.732 681.524 344.114L667.019 333.259C667.019 332.502 666.543 332.22 666.189 332.115C666.064 332.095 665.938 332.074 665.811 332.053C665.811 332.053 665.978 332.053 666.189 332.115C680.338 334.424 681.662 332.148 697.238 342.908C711.743 352.556 716.578 356.174 728.665 368.235Z" fill="url(#paint15_linear)"/>
<path d="M471.202 362.205C473.62 339.289 471.202 342.908 460.324 323.61C456.697 317.58 453.071 310.343 453.071 303.107C466.367 304.313 468.785 312.756 473.62 323.61C480.872 338.083 476.037 336.877 477.246 362.205C483.29 362.205 482.081 357.38 501.421 353.762C534.057 346.526 535.266 363.411 546.145 370.647C553.397 375.472 565.485 379.09 567.902 382.708H566.693H565.485L544.936 380.296C542.518 379.09 541.31 379.09 538.892 377.884C506.256 404.417 494.169 389.945 484.499 395.975C477.246 399.593 482.081 408.036 483.29 414.066C474.829 414.066 474.829 414.066 474.829 422.509C474.829 446.63 485.707 447.836 483.29 465.927C480.872 462.309 454.28 412.86 466.367 405.624C467.576 404.417 468.785 404.417 469.994 403.211C469.994 399.593 468.785 395.975 468.785 392.357C468.785 389.945 468.785 388.738 469.994 386.326C472.411 381.502 471.202 386.326 472.411 382.708C469.994 381.502 467.576 382.708 465.159 383.914C465.159 379.09 467.576 379.09 468.785 374.266C469.994 370.647 469.994 367.029 471.202 362.205Z" fill="url(#paint16_linear)"/>
<path d="M433.731 211.445C385.382 219.888 396.26 282.604 389.008 300.695C378.129 277.779 395.051 222.3 344.284 213.857C367.25 205.415 372.085 203.003 390.216 193.354C408.348 201.797 408.348 206.621 433.731 211.445Z" fill="url(#paint17_linear)"/>
<path d="M740.753 638.396C737.127 649.251 728.665 676.991 722.622 684.227C718.996 681.815 714.161 674.579 712.952 673.373L665.811 629.954C657.349 622.717 628.34 592.565 621.087 584.123C606.582 567.238 599.33 546.735 593.286 522.613C590.868 515.377 590.868 511.758 590.868 508.14C594.495 503.316 596.912 498.491 599.33 492.461C604.165 480.4 610.208 467.133 613.835 451.454C625.922 459.897 630.757 464.721 650.097 476.782C653.723 479.194 654.932 480.4 668.228 499.698C675.481 510.552 682.733 521.407 687.568 534.674C692.403 546.734 699.656 575.68 699.656 576.886C699.656 550.353 693.612 529.849 683.942 505.728L676.689 491.255C674.272 486.431 675.481 490.049 674.272 485.225C696.029 492.461 689.986 486.431 699.656 505.728C705.699 515.377 710.534 526.231 714.161 537.086C726.248 569.65 723.831 574.474 728.665 603.42L729.874 608.244C732.292 572.062 726.248 526.231 711.743 494.873C733.5 499.698 734.709 505.728 741.962 529.849C751.632 564.826 749.214 603.42 740.753 638.396Z" fill="url(#paint18_linear)"/>
<path d="M160.555 254.864C190.773 194.56 229.453 192.148 254.837 189.736C206.487 209.033 204.069 231.948 167.807 270.543C167.807 270.543 190.773 253.658 222.201 219.888C228.244 212.651 234.288 207.827 240.332 204.209C276.594 181.293 315.274 194.56 326.153 228.33C303.187 222.3 272.968 225.918 253.628 236.773C241.541 242.803 227.036 257.276 217.366 268.131C193.191 293.458 175.06 313.962 117.04 309.137L110.996 307.931L114.622 305.519C137.588 297.077 148.467 277.779 160.555 254.864Z" fill="url(#paint19_linear)"/>
<path d="M217.366 709.555C193.191 689.052 172.642 657.694 162.972 628.748C158.137 613.069 156.928 614.275 159.346 607.038C176.268 590.153 191.982 567.238 199.234 546.734C200.443 544.322 201.652 541.91 201.652 539.498L207.696 525.025C210.113 527.437 216.157 540.704 222.201 556.383C222.201 557.589 223.409 560.001 224.618 562.413C225.827 564.826 207.696 602.214 208.904 603.42C210.113 604.626 228.244 570.856 229.453 573.268C231.871 579.299 234.288 585.329 236.706 590.153C242.749 603.42 246.376 613.069 246.376 614.275C239.123 631.16 231.871 642.015 229.453 650.457C233.079 648.045 231.871 649.251 235.497 643.221L248.793 622.717C252.419 633.572 254.837 644.427 260.881 652.869C256.046 666.136 256.046 669.754 245.167 684.227C252.419 680.609 264.507 666.136 268.133 660.106C293.517 685.433 271.759 685.433 251.211 720.41L245.167 728.852C234.288 721.616 227.036 717.997 217.366 709.555Z" fill="url(#paint20_linear)"/>
<path d="M456.698 86.0132C456.698 86.0132 451.862 116.165 430.105 136.668C418.018 148.729 415.6 168.026 414.391 183.705C409.556 172.851 404.721 166.82 409.556 146.317C416.809 116.165 439.775 82.395 439.775 55.8613C439.775 30.5337 425.27 28.1215 418.018 17.2668C440.984 18.4729 467.576 30.5337 476.037 41.3884C503.839 75.1585 473.62 114.959 449.445 143.905C422.853 175.263 425.27 180.087 424.061 186.118C422.853 178.881 421.644 170.439 424.061 158.378C428.896 136.668 445.819 131.844 451.862 110.135C457.906 88.4254 456.698 86.0132 456.698 86.0132Z" fill="url(#paint21_linear)"/>
<path d="M647.679 152.347C623.504 146.317 577.572 176.469 538.892 177.675C541.31 171.645 555.815 164.408 565.485 159.584C629.548 129.432 720.204 124.608 703.282 198.178C699.656 215.063 686.359 242.803 675.481 254.864C642.845 251.246 598.121 206.621 579.99 184.911C604.165 186.118 605.373 177.675 623.505 174.057L615.043 190.942C627.131 194.56 638.009 195.766 653.723 194.56C650.097 213.857 628.34 204.209 644.053 222.3C687.568 227.124 685.151 163.202 647.679 152.347Z" fill="url(#paint22_linear)"/>
<path d="M558.232 838.605C544.936 851.872 520.761 873.581 501.421 882.024C492.96 845.842 461.532 827.75 448.236 793.98C445.819 786.744 453.071 781.919 463.95 775.889C468.785 773.477 469.994 771.065 473.62 767.447L478.455 762.622L483.29 757.798C502.63 737.295 507.465 719.203 511.091 716.791C517.135 724.028 528.014 737.295 531.64 746.943C542.519 742.119 555.815 732.47 560.65 731.264C560.65 743.325 548.562 773.477 541.31 785.538C538.892 789.156 532.849 797.598 531.64 801.217L532.848 800.011C543.727 792.774 563.067 762.622 567.902 752.974C586.033 768.653 541.31 826.544 530.431 839.811C535.266 837.399 535.266 837.399 538.892 833.781C548.562 825.338 550.98 824.132 560.65 812.071C566.693 804.835 581.198 787.95 582.407 778.301C586.033 780.713 584.825 779.507 587.242 781.919C595.703 792.774 564.276 832.575 558.232 838.605Z" fill="url(#paint23_linear)"/>
<path d="M350.328 158.378C352.745 170.439 351.537 180.087 350.328 186.118C349.119 180.087 351.536 175.263 324.944 143.905C300.769 114.959 270.55 75.1585 298.352 41.3884C306.813 31.7398 333.405 18.4729 356.372 17.2668C349.119 28.1215 334.614 31.7398 334.614 55.8613C334.614 83.6011 357.58 116.165 364.833 146.317C369.668 168.026 364.833 174.057 359.998 183.705C359.998 168.026 356.371 148.729 344.284 136.668C322.527 116.165 317.692 86.0132 317.692 86.0132C317.692 86.0132 316.483 88.4254 322.527 110.135C328.57 131.844 345.493 136.668 350.328 158.378Z" fill="url(#paint24_linear)"/>
<path d="M381.755 105.31V119.783C375.711 104.104 368.459 78.7768 367.25 69.1281C361.207 40.1823 364.833 17.2668 385.381 4C421.644 24.5033 404.721 78.7767 391.425 117.371C387.799 92.0436 385.381 61.8917 385.381 61.8917C385.381 61.8917 382.964 84.8071 381.755 105.31Z" fill="url(#paint25_linear)"/>
<path d="M725.039 259.688C734.709 262.1 735.918 260.894 745.588 269.337C754.049 277.779 756.467 280.192 767.345 289.84C789.103 318.786 790.312 370.647 773.389 403.211C772.18 403.211 756.467 375.472 750.423 368.235C729.874 344.114 698.447 324.816 685.151 317.58C686.359 311.55 687.568 305.519 687.568 299.489C687.568 292.252 685.151 286.222 685.151 280.192C697.238 283.81 708.117 286.222 720.204 288.634C718.996 286.222 717.787 285.016 716.578 283.81L716.578 283.81C709.326 277.779 710.534 278.985 705.699 270.543C703.282 266.925 696.029 254.864 694.821 251.246C699.656 252.452 702.073 253.658 706.908 254.864C712.952 257.276 732.292 274.161 737.127 280.192C739.544 283.81 743.17 288.634 745.588 292.252C748.005 295.871 750.423 300.695 752.84 305.519C758.884 319.992 763.719 333.259 764.928 348.938C767.345 329.641 756.467 295.871 741.962 278.985C738.335 275.367 737.127 272.955 733.5 269.337L725.039 260.894V259.688Z" fill="url(#paint26_linear)"/>
<path d="M704.491 241.597C710.534 230.742 715.369 206.621 716.578 200.59C727.457 215.063 738.336 229.536 756.467 239.185C738.336 224.712 728.665 206.621 717.787 188.53C737.127 198.178 758.884 225.918 768.554 240.391C779.433 258.482 780.642 278.986 780.642 298.283C769.763 268.131 727.457 236.773 704.491 241.597Z" fill="url(#paint27_linear)"/>
<path d="M444.61 189.736C442.193 163.202 478.455 136.668 496.586 123.402C537.684 93.2497 540.101 71.5403 509.882 42.5945C570.32 48.6248 634.383 111.341 592.077 139.081C553.397 164.408 485.707 166.82 456.698 198.178C457.906 193.354 460.324 187.324 468.785 180.087C485.707 165.614 521.97 159.584 538.892 145.111C555.815 129.432 550.98 111.341 550.98 111.341C550.98 111.341 555.815 136.668 514.717 152.347C478.455 166.82 454.28 176.469 444.61 189.736Z" fill="url(#paint28_linear)"/>
<path d="M188.356 199.384L159.346 229.536C144.841 241.597 131.545 252.452 104.952 259.688C81.986 233.155 54.1848 165.614 97.6997 147.523C154.511 123.402 206.487 165.614 253.628 182.499C219.783 189.736 147.258 137.875 118.248 160.79C108.578 168.026 96.491 187.324 101.326 203.003C106.161 216.269 125.501 235.567 138.797 218.682C137.588 204.209 126.71 215.063 124.292 198.178C138.797 199.384 149.676 198.178 161.763 194.56L153.302 177.675C173.851 181.293 171.433 188.53 198.026 188.53C194.4 195.766 194.399 194.56 188.356 199.384Z" fill="url(#paint29_linear)"/>
<path d="M316.483 198.178C287.473 166.82 219.783 164.408 181.103 139.081C138.797 111.341 202.861 48.6248 262.089 42.5945C233.079 71.5403 235.497 93.2497 276.594 123.402C294.725 136.668 330.988 163.202 328.57 189.736C318.9 175.263 294.725 166.82 258.463 152.347C216.157 135.462 222.201 111.341 222.201 111.341C222.201 111.341 217.366 130.638 234.288 145.111C251.211 159.584 287.473 165.614 304.395 180.087C312.857 188.53 315.274 194.56 316.483 198.178Z" fill="url(#paint30_linear)"/>
<path d="M65.0636 201.797C66.2724 207.827 71.1074 230.742 77.1511 242.803C54.1849 237.979 11.8787 269.337 1 300.695C1 281.398 2.20871 259.688 13.0874 242.803C22.7574 228.33 44.5149 200.59 63.8549 190.942C52.9762 209.033 43.3062 228.33 25.175 241.597C43.3062 230.742 54.1849 216.269 65.0636 201.797Z" fill="url(#paint31_linear)"/>
<path d="M332.197 534.674H334.614C341.867 534.674 349.119 532.262 356.372 531.056C373.294 531.056 375.711 540.704 392.634 539.498C408.348 538.292 408.348 529.849 428.896 531.056C445.819 533.468 448.236 537.086 462.741 529.849C467.576 522.613 463.95 510.552 463.95 510.552C467.576 497.285 478.455 522.613 476.037 526.231C474.829 529.849 454.28 549.147 451.862 551.559C434.94 569.65 408.348 579.299 399.886 608.244C395.051 623.923 399.886 625.13 418.018 628.748C450.654 634.778 485.707 644.427 492.96 615.481C477.246 611.863 471.202 614.275 455.489 614.275H448.236L453.071 611.863C462.741 609.451 472.411 608.244 484.499 605.832C489.334 604.626 501.421 599.802 505.047 596.184C507.465 593.771 515.926 586.535 519.552 586.535C499.004 693.876 451.863 611.863 391.425 654.075C350.328 609.451 282.638 702.318 266.924 596.184V585.329C268.133 584.123 274.177 593.772 276.594 594.978C310.439 611.863 311.648 602.214 333.405 615.481C316.483 614.275 308.022 609.451 291.099 616.687C291.099 646.839 345.493 632.366 375.711 626.336C404.721 616.687 358.789 575.68 333.405 551.559C333.405 551.559 310.439 531.055 308.022 526.231C305.604 521.407 316.483 497.285 320.109 510.552C320.109 510.552 315.274 528.643 326.153 533.468H327.362C328.57 534.674 329.779 534.674 332.197 534.674Z" fill="url(#paint32_linear)"/>
</g>
<mask id="mask0" mask-type="alpha" maskUnits="userSpaceOnUse" x="0" y="0" width="787" height="917">
<path opacity="0.3" fill-rule="evenodd" clip-rule="evenodd" d="M382.212 101.748V116.283C376.145 100.536 368.865 75.0995 367.652 65.4093C361.585 36.3385 365.225 13.3241 385.852 0C422.254 20.5918 405.266 75.0995 391.919 113.861C388.279 88.4236 385.852 58.1416 385.852 58.1416C385.852 58.1416 383.426 81.1559 382.212 101.748ZM457.441 82.3672C457.441 82.3672 452.588 112.649 430.747 133.241C418.613 145.354 416.187 164.734 414.973 180.481C414.386 179.161 413.798 177.912 413.228 176.7L413.227 176.699C409.087 167.9 405.854 161.03 410.12 142.931C413.151 130.322 418.918 117.082 424.616 103.999C432.602 85.6637 440.454 67.6368 440.454 52.0852C440.454 34.1203 433.191 27.6348 426.36 21.5344C423.519 18.9971 420.752 16.5264 418.613 13.3241C441.667 14.5354 468.362 26.6482 476.855 37.5498C504.763 71.4657 474.428 111.438 450.161 140.509C426.66 168.235 425.73 175.307 425.015 180.734C424.918 181.472 424.825 182.179 424.68 182.904C423.467 175.636 422.253 167.157 424.68 155.044C427.164 143.887 432.825 137.17 438.575 130.349C444.06 123.841 449.626 117.238 452.588 106.593C458.655 84.7898 457.441 82.3672 457.441 82.3672ZM542.377 201.073C548.444 205.918 554.511 210.763 560.578 216.82C590.912 249.524 615.18 267.693 616.393 267.693C604.393 255.328 596.098 244.688 588.75 235.263C573.065 215.144 561.694 200.56 527.817 186.538C528.348 186.588 528.885 186.639 529.428 186.69C554.913 189.086 592.758 192.646 622.46 251.947C634.594 274.961 645.514 294.342 668.568 302.821L672.208 305.243L666.141 306.455C607.899 311.3 589.699 291.919 565.431 265.271C555.724 254.369 541.164 241.045 529.03 233.778C509.616 222.876 479.282 220.453 456.228 225.299C467.148 191.383 507.19 178.059 542.377 201.073ZM84.936 269.51C86.1494 267.996 87.3628 266.482 88.5761 265.271C89.233 263.959 90.6012 262.293 92.103 260.463C93.3753 258.914 94.7434 257.247 95.8564 255.581C94.643 253.158 91.0029 250.736 88.5761 250.736C74.0157 250.736 61.8819 254.369 43.6813 267.693C36.4011 273.75 26.6942 284.651 21.8407 290.708C3.64014 317.356 3.64013 371.864 20.6273 400.935C21.8407 399.723 21.8407 398.512 21.8407 397.301C24.2675 386.399 37.6146 370.652 46.1082 362.174C61.882 346.427 75.2291 335.525 93.4297 322.201C101.923 312.511 112.844 287.074 110.417 281.018C109.203 283.44 105.563 288.285 104.35 289.497C103.411 290.59 102.472 291.704 101.522 292.83C95.1109 300.435 88.2244 308.603 77.6558 314.934C78.2625 314.328 78.2625 314.025 78.2625 313.722C78.2625 313.419 78.2625 313.117 78.8691 312.511C78.8691 311.762 79.3326 311.476 79.9731 311.081C80.369 310.837 80.8325 310.551 81.296 310.088C89.7896 301.609 101.923 282.229 101.923 273.75L72.8023 282.229C74.9786 277.884 77.155 276.461 80.2064 274.467C80.5576 274.237 80.9203 274 81.296 273.75C82.5094 272.539 83.7227 271.025 84.936 269.51ZM192.926 297.976L198.993 293.13L197.78 297.976C175.939 341.582 188.073 410.625 214.767 450.597C216.054 452.525 217.232 454.356 218.338 456.077C227.661 470.577 231.902 477.172 253.595 466.344C253.999 466.344 254.269 466.209 254.449 466.12C254.808 465.94 254.808 465.94 254.808 467.555C254.555 468.314 254.302 469.019 254.059 469.694C253.141 472.253 252.381 474.37 252.381 477.245C251.985 484.372 250.81 490.593 249.663 496.669C247.301 509.182 245.054 521.083 249.955 539.021C254.808 558.401 276.649 574.148 298.489 576.571L305.77 578.993H296.063C260.875 578.993 235.394 554.768 226.901 529.331C214.134 489.503 211.862 485.819 207.661 479.009C205.475 475.464 202.765 471.071 197.78 460.287C177.152 417.893 157.738 335.525 192.926 297.976ZM331.251 720.713C319.736 722.355 316.584 716.206 312.725 708.679C310.891 705.101 308.897 701.211 305.77 697.699C292.423 680.741 292.423 655.304 317.904 655.304C311.837 668.628 308.197 677.107 317.904 690.431C324.456 698.426 325.766 703.804 327.077 709.182C327.95 712.767 328.824 716.353 331.251 720.713ZM473.575 708.356C475.4 704.926 477.388 701.188 480.495 697.699C492.629 680.741 492.629 655.304 468.362 655.304C468.581 655.829 468.797 656.344 469.009 656.851L469.033 656.908C474.682 670.392 477.705 677.606 468.362 690.431C461.965 698.945 460.564 704.55 459.282 709.68C458.375 713.308 457.528 716.699 455.014 720.713C466.564 721.537 469.7 715.641 473.575 708.356ZM464.721 839.419C468.362 841.842 473.215 847.898 474.428 851.532C451.374 875.757 423.467 898.772 395.559 916.941C394.854 916.472 394.145 916 393.431 915.525L392.883 915.161L392.827 915.124C367.86 898.522 337.929 878.618 321.544 857.588C317.903 853.954 315.477 851.532 317.904 847.898C322.542 841.21 325.648 837.144 328.523 833.38C332.417 828.282 335.889 823.738 342.171 813.982C344.731 811.426 345.941 808.87 347.403 805.781C348.713 803.014 350.225 799.819 353.091 795.813C356.731 799.043 360.506 802.004 364.281 804.965C371.831 810.887 379.381 816.808 385.852 824.884C386.376 825.668 386.9 826.51 387.437 827.371L387.443 827.381L387.444 827.383C389.389 830.506 391.496 833.888 394.346 835.785C408.906 817.616 418.613 809.137 438.027 794.601C446.375 801.893 442.16 807.393 436.958 814.182C436.111 815.288 435.237 816.428 434.387 817.616L413.76 843.053C414.973 842.649 415.647 842.514 416.097 842.425C416.995 842.245 416.995 842.245 418.613 840.63C429.534 833.363 441.667 824.884 450.161 816.405L451.374 817.616C451.374 818.746 452.313 819.641 453.387 820.667C455.768 822.94 458.818 825.85 453.801 833.363C445.752 844.841 435.525 856.319 426.215 866.767L425.295 867.799L424.68 868.49L412.546 883.025C428.32 872.124 462.295 841.842 464.721 839.419ZM60.6686 685.586L128.617 620.177C151.672 599.585 174.726 574.148 188.073 548.711C196.566 531.753 203.846 514.795 189.286 497.837C187.872 499.249 186.87 502.304 185.8 505.567C185.034 507.906 184.232 510.35 183.219 512.373C173.512 531.753 166.232 542.655 151.672 559.613L132.258 578.993L152.885 549.922C154.502 547.016 156.12 544.196 157.714 541.416L157.714 541.415L157.714 541.415L157.715 541.414L157.715 541.414L157.715 541.413L157.716 541.413L157.716 541.412L157.716 541.412L157.717 541.411L157.717 541.41L157.717 541.41L157.718 541.409L157.718 541.409L157.718 541.408L157.719 541.408L157.719 541.407L157.719 541.407L157.72 541.406C162.104 533.762 166.314 526.421 169.872 518.429C170.932 515.678 172.066 512.963 173.19 510.273C178.5 497.566 183.585 485.396 179.579 472.4C178.366 468.766 173.512 459.076 173.512 460.287C173.512 460.813 173.283 461.568 172.925 462.749C172.458 464.288 171.772 466.551 171.085 469.978C166.232 484.513 146.818 525.697 132.258 536.598C133.025 535.065 133.915 533.411 134.849 531.673L134.85 531.671L134.85 531.67C136.868 527.918 139.093 523.779 140.751 519.64C147.811 506.426 150.378 487.444 152.654 470.618L152.654 470.618L152.654 470.618L152.654 470.617L152.654 470.617C153.507 464.309 154.319 458.304 155.312 453.02C150.568 456.966 147.199 460.169 144.258 462.964L144.258 462.965C133.657 473.041 128.629 477.821 84.936 492.992C80.586 494.269 76.7756 495.277 73.4252 496.163C60.8882 499.479 54.7916 501.092 50.9617 508.739C33.9745 542.655 32.7611 585.05 40.0413 620.177C41.2547 633.501 52.1749 677.107 60.6686 685.586ZM339.744 783.7C334.891 800.658 323.97 816.405 313.05 830.94C309.662 835.516 306.994 839.046 304.853 841.88C300.224 848.004 298.056 850.873 296.394 854.01C294.929 856.774 293.856 859.745 291.839 865.335L291.839 865.336L291.837 865.34C290.755 868.339 289.401 872.091 287.569 876.969C269.369 869.701 239.034 843.053 228.114 832.151C217.194 821.25 207.487 805.503 201.42 792.179C196.615 781.628 197.137 780.951 201.178 775.713L201.178 775.712C202.24 774.336 203.545 772.644 205.06 770.376C215.98 755.84 220.834 744.939 226.901 726.77C229.236 728.102 231.662 729.617 234.181 731.189C240.823 735.336 248.103 739.882 256.022 742.516C258.448 733.634 263.032 726.904 267.616 720.175L267.617 720.174C269.908 716.809 272.2 713.445 274.222 709.812C274.222 710.243 274.222 710.367 274.277 710.458C274.285 710.472 274.295 710.485 274.306 710.498C274.325 710.52 274.347 710.542 274.374 710.569C274.525 710.72 274.829 711.023 275.435 712.234C275.435 712.84 275.739 713.143 276.042 713.445C276.346 713.748 276.649 714.051 276.649 714.657C279.376 719.557 281.612 723.11 283.4 725.951L283.4 725.952L283.401 725.953C289.567 735.751 290.391 737.06 287.569 755.84C286.095 766.878 282.83 777.021 279.678 786.813L279.677 786.814C277.64 793.141 275.651 799.322 274.222 805.503C282.716 797.024 297.276 765.531 302.13 752.207C304.653 754.306 306.01 755.532 306.959 756.389L306.961 756.391L306.962 756.391C308.748 758.006 309.088 758.312 313.05 760.686C311.837 775.221 299.703 806.714 292.423 821.25C291.689 822.715 290.622 824.622 289.458 826.705L289.454 826.712L289.453 826.714C286.767 831.519 283.562 837.252 282.716 840.63L283.929 839.419C295.259 828.109 310.345 800.55 318.845 785.022C322.179 778.932 324.5 774.692 325.184 774.01C329.825 775.863 333.046 778.425 336.476 781.154C337.53 781.992 338.604 782.846 339.744 783.7ZM430.218 717.271C430.104 716.581 429.743 715.933 429.053 714.688C428.573 713.825 427.934 712.674 427.107 711.023L424.68 708.6C421.531 711.22 417.929 713.386 414.265 715.589L414.264 715.589L414.264 715.59C409.457 718.48 404.544 721.434 400.413 725.558L394.346 732.826L393.133 731.615C391.919 729.192 378.572 718.291 371.292 714.657C370.685 714.051 369.169 712.841 367.653 711.63L367.652 711.629C366.135 710.417 364.618 709.206 364.012 708.6C362.864 709.173 361.988 710.829 360.742 713.183C359.353 715.809 357.503 719.304 354.305 723.136C350.665 727.98 347.025 731.614 343.386 735.247L343.384 735.249L331.251 747.362C328.824 753.418 344.598 770.376 349.451 775.221C354.305 778.855 387.066 803.08 393.133 805.503C413.76 794.601 448.948 767.953 455.014 750.995C455.062 750.807 455.107 750.629 455.15 750.458C455.549 748.882 455.767 748.018 455.582 747.252C455.357 746.324 454.538 745.539 452.726 743.803C452.026 743.133 451.179 742.322 450.161 741.305C449.607 741.858 448.674 743.168 447.376 744.99L447.375 744.992L447.374 744.993C442.985 751.157 434.425 763.175 422.254 771.587C420.971 772.441 419.538 773.595 418.06 774.785C415.344 776.973 412.477 779.282 410.12 780.066C425.088 769.721 432.408 756.104 440.374 741.285C440.803 740.488 441.234 739.687 441.667 738.883C442.881 737.066 443.487 736.157 443.487 735.249C443.487 734.34 442.881 733.432 441.667 731.615C441.327 731.275 440.89 730.744 440.385 730.129C439.091 728.554 437.346 726.43 435.6 725.558C435.24 725.918 434.345 727.559 433.011 730.005C429.851 735.799 424.225 746.112 417.4 754.629C416.793 755.84 416.187 756.446 415.58 757.052C414.973 757.657 414.366 758.263 413.76 759.474L408.906 763.108C409.798 760.439 412.652 756.464 415.067 753.101C415.94 751.885 416.756 750.749 417.4 749.784C424.68 741.305 427.107 732.826 429.534 721.924C429.642 721.384 429.741 720.911 429.828 720.492L429.828 720.492C430.176 718.821 430.343 718.022 430.218 717.271ZM162.592 801.869L152.885 793.39C121.337 763.108 100.71 725.558 97.0697 684.375C96.4245 675.356 96.1224 671.134 97.6233 667.7C98.9448 664.676 101.664 662.264 106.777 657.727L146.818 622.599C149.191 625.759 151.049 632.008 152.727 637.653C153.623 640.666 154.467 643.506 155.312 645.614C157.056 649.749 158.565 653.024 159.846 655.805L159.847 655.806L159.848 655.808C165.695 668.496 166.791 670.874 163.805 697.699C163.107 702.579 162.006 707.861 160.967 712.851C160.2 716.53 159.467 720.051 158.952 723.136C165.762 712.452 169.452 703.326 173.775 692.635C174.843 689.993 175.95 687.255 177.152 684.375C183.87 691.08 183.757 691.725 182.815 697.094C182.566 698.514 182.26 700.264 182.006 702.544C179.654 725.24 174.769 739.845 171.28 750.281C169.368 755.997 167.875 760.461 167.445 764.319C168.073 762.44 171.297 757.32 174.768 751.809C178.007 746.665 181.462 741.18 183.219 737.671C184.803 735.035 186.847 729.646 188.951 724.1C191.68 716.903 194.51 709.442 196.566 707.389C199.205 708.969 200.466 710.55 201.648 712.03C203.184 713.955 204.586 715.71 208.7 717.079C205.349 741.331 192.745 758.654 179.672 776.622C173.809 784.68 167.851 792.868 162.592 801.869ZM301.022 338.876V338.877C301.164 343.115 301.35 348.677 300.916 357.328C298.483 357.328 297.221 356.549 295.329 355.381C292.505 353.637 288.276 351.026 276.649 348.849C252.864 344.452 246.347 351.548 239.918 358.547C237.492 361.188 235.079 363.816 231.754 365.807C228.583 367.917 224.492 369.798 220.683 371.548C215.746 373.818 211.283 375.869 209.913 377.92H211.127H212.34L232.967 375.498C234.181 374.892 235.091 374.589 236.001 374.286C236.911 373.984 237.821 373.681 239.034 373.075C261.144 391.059 273.859 390.286 282.773 389.744C287.068 389.483 290.48 389.275 293.636 391.244C299.6 395.214 297.421 401.622 295.771 406.473C295.407 407.543 295.069 408.538 294.849 409.414C299.099 409.414 301.222 409.414 302.283 410.475C303.343 411.536 303.343 413.655 303.343 417.893C303.343 429.164 300.723 435.206 298.336 440.714C295.848 446.452 293.611 451.61 294.849 461.499C297.276 457.865 323.97 408.202 311.837 400.935C311.23 400.329 310.623 400.026 310.017 399.723C309.41 399.421 308.803 399.118 308.196 398.512C308.196 396.826 308.458 395.4 308.738 393.872C309.061 392.108 309.41 390.207 309.41 387.61C309.41 385.188 309.41 383.977 308.196 381.554C306.855 378.876 306.626 379.159 306.484 379.333C306.37 379.475 306.312 379.545 305.77 377.92C306.983 377.92 308.197 378.223 309.41 378.526C310.623 378.829 311.837 379.132 313.05 379.132C312.443 376.709 311.837 375.498 311.23 374.286C310.623 373.075 310.017 371.864 309.41 369.441C308.803 367.624 308.5 365.505 308.197 363.385L308.196 363.384L308.196 363.384L308.196 363.384L308.196 363.383L308.196 363.383L308.196 363.383L308.196 363.382L308.196 363.382L308.196 363.382L308.196 363.381L308.196 363.381L308.195 363.38L308.195 363.38L308.195 363.38L308.195 363.379L308.195 363.379L308.195 363.379L308.195 363.378L308.195 363.378L308.195 363.378L308.195 363.377L308.195 363.377L308.194 363.376L308.194 363.376L308.194 363.376L308.194 363.375C307.892 361.259 307.589 359.142 306.983 357.328C305.01 338.616 306.246 336.72 312.647 326.898L312.647 326.897C314.119 324.639 315.863 321.963 317.904 318.567C322.757 312.511 325.184 305.243 323.97 296.764C313.057 298.943 309.996 306.021 305.96 315.354L305.96 315.354C305.508 316.398 305.045 317.471 304.556 318.567C300.656 327.911 300.768 331.249 301.022 338.876ZM475.642 580.204L482.922 577.782C505.976 574.148 526.604 559.613 532.67 541.443C537.571 523.506 535.324 511.605 532.962 499.092C531.815 493.015 530.64 486.795 530.244 479.668C529.637 477.851 529.334 476.338 529.03 474.824L529.03 474.823L529.03 474.822C528.727 473.308 528.423 471.794 527.817 469.978C526.603 467.555 527.817 467.555 529.03 468.766C550.233 479.907 555.015 472.605 565.085 457.226L565.088 457.221L565.089 457.22C565.967 455.879 566.885 454.477 567.858 453.02C595.766 413.047 606.686 344.004 584.845 300.398L582.419 294.342L588.485 299.187C623.673 337.948 603.046 419.104 583.632 461.499C578.616 472.347 575.761 476.871 573.428 480.567C568.988 487.601 566.442 491.633 554.511 530.542C547.231 555.979 521.75 580.204 485.349 580.204H475.642ZM542.377 730.403C570.285 720.713 612.753 667.417 622.46 641.98C622.892 640.686 623.334 639.411 623.769 638.155C628.221 625.307 631.976 614.469 617.606 605.641C614.967 610.911 612.966 617.454 611.14 623.424L611.137 623.432C610.446 625.693 609.779 627.871 609.113 629.867C603.046 645.614 587.272 675.896 571.498 689.22C572.073 688.245 572.634 687.294 573.182 686.365C584.209 667.678 590.044 657.791 596.979 634.712C599.406 627.444 610.326 586.261 607.899 580.204C606.686 577.782 601.833 570.514 599.406 570.514C596.979 593.529 582.419 633.501 570.285 650.459C571.196 642.725 573.477 636.699 576.034 629.944L576.035 629.943C580.286 618.713 585.301 605.464 586.059 578.993C587.598 544.421 585.232 538.599 582.367 531.547C580.715 527.48 578.896 523.005 577.565 512.373C574.59 514.6 571.615 525.929 568.082 539.386C565.85 547.884 563.396 557.23 560.578 565.669C553.559 592.461 540.638 610.978 529.562 626.852C508.089 657.624 493.549 678.462 542.377 730.403ZM639.447 628.656C646.727 631.078 660.074 644.402 661.288 650.459C667.355 688.009 661.288 718.291 651.581 752.207C654.162 747.053 656.295 743.466 658.184 740.289L658.184 740.288C662.511 733.011 665.558 727.886 669.781 711.023C674.635 694.065 675.848 677.107 677.062 660.149C693.9 670.235 693.083 677.21 690.945 695.464C690.772 696.94 690.59 698.49 690.409 700.121C684.936 745.645 655.47 776.798 639.111 794.092L639.11 794.093C633.706 799.806 629.732 804.007 628.527 806.714C625.162 805.035 614.214 789.381 606.198 777.919L606.198 777.918L606.197 777.917L606.19 777.907L606.189 777.906C602.648 772.842 599.68 768.598 598.192 766.742C589.699 753.418 582.419 738.882 579.992 721.924C601.833 715.868 639.447 646.825 639.447 628.656ZM144.391 442.118C149.245 433.639 150.458 431.217 150.458 421.526C147.072 424.156 145.436 426.319 143.524 428.847C139.269 434.472 133.649 441.902 104.35 460.287L121.337 445.752C134.684 433.639 155.312 397.301 155.312 386.399C154.098 388.822 148.031 396.089 145.605 398.512C143.178 400.935 97.0698 439.696 109.203 427.583L112.844 423.949C124.977 414.259 146.818 386.399 149.245 373.075L112.844 375.498C114.928 372.723 117.012 371.14 119.324 369.385C121.05 368.074 122.903 366.667 124.977 364.596L124.978 364.596C128.618 360.962 132.258 357.328 135.898 352.483C137.035 351.064 138.505 349.313 140.136 347.37L140.136 347.369C145.469 341.017 152.524 332.611 155.312 327.046C140.751 329.469 128.617 330.68 112.844 331.891C95.5837 332.849 94.237 333.806 87.8442 338.35C86.1475 339.556 84.0954 341.015 81.296 342.793C70.3756 348.849 55.8151 363.385 48.5348 371.864C19.4139 408.202 1.21338 459.076 10.9204 508.739C30.1649 495.239 52.3078 488.416 73.5263 481.878L73.5265 481.878C101.808 473.164 128.447 464.956 144.391 442.118ZM730.45 365.807C766.851 404.568 783.838 457.865 774.131 507.527C770.491 506.316 768.065 503.894 763.211 497.837C747.859 488.897 730.483 483.997 712.329 478.877C696.047 474.285 679.138 469.517 662.501 461.499C647.941 454.231 628.527 437.273 626.1 423.949C625.602 419.971 626.944 412.116 628.447 403.315L628.448 403.314C630.607 390.674 633.099 376.085 630.953 368.23L630.954 368.23L630.955 368.23C649.154 370.653 649.154 370.653 667.355 371.864C666.571 370.299 665.282 369.24 663.813 368.034C663.007 367.372 662.147 366.666 661.288 365.807C659.598 364.683 658.228 363.79 657.083 363.045L657.076 363.04L657.07 363.036L657.068 363.035L657.064 363.033L657.06 363.03L657.059 363.029L657.057 363.028C654.666 361.47 653.259 360.553 651.969 359.494C650.131 357.984 648.531 356.184 644.653 351.821C644.168 351.276 643.648 350.69 643.087 350.061C638.234 345.216 624.887 330.68 622.46 324.624C625.493 325.229 628.223 325.532 630.953 325.835L630.953 325.835L630.954 325.835C633.684 326.138 636.414 326.441 639.447 327.046C649.154 328.258 681.915 350.061 690.409 357.328C692.835 359.751 695.566 362.174 698.296 364.596C701.026 367.019 703.756 369.441 706.183 371.864C711.036 376.709 715.889 382.765 720.743 388.822C734.09 408.202 745.01 426.372 751.077 448.175C749.864 420.315 721.956 374.286 697.689 353.695C695.306 351.792 693.485 350.075 691.784 348.473C689.154 345.995 686.812 343.788 683.128 341.582L668.568 330.68C668.568 329.92 668.09 329.637 667.734 329.531C670.768 330.027 673.215 330.312 675.339 330.56C683.158 331.471 686.607 331.873 698.902 340.37C713.463 350.061 718.316 353.695 730.45 365.807ZM667.355 329.469C667.482 329.49 667.608 329.511 667.734 329.531C667.523 329.469 667.355 329.469 667.355 329.469ZM467.045 330.891C472.829 340.052 473.9 341.749 472.002 359.751C471.445 361.973 471.144 363.94 470.864 365.77C470.533 367.929 470.232 369.897 469.575 371.864C469.043 373.988 468.278 375.181 467.586 376.259C466.7 377.64 465.935 378.833 465.935 381.554C468.362 380.343 470.788 379.132 473.215 380.343C472.672 381.968 472.615 381.897 472.501 381.756C472.359 381.581 472.13 381.298 470.788 383.977C469.575 386.399 469.575 387.61 469.575 390.033C469.575 391.85 469.878 393.667 470.182 395.484C470.485 397.301 470.788 399.118 470.788 400.935C470.182 401.54 469.575 401.843 468.968 402.146C468.362 402.449 467.755 402.751 467.148 403.357C455.014 410.625 481.709 460.287 484.135 463.921C485.343 454.88 483.245 450.038 480.833 444.469C478.398 438.847 475.642 432.485 475.642 420.315C475.642 416.078 475.642 413.958 476.702 412.898C477.763 411.836 479.886 411.836 484.135 411.836C483.876 410.539 483.449 409.131 483.01 407.684C481.4 402.371 479.627 396.523 485.349 393.667C488.505 391.698 491.917 391.905 496.212 392.167C505.126 392.709 517.841 393.482 539.951 375.498C541.164 376.103 542.074 376.406 542.984 376.709C543.894 377.012 544.804 377.315 546.017 377.92L566.645 380.343H567.858H569.071C567.702 378.292 563.239 376.24 558.301 373.971C554.492 372.22 550.401 370.34 547.231 368.23C544.432 366.368 542.271 363.869 540.054 361.305C533.617 353.862 526.702 345.867 502.336 351.272C490.708 353.448 486.48 356.059 483.656 357.804C481.764 358.972 480.502 359.751 478.069 359.751C477.615 350.244 478.009 344.46 478.3 340.184V340.184V340.184C478.788 333.02 478.988 330.093 474.428 320.99C473.996 320.019 473.584 319.068 473.181 318.139C469.056 308.636 465.96 301.502 453.801 300.398C453.801 307.666 457.441 314.934 461.081 320.99C463.459 325.209 465.434 328.338 467.043 330.888L467.045 330.89L467.045 330.891ZM434.387 208.341C398.294 214.646 395.081 251.095 392.811 276.84C392.029 285.715 391.359 293.318 389.492 297.976C386.233 291.107 385.46 281.326 384.624 270.757C382.659 245.911 380.35 216.712 344.598 210.763C367.652 202.284 372.505 199.862 390.706 190.171C396.553 192.895 400.522 195.244 404.06 197.339C411.536 201.764 417.093 205.052 434.387 208.341ZM740.86 642.389C741.511 640.39 742.092 638.608 742.584 637.135C751.077 602.008 753.504 563.246 743.797 528.119C743.588 527.424 743.384 526.744 743.185 526.078C736.43 503.547 734.677 497.698 713.463 492.992C728.023 524.485 734.09 570.514 731.663 606.853L730.45 602.008C729.11 593.983 728.325 587.804 727.635 582.375C725.827 568.139 724.674 559.063 715.89 535.387C712.249 524.485 707.396 513.584 701.329 503.894C699.889 501.019 698.796 498.703 697.908 496.821L697.907 496.819C695.891 492.548 694.928 490.509 693.352 489.222C691.911 488.046 689.958 487.498 686.219 486.448C683.702 485.742 680.374 484.808 675.848 483.302C675.983 483.841 676.088 484.276 676.172 484.629C676.258 484.993 676.321 485.271 676.37 485.487C676.48 485.972 676.519 486.146 676.594 486.304C676.635 486.392 676.688 486.475 676.77 486.605C676.979 486.936 677.378 487.568 678.275 489.358L685.555 503.894C695.262 528.119 701.329 548.711 701.329 575.359C701.329 574.148 694.049 545.077 689.195 532.964C684.342 519.64 677.062 508.739 669.781 497.837C656.434 478.457 655.221 477.245 651.581 474.823C638.638 466.748 632.167 461.903 625.696 457.057C622.46 454.635 619.224 452.212 615.18 449.386C612.169 462.409 607.498 473.776 603.227 484.17C602.334 486.344 601.458 488.475 600.619 490.569C598.192 496.626 595.766 501.471 592.126 506.316C592.126 509.95 592.126 513.584 594.552 520.852C600.619 545.077 607.899 565.669 622.46 582.627C629.74 591.106 658.861 621.388 667.355 628.656L714.676 672.262C715.023 672.608 715.667 673.448 716.494 674.529C718.564 677.231 721.783 681.433 724.383 683.164C729.63 676.878 736.693 655.188 740.86 642.389ZM160.165 251.947C189.867 192.646 227.712 189.086 253.197 186.69C253.74 186.639 254.277 186.588 254.808 186.538C221.313 199.912 209.778 215.018 193.881 235.835C186.743 245.183 178.725 255.682 167.445 267.693C167.445 267.693 190.499 250.736 222.047 216.82C228.114 209.552 234.181 204.707 240.248 201.073C276.649 178.059 315.477 191.383 326.397 225.299C303.343 219.242 273.009 222.876 253.595 233.778C241.461 239.834 226.901 254.369 217.194 265.271C216.658 265.832 216.125 266.391 215.595 266.948C192.103 291.604 173.44 311.193 116.484 306.455L110.417 305.243L114.057 302.821C137.111 294.342 148.031 274.961 160.165 251.947ZM162.592 627.444C172.299 656.515 192.926 688.009 217.194 708.6C224.107 714.639 229.79 718.221 236.433 722.407C239.117 724.099 241.959 725.889 245.101 727.981L251.168 719.502C257.65 708.464 264.251 700.894 269.467 694.914C280.849 681.863 285.629 676.382 268.155 658.938C264.515 664.994 252.381 679.53 245.101 683.164C254.114 671.167 255.688 666.596 258.692 657.874L258.693 657.873L258.694 657.869L258.697 657.861L258.698 657.858C259.332 656.017 260.03 653.99 260.875 651.67C256.122 645.027 253.603 636.897 250.984 628.445C250.261 626.109 249.529 623.748 248.741 621.388L235.394 641.98C234.718 643.104 234.21 643.978 233.806 644.671C232.933 646.173 232.552 646.826 232.034 647.341C231.635 647.737 231.154 648.051 230.303 648.606L230.303 648.606C230.021 648.79 229.7 649 229.327 649.248C230.629 644.698 233.328 639.452 236.675 632.947L236.675 632.946L236.676 632.945C239.567 627.326 242.941 620.768 246.315 612.909C246.315 611.698 242.674 602.007 236.608 588.683C234.181 583.838 231.754 577.782 229.327 571.725C228.672 570.418 223.067 579.699 217.856 588.328L217.856 588.328C213.414 595.684 209.258 602.565 208.7 602.008C208.133 601.442 211.803 592.947 215.751 583.807C220.254 573.38 225.12 562.115 224.474 560.824L224.474 560.823C223.26 558.401 222.047 555.979 222.047 554.768C215.98 539.021 209.913 525.697 207.487 523.274L201.42 537.81C201.42 540.232 200.206 542.655 198.993 545.077C191.713 565.669 175.939 588.683 158.952 605.641C157.129 611.101 157.36 611.776 159.645 618.448L159.645 618.449C160.402 620.659 161.384 623.527 162.592 627.444ZM597.846 159.759C618.115 152.477 636.57 145.847 649.154 148.988C686.769 159.889 689.195 224.087 645.514 219.242C636.782 209.184 639.577 207.664 644.43 205.023C648.343 202.893 653.596 200.035 655.221 191.383C639.447 192.594 628.527 191.383 616.393 187.749L624.887 170.791C617.885 172.189 613.397 174.304 609.144 176.308C602.341 179.514 596.137 182.438 581.205 181.692C599.406 203.495 644.301 248.313 677.062 251.947C687.982 239.834 701.329 211.974 704.969 195.017C721.956 121.128 630.954 125.973 566.645 156.255C556.938 161.101 542.377 168.368 539.951 174.425C558.645 173.842 579.027 166.519 597.846 159.759ZM559.364 838.208C546.017 851.532 521.75 873.335 502.336 881.814C497.668 861.841 486.035 847.357 474.287 832.73C464.661 820.746 454.959 808.665 448.948 793.39C446.521 786.123 453.801 781.277 464.721 775.221C468.275 773.447 469.877 771.674 471.908 769.425L471.909 769.425L471.911 769.423L471.912 769.421C472.655 768.599 473.455 767.714 474.428 766.742L479.282 761.897L484.135 757.052C496.888 743.525 503.358 731.044 507.328 723.385C509.402 719.384 510.794 716.699 512.043 715.868C518.11 723.136 529.03 736.46 532.67 746.15C538.131 743.728 544.198 740.094 549.506 736.914C554.815 733.734 559.365 731.009 561.791 730.403C561.791 742.516 549.658 772.798 542.377 784.911C541.955 785.544 541.422 786.324 540.823 787.199L540.81 787.218C537.972 791.37 533.671 797.661 532.67 800.658L533.884 799.447C544.804 792.179 564.218 761.897 569.071 752.207C587.272 767.953 542.377 826.095 531.457 839.419C536.31 836.996 536.31 836.996 539.951 833.363C541.708 831.828 543.226 830.531 544.592 829.365L544.607 829.352L544.634 829.33L544.644 829.32L544.649 829.317C550.793 824.072 553.866 821.449 561.791 811.559C561.963 811.353 562.142 811.14 562.327 810.918L562.755 810.408L562.755 810.408L562.755 810.407C569.271 802.625 582.479 786.852 583.632 777.643C584.845 778.451 585.519 778.855 585.969 779.124C586.253 779.294 586.448 779.411 586.632 779.542C587.03 779.824 587.38 780.174 588.485 781.277C596.979 792.179 565.431 832.151 559.364 838.208ZM350.665 182.904C351.878 176.847 353.091 167.157 350.665 155.044C348.181 143.887 342.519 137.17 336.77 130.349C331.285 123.841 325.719 117.238 322.757 106.593C316.69 84.7898 317.904 82.3672 317.904 82.3672C317.904 82.3672 322.757 112.649 344.598 133.241C356.731 145.354 360.371 164.734 360.371 180.481C360.835 179.556 361.298 178.665 361.753 177.789L361.753 177.789C366.063 169.491 369.615 162.653 365.225 142.931C362.22 130.431 356.526 117.517 350.876 104.702C342.84 86.4734 334.891 68.444 334.891 52.0852C334.891 34.9214 342.2 28.094 349.05 21.695C351.868 19.0622 354.609 16.5019 356.731 13.3241C333.677 14.5354 306.983 27.8595 298.489 37.5498C270.582 71.4657 300.916 111.438 325.184 140.509C348.684 168.235 349.615 175.307 350.329 180.734C350.426 181.472 350.519 182.179 350.665 182.904ZM731.477 257.857L731.475 257.857L731.473 257.856L731.47 257.856C730.139 257.57 728.622 257.244 726.81 256.792V258.003L735.303 266.482C737.123 268.299 738.337 269.813 739.55 271.327C740.763 272.841 741.977 274.355 743.797 276.172C758.357 293.13 769.278 327.046 766.851 346.427C765.638 330.68 760.784 317.356 754.717 302.821C752.291 297.976 749.864 293.13 747.437 289.497C746.224 287.68 744.707 285.56 743.19 283.44C741.674 281.32 740.157 279.201 738.944 277.384C734.09 271.327 714.676 254.369 708.609 251.947C706.182 251.341 704.362 250.736 702.542 250.13C700.722 249.524 698.902 248.919 696.476 248.313C697.689 251.947 704.969 264.06 707.396 267.693C707.982 268.717 708.479 269.599 708.913 270.369C710.308 272.842 711.056 274.169 712.003 275.335C713.1 276.685 714.464 277.818 717.408 280.263L717.409 280.264L717.85 280.63L718.316 281.018L718.317 281.018C719.53 282.229 720.743 283.44 721.956 285.863C709.823 283.44 698.902 281.018 686.769 277.384C686.769 280.274 687.321 283.164 687.899 286.186C688.532 289.497 689.195 292.965 689.195 296.764C689.195 302.82 687.982 308.876 686.769 314.932L686.769 314.934C700.116 322.201 731.663 341.582 752.291 365.807C755.528 369.685 761.529 379.426 766.607 387.669L766.609 387.672L766.61 387.675C771.047 394.877 774.779 400.935 775.345 400.935C792.332 368.23 791.119 316.145 769.278 287.074C758.358 277.384 755.931 274.961 747.437 266.482C739.546 259.589 737.268 259.1 731.477 257.857ZM706.183 238.623C712.249 227.721 717.103 203.495 718.316 197.439C729.237 211.974 740.157 226.51 758.358 236.2C742.018 223.151 732.524 207.173 722.852 190.896C721.75 189.042 720.646 187.184 719.53 185.326C738.944 195.017 760.784 222.876 770.491 237.411C781.412 255.581 782.625 276.172 782.625 295.553C771.705 265.271 729.237 233.778 706.183 238.623ZM497.483 119.917C479.282 133.241 442.881 159.889 445.308 186.538C455.015 173.213 479.282 163.523 515.683 148.988C556.938 133.241 552.084 107.804 552.084 107.804C552.084 107.804 556.938 125.973 539.951 141.72C531.457 148.988 518.11 154.136 504.763 159.284C491.416 164.432 478.069 169.58 469.575 176.847C461.081 184.115 458.655 190.171 457.441 195.017C473.803 177.322 502.422 168.804 531.247 160.225C553.724 153.536 576.327 146.809 593.339 135.664C635.807 107.804 571.498 44.8175 510.83 38.761C541.164 67.8318 538.737 89.6349 497.483 119.917ZM188.073 196.228L158.952 226.51C144.391 238.623 131.044 249.524 104.35 256.792C81.2959 230.144 53.3884 162.312 97.0697 144.143C139.786 125.997 179.78 145.229 217.05 163.151C229.537 169.156 241.719 175.014 253.595 179.27C238.881 182.417 216.884 174.432 194.307 166.237C164.754 155.509 134.206 144.42 117.697 157.467C107.99 164.734 95.8564 184.115 100.71 199.862C105.563 213.186 124.977 232.566 138.324 215.608C137.738 208.578 134.88 207.498 131.811 206.339C128.534 205.101 125.017 203.772 123.764 195.017C138.324 196.228 149.245 195.017 161.379 191.383L152.885 174.425C161.295 175.906 165.873 177.992 170.155 179.943C176.375 182.777 181.97 185.326 197.78 185.326C194.904 191.067 194.3 191.517 191.183 193.841C190.354 194.459 189.347 195.21 188.073 196.228ZM242.885 160.225L242.885 160.226L242.885 160.226C271.709 168.804 300.328 177.322 316.69 195.017C315.477 191.383 313.05 185.326 304.556 176.847C296.063 169.58 282.716 164.432 269.369 159.284C256.021 154.136 242.674 148.988 234.181 141.72C217.194 127.185 222.047 107.804 222.047 107.804C222.047 107.804 215.98 132.03 258.448 148.988C261.932 150.379 265.304 151.714 268.564 153.005C299.361 165.202 320.046 173.393 328.824 186.538C331.251 159.889 294.849 133.241 276.649 119.917C235.394 89.6349 232.967 67.8318 262.088 38.761C202.633 44.8175 138.324 107.804 180.792 135.664C197.805 146.809 220.407 153.536 242.885 160.225ZM64.3088 198.65C65.5221 204.707 70.3756 227.721 76.4425 239.834C53.3884 234.989 10.9203 266.482 0 297.976C0 278.595 1.21333 256.792 12.1337 239.834C21.8407 225.299 43.6814 197.439 63.0954 187.749C61.5917 190.251 60.1109 192.776 58.6278 195.305L58.6275 195.305C49.3404 211.141 39.9616 227.133 24.2675 238.623C42.468 227.721 53.3884 213.186 64.3088 198.65ZM334.891 532.964H332.464C330.037 532.964 328.824 532.964 327.61 531.753H326.397C315.477 526.908 320.33 508.739 320.33 508.739C316.69 495.415 305.77 519.64 308.196 524.485C310.623 529.331 333.677 549.922 333.677 549.922C335.207 551.377 336.812 552.893 338.47 554.46L338.473 554.462C364.427 578.983 403.517 615.914 376.145 625.022C373.353 625.58 370.354 626.209 367.211 626.869L367.206 626.87C336.214 633.376 291.209 642.824 291.209 615.332C303.645 610.011 311.529 611.182 321.525 612.667L321.526 612.667C325.184 613.21 329.126 613.796 333.677 614.12C323.134 607.689 317.398 606.62 310.463 605.327C303.031 603.942 294.223 602.301 276.649 593.529C275.562 592.986 273.744 590.741 271.959 588.537C269.76 585.823 267.612 583.17 266.942 583.838V594.74C276.207 657.349 303.473 651.006 332.756 644.193C353.328 639.406 374.896 634.388 391.919 652.881C416.484 635.716 438.861 639.004 458.163 641.841C486.533 646.01 508.261 649.203 520.537 585.05C516.897 585.05 508.403 592.317 505.976 594.74C502.336 598.374 490.202 603.219 485.349 604.43C480.562 605.386 476.154 606.153 471.973 606.88L471.971 606.881L471.97 606.881C465.555 607.997 459.678 609.02 453.801 610.487L448.948 612.909H456.228C461.138 612.909 465.107 612.674 468.721 612.461C476.719 611.988 482.978 611.618 493.842 614.12C487.193 640.673 457.262 634.889 427.163 629.073L427.157 629.072L427.149 629.07C424.299 628.519 421.447 627.968 418.613 627.444C400.413 623.811 395.559 622.599 400.413 606.853C406.161 587.179 420.245 576.381 434.015 565.824C440.592 560.782 447.097 555.795 452.588 549.922C452.973 549.538 453.816 548.726 454.968 547.618L454.969 547.618C461.074 541.744 475.834 527.542 476.855 524.485C479.282 520.852 468.362 495.415 464.721 508.739C464.721 508.739 468.362 520.852 463.508 528.119C452.388 533.67 448.345 532.862 439.487 531.091C436.747 530.543 433.547 529.903 429.534 529.331C417.797 528.641 412.738 531.09 407.652 533.551C403.799 535.415 399.931 537.287 393.133 537.81C384.339 538.437 379.447 536.142 374.417 533.783C369.731 531.585 364.925 529.331 356.731 529.331C354.305 529.734 351.878 530.273 349.451 530.811L349.45 530.811C344.597 531.888 339.744 532.964 334.891 532.964ZM276.649 385.188C263.302 385.188 256.022 375.498 257.235 363.385C259.662 362.173 262.088 360.962 266.942 360.962V365.807C273.009 364.596 274.222 367.019 274.222 373.075C272.614 373.075 271.716 372.839 271.111 372.679C270.345 372.478 270.046 372.399 269.369 373.075C269.816 373.373 270.263 373.689 270.717 374.01L270.719 374.01L270.72 374.011C273.96 376.3 277.545 378.833 283.929 376.709C288.403 375.22 289.669 372.817 290.825 370.623C291.551 369.247 292.233 367.953 293.636 367.019C299.703 370.652 296.063 385.188 276.649 385.188ZM490.795 369.751C492.083 372.153 493.62 375.02 498.696 376.709C505.08 378.833 508.665 376.3 511.905 374.011C512.36 373.69 512.808 373.373 513.256 373.075C512.507 372.326 511.757 372.503 510.72 372.747C510.08 372.898 509.33 373.075 508.403 373.075C508.403 368.23 509.616 364.596 515.683 365.807V360.962C519.236 360.962 520.839 361.611 522.87 362.434L522.871 362.435C523.614 362.736 524.415 363.06 525.39 363.385C526.604 375.498 519.323 383.977 505.976 385.188C484.135 385.188 480.495 370.652 488.989 367.019C489.724 367.752 490.236 368.708 490.795 369.751Z" fill="url(#paint33_linear)"/>
</mask>
<g mask="url(#mask0)">
</g>
<defs>
<linearGradient id="paint0_linear" x1="393" y1="4" x2="393" y2="917" gradientUnits="userSpaceOnUse">
<stop stop-color="#3F3F3F"/>
<stop offset="1" stop-color="#383838" stop-opacity="0.28"/>
</linearGradient>
<linearGradient id="paint1_linear" x1="393" y1="4" x2="393" y2="917" gradientUnits="userSpaceOnUse">
<stop stop-color="#3F3F3F"/>
<stop offset="1" stop-color="#383838" stop-opacity="0.28"/>
</linearGradient>
<linearGradient id="paint2_linear" x1="393" y1="4" x2="393" y2="917" gradientUnits="userSpaceOnUse">
<stop stop-color="#3F3F3F"/>
<stop offset="1" stop-color="#383838" stop-opacity="0.28"/>
</linearGradient>
<linearGradient id="paint3_linear" x1="393" y1="4" x2="393" y2="917" gradientUnits="userSpaceOnUse">
<stop stop-color="#3F3F3F"/>
<stop offset="1" stop-color="#383838" stop-opacity="0.28"/>
</linearGradient>
<linearGradient id="paint4_linear" x1="393" y1="4" x2="393" y2="917" gradientUnits="userSpaceOnUse">
<stop stop-color="#3F3F3F"/>
<stop offset="1" stop-color="#383838" stop-opacity="0.28"/>
</linearGradient>
<linearGradient id="paint5_linear" x1="393" y1="4" x2="393" y2="917" gradientUnits="userSpaceOnUse">
<stop stop-color="#3F3F3F"/>
<stop offset="1" stop-color="#383838" stop-opacity="0.28"/>
</linearGradient>
<linearGradient id="paint6_linear" x1="393" y1="4" x2="393" y2="917" gradientUnits="userSpaceOnUse">
<stop stop-color="#3F3F3F"/>
<stop offset="1" stop-color="#383838" stop-opacity="0.28"/>
</linearGradient>
<linearGradient id="paint7_linear" x1="393" y1="4" x2="393" y2="917" gradientUnits="userSpaceOnUse">
<stop stop-color="#3F3F3F"/>
<stop offset="1" stop-color="#383838" stop-opacity="0.28"/>
</linearGradient>
<linearGradient id="paint8_linear" x1="393" y1="4" x2="393" y2="917" gradientUnits="userSpaceOnUse">
<stop stop-color="#3F3F3F"/>
<stop offset="1" stop-color="#383838" stop-opacity="0.28"/>
</linearGradient>
<linearGradient id="paint9_linear" x1="393" y1="4" x2="393" y2="917" gradientUnits="userSpaceOnUse">
<stop stop-color="#3F3F3F"/>
<stop offset="1" stop-color="#383838" stop-opacity="0.28"/>
</linearGradient>
<linearGradient id="paint10_linear" x1="393" y1="4" x2="393" y2="917" gradientUnits="userSpaceOnUse">
<stop stop-color="#3F3F3F"/>
<stop offset="1" stop-color="#383838" stop-opacity="0.28"/>
</linearGradient>
<linearGradient id="paint11_linear" x1="393" y1="4" x2="393" y2="917" gradientUnits="userSpaceOnUse">
<stop stop-color="#3F3F3F"/>
<stop offset="1" stop-color="#383838" stop-opacity="0.28"/>
</linearGradient>
<linearGradient id="paint12_linear" x1="393" y1="4" x2="393" y2="917" gradientUnits="userSpaceOnUse">
<stop stop-color="#3F3F3F"/>
<stop offset="1" stop-color="#383838" stop-opacity="0.28"/>
</linearGradient>
<linearGradient id="paint13_linear" x1="393" y1="4" x2="393" y2="917" gradientUnits="userSpaceOnUse">
<stop stop-color="#3F3F3F"/>
<stop offset="1" stop-color="#383838" stop-opacity="0.28"/>
</linearGradient>
<linearGradient id="paint14_linear" x1="393" y1="4" x2="393" y2="917" gradientUnits="userSpaceOnUse">
<stop stop-color="#3F3F3F"/>
<stop offset="1" stop-color="#383838" stop-opacity="0.28"/>
</linearGradient>
<linearGradient id="paint15_linear" x1="393" y1="4" x2="393" y2="917" gradientUnits="userSpaceOnUse">
<stop stop-color="#3F3F3F"/>
<stop offset="1" stop-color="#383838" stop-opacity="0.28"/>
</linearGradient>
<linearGradient id="paint16_linear" x1="393" y1="4" x2="393" y2="917" gradientUnits="userSpaceOnUse">
<stop stop-color="#3F3F3F"/>
<stop offset="1" stop-color="#383838" stop-opacity="0.28"/>
</linearGradient>
<linearGradient id="paint17_linear" x1="393" y1="4" x2="393" y2="917" gradientUnits="userSpaceOnUse">
<stop stop-color="#3F3F3F"/>
<stop offset="1" stop-color="#383838" stop-opacity="0.28"/>
</linearGradient>
<linearGradient id="paint18_linear" x1="393" y1="4" x2="393" y2="917" gradientUnits="userSpaceOnUse">
<stop stop-color="#3F3F3F"/>
<stop offset="1" stop-color="#383838" stop-opacity="0.28"/>
</linearGradient>
<linearGradient id="paint19_linear" x1="393" y1="4" x2="393" y2="917" gradientUnits="userSpaceOnUse">
<stop stop-color="#3F3F3F"/>
<stop offset="1" stop-color="#383838" stop-opacity="0.28"/>
</linearGradient>
<linearGradient id="paint20_linear" x1="393" y1="4" x2="393" y2="917" gradientUnits="userSpaceOnUse">
<stop stop-color="#3F3F3F"/>
<stop offset="1" stop-color="#383838" stop-opacity="0.28"/>
</linearGradient>
<linearGradient id="paint21_linear" x1="393" y1="4" x2="393" y2="917" gradientUnits="userSpaceOnUse">
<stop stop-color="#3F3F3F"/>
<stop offset="1" stop-color="#383838" stop-opacity="0.28"/>
</linearGradient>
<linearGradient id="paint22_linear" x1="393" y1="4" x2="393" y2="917" gradientUnits="userSpaceOnUse">
<stop stop-color="#3F3F3F"/>
<stop offset="1" stop-color="#383838" stop-opacity="0.28"/>
</linearGradient>
<linearGradient id="paint23_linear" x1="393" y1="4" x2="393" y2="917" gradientUnits="userSpaceOnUse">
<stop stop-color="#3F3F3F"/>
<stop offset="1" stop-color="#383838" stop-opacity="0.28"/>
</linearGradient>
<linearGradient id="paint24_linear" x1="393" y1="4" x2="393" y2="917" gradientUnits="userSpaceOnUse">
<stop stop-color="#3F3F3F"/>
<stop offset="1" stop-color="#383838" stop-opacity="0.28"/>
</linearGradient>
<linearGradient id="paint25_linear" x1="393" y1="4" x2="393" y2="917" gradientUnits="userSpaceOnUse">
<stop stop-color="#3F3F3F"/>
<stop offset="1" stop-color="#383838" stop-opacity="0.28"/>
</linearGradient>
<linearGradient id="paint26_linear" x1="393" y1="4" x2="393" y2="917" gradientUnits="userSpaceOnUse">
<stop stop-color="#3F3F3F"/>
<stop offset="1" stop-color="#383838" stop-opacity="0.28"/>
</linearGradient>
<linearGradient id="paint27_linear" x1="393" y1="4" x2="393" y2="917" gradientUnits="userSpaceOnUse">
<stop stop-color="#3F3F3F"/>
<stop offset="1" stop-color="#383838" stop-opacity="0.28"/>
</linearGradient>
<linearGradient id="paint28_linear" x1="393" y1="4" x2="393" y2="917" gradientUnits="userSpaceOnUse">
<stop stop-color="#3F3F3F"/>
<stop offset="1" stop-color="#383838" stop-opacity="0.28"/>
</linearGradient>
<linearGradient id="paint29_linear" x1="393" y1="4" x2="393" y2="917" gradientUnits="userSpaceOnUse">
<stop stop-color="#3F3F3F"/>
<stop offset="1" stop-color="#383838" stop-opacity="0.28"/>
</linearGradient>
<linearGradient id="paint30_linear" x1="393" y1="4" x2="393" y2="917" gradientUnits="userSpaceOnUse">
<stop stop-color="#3F3F3F"/>
<stop offset="1" stop-color="#383838" stop-opacity="0.28"/>
</linearGradient>
<linearGradient id="paint31_linear" x1="393" y1="4" x2="393" y2="917" gradientUnits="userSpaceOnUse">
<stop stop-color="#3F3F3F"/>
<stop offset="1" stop-color="#383838" stop-opacity="0.28"/>
</linearGradient>
<linearGradient id="paint32_linear" x1="393" y1="4" x2="393" y2="917" gradientUnits="userSpaceOnUse">
<stop stop-color="#3F3F3F"/>
<stop offset="1" stop-color="#383838" stop-opacity="0.28"/>
</linearGradient>
<linearGradient id="paint33_linear" x1="393.5" y1="0" x2="393.5" y2="916.941" gradientUnits="userSpaceOnUse">
<stop offset="0.111473"/>
<stop offset="1" stop-opacity="0"/>
</linearGradient>
</defs>
</svg>
