<svg width="250" height="183" viewBox="0 0 250 183" fill="none" xmlns="http://www.w3.org/2000/svg">
<path opacity="0.5" fill-rule="evenodd" clip-rule="evenodd" d="M293.552 65.4044L293.32 65.1491V64.8938L293.087 64.6385L292.854 64.3832C292.389 63.8726 292.157 63.3619 291.691 62.8513C290.993 61.8301 290.063 60.8089 289.133 59.7877C287.504 57.7452 285.643 55.7028 283.783 53.9156C282.852 52.8944 281.922 52.1285 280.991 51.1073C280.061 50.086 279.13 49.3201 277.967 48.2989C275.874 46.5118 273.78 44.9799 271.687 43.1928C267.5 40.1291 263.08 37.3207 258.428 35.023C253.776 32.7252 249.124 30.9381 244.239 29.6616C239.354 28.385 234.237 27.6191 229.352 27.6191H227.491C227.259 27.6191 226.793 27.6191 226.561 27.6191H225.63H223.77H222.839C222.607 27.6191 222.607 27.6191 222.374 27.6191H221.909C220.513 27.8744 219.117 27.8744 217.722 28.1297C216.326 28.385 214.93 28.385 213.535 28.6403C207.952 29.4063 202.137 30.4275 196.322 31.704C190.507 32.9805 184.691 34.2571 178.876 35.5336C173.061 36.8101 167.013 38.0867 160.965 39.1079C154.917 40.1291 148.87 41.1503 142.589 41.6609C136.309 42.1716 130.261 42.4269 123.98 42.1716C117.933 41.9162 111.652 41.4056 105.604 40.6397C99.5565 39.8738 93.5087 38.5973 87.6935 37.3207L85.3674 36.8101L84.2043 36.5548L83.7391 36.2995H83.5065H83.2739C81.8783 35.7889 80.25 35.5336 78.8543 35.023C76.063 34.0018 73.0391 33.2359 70.2478 32.2146C64.4326 30.1722 58.85 28.1297 53.2674 25.832L51.1739 25.0661L50.0109 24.5555L49.0804 24.0448C47.6848 23.5342 46.2891 22.7683 44.8935 22.2577L42.8 21.2365L40.7065 20.2153L39.7761 19.7046C39.5435 19.4493 39.0783 19.194 38.8456 19.194L36.9848 17.9175L39.0783 18.6834C39.3109 18.9387 39.7761 18.9387 40.0087 19.194L41.1717 19.7046L43.2652 20.4706L45.3587 21.2365C46.7544 21.7471 48.15 22.0024 49.5457 22.513L50.2435 23.0236L51.1739 23.5342L53.5 24.0448C59.3152 25.5767 65.1304 26.8532 70.9456 27.8744C73.9696 28.385 76.7609 28.8957 79.7848 29.4063C81.1804 29.6616 82.8087 29.9169 84.2043 30.1722H84.437H84.6696H85.1348H86.2978L88.3913 30.4275C94.2065 30.9381 100.022 31.1934 105.837 31.1934C117.467 31.1934 129.098 29.9169 140.263 27.3638C151.428 24.8108 162.361 20.9812 173.759 16.641C179.341 14.5985 185.157 12.5561 190.972 10.5136C196.787 8.47118 202.602 6.68404 208.65 4.8969C210.046 4.38628 211.674 4.13098 213.07 3.62037C214.465 3.10976 216.093 2.85445 217.489 2.34384L218.187 2.59914C218.42 2.59914 218.652 2.59914 218.885 2.34384L220.048 2.08853L222.607 1.57792L223.77 1.32261C224.235 1.32261 224.7 1.32261 224.933 1.06731L227.491 0.812002C234.237 0.0460846 241.215 -0.209221 248.193 0.556696C255.172 1.32261 261.917 2.85445 268.43 5.1522C274.943 7.44996 281.224 10.2583 287.272 13.5773C290.296 15.3644 293.32 17.1516 296.111 18.9387C297.739 19.9599 299.135 20.9812 300.53 22.0024C301.926 23.0236 303.322 24.0448 304.717 25.0661C307.509 27.1085 310.067 29.4063 312.859 31.9593C314.254 33.2359 315.417 34.2571 316.813 35.7889C317.511 36.5548 318.209 37.0654 318.674 37.8314L319.139 38.342H319.604L319.837 38.5973L320.302 39.1079L320.535 39.3632L320.767 39.6185L321 40.1291L293.552 65.4044ZM270.757 121.827C270.757 121.827 270.757 121.572 270.524 121.572V121.316V121.061L270.291 120.55C270.059 120.04 269.826 119.529 269.361 118.763C268.663 117.487 267.965 116.466 267.267 115.189C265.872 112.891 264.476 110.594 262.848 108.296C262.15 107.275 261.22 105.998 260.522 104.977C259.591 103.956 258.893 102.679 257.963 101.658C256.335 99.6154 254.474 97.5729 252.613 95.5305C248.891 91.7009 244.937 88.1266 240.75 84.8076C236.563 81.744 232.143 78.9356 227.491 76.8932C222.839 74.8507 217.954 73.0636 213.07 72.0423L211.209 71.787C210.976 71.787 210.511 71.787 210.278 71.5317H209.348L207.487 71.2764H206.557C206.324 71.2764 206.324 71.2764 206.091 71.2764H205.626C204.23 71.2764 202.835 71.0211 201.439 71.0211C200.043 71.0211 198.648 70.7658 197.252 70.7658C191.437 70.5105 185.854 70.5105 179.807 70.5105C173.991 70.5105 168.176 70.7658 162.128 71.0211C156.08 71.2764 150.033 71.2764 143.985 71.2764C137.937 71.2764 131.657 71.0211 125.609 70.2552C119.561 69.7446 113.28 68.7234 107.233 67.1915C101.185 65.915 95.3696 64.1279 89.3218 62.0854C83.5065 60.043 77.6913 57.7452 72.1087 55.4475L70.0152 54.4262L68.8522 53.9156L68.3869 53.6603H68.1543L67.9217 53.405C66.5261 52.6391 65.1305 51.8732 63.7348 51.3626C60.9435 49.8307 58.3848 48.5542 55.5935 47.0224C50.2435 43.9587 44.8935 40.895 39.7761 37.576L37.9152 36.2995L36.9848 35.7889L36.0543 35.023C34.8913 34.2571 33.4957 33.2359 32.3326 32.4699L30.4717 31.1934L28.6109 29.6616L27.6805 28.8956C27.4478 28.6403 26.9826 28.385 26.75 28.1297L24.8891 26.5979L26.75 27.8744C26.9826 28.1297 27.4478 28.385 27.6805 28.385L28.6109 28.8956L30.4717 30.1722L32.5652 31.1934C33.9609 31.9593 35.1239 32.7252 36.5196 33.2359L37.45 33.7465L38.3804 34.2571L40.4739 35.2783C45.8239 37.8314 51.4065 40.1291 56.9891 42.4269C59.7804 43.4481 62.5717 44.4693 65.363 45.7458C66.7587 46.2564 68.1544 46.7671 69.55 47.2777H69.7826H70.0152L70.4804 47.533L71.6435 47.7883L73.737 48.2989C79.3196 49.8307 85.1348 51.3626 90.95 52.3838C102.348 54.6815 113.978 55.7028 125.376 55.1922C136.774 54.9368 148.172 53.1497 160.035 51.1073C165.85 50.086 171.898 49.0648 177.946 48.2989C183.993 47.2777 190.041 46.5118 196.322 46.0011C197.95 45.7458 199.346 45.7458 200.974 45.7458C202.602 45.7458 203.998 45.4905 205.626 45.4905H206.324C206.557 45.4905 206.789 45.4905 207.022 45.4905H208.185H210.743H212.139C212.604 45.4905 213.07 45.4905 213.535 45.4905L216.093 45.7458C222.839 46.2564 229.817 47.533 236.563 49.5754C243.309 51.6179 249.589 54.4262 255.637 58.0005C261.685 61.3195 267.5 65.4044 272.85 69.9999C275.641 72.2977 278.2 74.5954 280.759 76.8932C282.154 78.1697 283.317 79.4462 284.48 80.7227C285.643 81.9993 287.039 83.2758 288.202 84.5523C290.528 87.1054 292.854 89.9138 295.18 92.7221C296.343 94.254 297.507 95.5305 298.437 97.0623C298.902 97.8282 299.6 98.5942 300.065 99.3601L300.53 99.8707L300.763 100.126L300.996 100.381L301.461 101.147L301.693 101.403L301.926 101.658L302.159 101.913L270.757 121.827ZM230.748 160.123C230.05 158.846 229.585 157.57 228.887 156.549C227.491 153.996 226.096 151.698 224.7 149.4C221.676 144.805 218.42 140.464 214.93 136.379C211.441 132.295 207.487 128.72 203.3 125.657C199.113 122.593 194.693 120.04 190.041 117.997L188.18 117.231C187.948 117.231 187.483 116.976 187.25 116.976L186.32 116.721L184.459 115.955L183.528 115.7C183.296 115.7 183.296 115.7 183.063 115.444L182.598 115.189C181.202 114.678 179.807 114.423 178.411 113.913C177.015 113.657 175.62 113.147 174.224 112.891C168.641 111.359 163.059 110.083 157.243 109.062C151.428 107.785 145.613 106.764 139.798 105.743C133.983 104.722 127.935 103.445 121.887 102.168C115.839 100.892 109.791 99.1048 103.976 97.3176C97.9283 95.2752 92.113 93.2327 86.5304 90.4244C80.9478 87.8713 75.3652 84.8076 70.0152 81.744C64.6652 78.6803 59.5478 75.106 54.4305 71.5317L52.5695 70.2552L51.6391 69.4893L51.1739 68.9787L50.9413 68.7234L50.7087 68.4681C49.5456 67.4468 48.3826 66.4256 46.9869 65.4044C44.6609 63.3619 42.1021 61.3195 39.7761 59.2771C35.1239 55.1922 30.4717 51.1073 25.8195 46.7671L24.1913 45.2352L23.2609 44.4693L22.3304 43.7034C21.1674 42.6822 20.2369 41.4056 19.0739 40.3844L17.4456 38.5973L15.8174 36.8101L15.1195 35.7889C14.8869 35.5336 14.6543 35.2783 14.4217 34.7677L13.0261 32.9805L14.6544 34.5124C14.887 34.7677 15.1196 35.023 15.5848 35.2783L16.5152 36.0442L18.1435 37.576L20.0044 39.1079C21.1674 40.1291 22.3304 41.1503 23.4935 41.9162L24.4239 42.6822L25.3544 43.4481L27.2152 44.7246C32.1 48.2989 37.2174 51.8732 42.3348 55.1922C44.8935 56.9793 47.4522 58.5111 50.0109 60.043C51.4065 60.8089 52.5695 61.5748 53.9652 62.3407H54.1978L54.4305 62.596L54.8957 62.8513L55.8261 63.3619L57.687 64.3832C63.037 67.1915 68.387 69.7446 73.737 72.0423C84.6696 76.6378 95.8348 79.9568 107 81.9993C118.398 84.0417 129.796 84.8076 141.659 85.3183C147.474 85.5736 153.522 85.8289 159.57 86.3395C165.617 86.8501 171.898 87.3607 177.946 88.1266C179.574 88.3819 180.97 88.6372 182.598 88.6372C184.226 88.8925 185.622 89.1478 187.25 89.4031H187.715C187.948 89.4031 188.18 89.4031 188.413 89.4031L189.576 89.6585L192.135 90.1691L193.298 90.4244C193.763 90.4244 194.228 90.6797 194.461 90.6797L197.717 91.9562C204.463 93.7433 210.976 96.5517 217.024 99.8707C223.072 103.19 229.12 107.275 234.47 112.125C239.82 116.721 244.704 121.827 249.357 127.444C251.683 130.252 253.776 133.06 255.87 135.869C257.033 137.401 257.963 138.933 258.893 140.209C259.824 141.741 260.754 143.273 261.685 144.805C263.546 147.868 265.407 150.932 267.035 154.251C267.965 155.783 268.663 157.57 269.593 159.357C270.059 160.123 270.291 161.144 270.757 161.91L270.989 162.676V163.442L271.222 163.697L271.454 164.463L271.687 164.974V165.229L271.92 165.484L237.959 178.76V178.505C237.959 178.505 237.959 178.25 237.959 177.994V177.739V177.484L237.726 176.973C237.493 176.462 237.261 175.697 237.261 175.186C236.796 173.909 236.33 172.633 235.865 171.356C234.935 168.803 233.772 166.25 232.609 163.697C232.143 162.676 231.446 161.399 230.748 160.123ZM1.39566 38.342C1.62827 38.5973 1.86084 39.1079 2.09344 39.3632L2.79126 40.3844L4.18698 42.1716L5.58261 43.9587C6.51305 45.2352 7.67607 46.2564 8.60651 47.533L9.30435 48.2989L10.0022 49.0648L11.6304 50.852C15.8174 55.4475 20.2369 59.7877 24.8891 63.8726C27.2152 65.915 29.3087 68.2128 31.6348 70.2552C32.7978 71.2764 33.9609 72.2976 35.1239 73.3189L35.3565 73.5742L35.5891 73.8295L36.0543 74.0848L36.9848 74.8507L38.8456 76.3825C43.4978 80.2121 48.3826 83.7864 53.5 87.1054C63.5022 93.7433 73.9696 99.1048 84.6696 103.445C95.6022 107.53 106.767 110.594 118.398 113.402C124.213 114.678 130.028 116.21 136.076 117.742C141.891 119.274 147.939 121.061 153.987 122.848C155.383 123.359 157.011 123.869 158.407 124.38C159.802 124.891 161.43 125.401 162.826 125.912L163.291 126.167C163.524 126.167 163.757 126.167 163.757 126.423L164.92 126.933L167.246 127.954L168.641 127.699C169.107 127.954 169.339 127.954 169.804 128.21L172.13 129.231C178.411 132.295 184.459 136.124 189.809 140.72C195.391 145.315 200.509 150.421 204.928 156.038C209.58 161.655 213.535 167.782 217.257 173.909C219.117 176.973 220.746 180.292 222.374 183.611C223.072 185.143 224.002 186.93 224.7 188.462C225.398 190.249 226.096 191.781 226.793 193.568C228.189 196.887 229.352 200.461 230.515 204.035C230.98 205.823 231.678 207.61 232.143 209.397C232.376 210.418 232.609 211.184 232.841 212.205L233.074 212.971V213.227V213.737L233.307 214.503V215.014V215.269V215.524L197.95 222.162V221.907C197.95 221.907 197.95 221.652 197.95 221.396V221.141V220.886V220.375C197.95 219.864 197.717 219.099 197.717 218.333C197.485 217.056 197.252 215.78 197.02 214.248C196.554 211.439 195.857 208.886 195.159 206.078C194.693 204.801 194.461 203.27 193.996 201.993C193.53 200.717 193.065 199.185 192.6 197.908C191.67 195.355 190.739 192.547 189.576 189.994C187.483 184.888 184.924 180.037 182.133 175.441C179.341 170.846 176.085 166.506 172.363 162.676C168.874 158.846 164.687 155.527 160.5 152.464L158.872 151.442C158.639 151.187 158.407 151.187 157.941 150.932L157.011 150.421L155.383 149.4L154.452 148.889C154.22 148.889 154.22 148.634 153.987 148.634L153.522 148.379C152.126 147.613 150.963 147.102 149.567 146.336C148.172 145.826 147.009 145.06 145.613 144.294C140.263 141.741 134.913 139.443 129.563 137.145C124.213 134.848 118.63 132.805 112.815 130.507C107.233 128.21 101.417 126.167 95.8348 123.614C90.2522 121.061 84.4369 118.508 78.8543 115.444C73.2717 112.381 67.9217 109.062 62.8043 105.487C57.6869 101.913 52.5696 97.8282 47.9174 93.7433C43.0326 89.6585 38.613 85.3182 34.1935 80.7227L32.5652 78.9356L31.6348 78.1697L31.1696 77.6591L30.937 77.4038L30.7043 77.1485C29.5413 75.8719 28.6109 74.8507 27.6805 73.5742C25.587 71.2764 23.4935 68.7234 21.6326 66.4256C17.6783 61.5748 13.7239 56.4687 10.0022 51.3626L8.60651 49.3201L7.90869 48.2989L7.21088 47.2777C6.28044 46.0011 5.35002 44.7246 4.65219 43.1928L3.2565 41.1503L2.09344 39.1079L1.39566 38.0867C1.39566 39.1079 1.39566 38.8526 1.39566 38.342Z" fill="#F4F3F4"/>
</svg>
