<svg width="558" height="359" viewBox="0 0 558 359" fill="none" xmlns="http://www.w3.org/2000/svg">
<path opacity="0.05" fill-rule="evenodd" clip-rule="evenodd" d="M694.1 140.58L693.55 140.03V139.481L693 138.931L692.45 138.382C691.35 137.282 690.8 136.183 689.7 135.084C688.05 132.886 685.85 130.688 683.65 128.49C679.8 124.093 675.4 119.697 671 115.85C668.8 113.652 666.6 112.003 664.4 109.805C662.2 107.607 660 105.958 657.25 103.76C652.3 99.9134 647.35 96.6162 642.4 92.7694C632.5 86.1748 622.05 80.1298 611.05 75.1839C600.05 70.238 589.05 66.3912 577.5 63.6435C565.95 60.8958 553.85 59.2471 542.3 59.2471H537.9C537.35 59.2471 536.25 59.2471 535.7 59.2471H533.5H529.1H526.9C526.35 59.2471 526.35 59.2471 525.8 59.2471H524.7C521.4 59.7967 518.1 59.7967 514.8 60.3462C511.5 60.8958 508.2 60.8958 504.9 61.4453C491.7 63.094 477.95 65.2921 464.2 68.0399C450.45 70.7876 436.7 73.5353 422.95 76.283C409.2 79.0307 394.9 81.7785 380.6 83.9767C366.3 86.1748 352 88.373 337.15 89.4721C322.3 90.5712 308 91.1207 293.15 90.5712C278.85 90.0216 264 88.9225 249.7 87.2739C235.4 85.6253 221.1 82.8776 207.35 80.1298L201.85 79.0308L199.1 78.4812L198 77.9317H197.45H196.9C193.6 76.8326 189.75 76.283 186.45 75.1839C179.85 72.9858 172.7 71.3371 166.1 69.139C152.35 64.7426 139.15 60.3462 125.95 55.4003L121 53.7517L118.25 52.6526L116.05 51.5535C112.75 50.4544 109.45 48.8058 106.15 47.7067L101.2 45.5085L96.25 43.3104L94.05 42.2113C93.5 41.6617 92.4 41.1122 91.85 41.1122L87.45 38.3645L92.4001 40.0131C92.9501 40.5626 94.05 40.5626 94.6 41.1122L97.35 42.2113L102.3 43.8599L107.25 45.5085C110.55 46.6076 113.85 47.1572 117.15 48.2563L118.8 49.3554L121 50.4544L126.5 51.5535C140.25 54.8508 154 57.5985 167.75 59.7967C174.9 60.8958 181.5 61.9949 188.65 63.094C191.95 63.6435 195.8 64.1931 199.1 64.7426H199.65H200.2H201.3H204.05L209 65.2921C222.75 66.3912 236.5 66.9408 250.25 66.9408C277.75 66.9408 305.25 64.193 331.65 58.6976C358.05 53.2022 383.9 44.959 410.85 35.6167C424.05 31.2204 437.8 26.824 451.55 22.4277C465.3 18.0313 479.05 14.1845 493.35 10.3377C496.65 9.2386 500.5 8.68906 503.8 7.58997C507.1 6.49088 510.95 5.94134 514.25 4.84225L515.9 5.39179C516.45 5.39179 517 5.39179 517.55 4.84225L520.3 4.2927L526.35 3.19362L529.1 2.64407C530.2 2.64407 531.3 2.64407 531.85 2.09453L537.9 1.54498C553.85 -0.103651 570.35 -0.653195 586.85 0.995438C603.35 2.64407 619.3 5.94134 634.7 10.8872C650.1 15.8331 664.95 21.8781 679.25 29.0222C686.4 32.869 693.55 36.7158 700.15 40.5626C704 42.7608 707.3 44.959 710.6 47.1572C713.9 49.3554 717.2 51.5535 720.5 53.7517C727.1 58.1481 733.15 63.094 739.75 68.5894C743.05 71.3371 745.8 73.5353 749.1 76.8326C750.75 78.4812 752.4 79.5803 753.5 81.2289L754.6 82.328H755.7L756.25 82.8776L757.35 83.9767L757.9 84.5262L758.45 85.0757L759 86.1748L694.1 140.58ZM640.2 262.029C640.2 262.029 640.2 261.479 639.65 261.479V260.93V260.38L639.1 259.281C638.55 258.182 638 257.083 636.9 255.435C635.25 252.687 633.6 250.489 631.95 247.741C628.65 242.795 625.35 237.849 621.5 232.903C619.85 230.705 617.65 227.957 616 225.759C613.8 223.561 612.15 220.813 609.95 218.615C606.1 214.219 601.7 209.822 597.3 205.426C588.5 197.183 579.15 189.489 569.25 182.345C559.35 175.751 548.9 169.706 537.9 165.309C526.9 160.913 515.35 157.066 503.8 154.868L499.4 154.318C498.85 154.318 497.75 154.318 497.2 153.769H495L490.6 153.219H488.4C487.85 153.219 487.85 153.219 487.3 153.219H486.2C482.9 153.219 479.6 152.67 476.3 152.67C473 152.67 469.7 152.12 466.4 152.12C452.65 151.571 439.45 151.571 425.15 151.571C411.4 151.571 397.65 152.12 383.35 152.67C369.05 153.219 354.75 153.219 340.45 153.219C326.15 153.219 311.3 152.67 297 151.021C282.7 149.922 267.85 147.724 253.55 144.427C239.25 141.679 225.5 137.832 211.2 133.436C197.45 129.039 183.7 124.093 170.5 119.147L165.55 116.949L162.8 115.85L161.7 115.301H161.15L160.6 114.751C157.3 113.103 154 111.454 150.7 110.355C144.1 107.058 138.05 104.31 131.45 101.013C118.8 94.418 106.15 87.8235 94.05 80.6794L89.65 77.9317L87.45 76.8326L85.25 75.1839C82.5 73.5353 79.2 71.3371 76.45 69.6885L72.05 66.9408L67.65 63.6435L65.4501 61.9949C64.9001 61.4453 63.8 60.8958 63.2501 60.3462L58.85 57.049L63.2501 59.7967C63.8 60.3462 64.9001 60.8958 65.4501 60.8958L67.65 61.9949L72.05 64.7426L77.0001 66.9408C80.3 68.5894 83.05 70.238 86.35 71.3371L88.55 72.4362L90.75 73.5353L95.7 75.7335C108.35 81.2289 121.55 86.1748 134.75 91.1207C141.35 93.3189 147.95 95.5171 154.55 98.2648C157.85 99.3639 161.15 100.463 164.45 101.562H165H165.55L166.65 102.112L169.4 102.661L174.35 103.76C187.55 107.058 201.3 110.355 215.05 112.553C242 117.499 269.5 119.697 296.45 118.598C323.4 118.048 350.35 114.202 378.4 109.805C392.15 107.607 406.45 105.409 420.75 103.76C435.05 101.562 449.35 99.9134 464.2 98.8143C468.05 98.2648 471.35 98.2648 475.2 98.2648C479.05 98.2648 482.35 97.7153 486.2 97.7153H487.85C488.4 97.7153 488.95 97.7153 489.5 97.7153H492.25H498.3H501.6C502.7 97.7153 503.8 97.7153 504.9 97.7153L510.95 98.2648C526.9 99.3639 543.4 102.112 559.35 106.508C575.3 110.904 590.15 116.949 604.45 124.643C618.75 131.787 632.5 140.58 645.15 150.472C651.75 155.417 657.8 160.363 663.85 165.309C667.15 168.057 669.9 170.805 672.65 173.552C675.4 176.3 678.7 179.048 681.45 181.796C686.95 187.291 692.45 193.336 697.95 199.381C700.7 202.678 703.45 205.426 705.65 208.723C706.75 210.372 708.4 212.021 709.5 213.669L710.6 214.768L711.15 215.318L711.7 215.867L712.8 217.516L713.35 218.065L713.9 218.615L714.45 219.165L640.2 262.029ZM545.6 344.461C543.95 341.713 542.85 338.965 541.2 336.767C537.9 331.272 534.6 326.326 531.3 321.38C524.15 311.488 516.45 302.146 508.2 293.353C499.95 284.56 490.6 276.867 480.7 270.272C470.8 263.678 460.35 258.182 449.35 253.786L444.95 252.137C444.4 252.137 443.3 251.588 442.75 251.588L440.55 251.038L436.15 249.39L433.95 248.84C433.4 248.84 433.4 248.84 432.85 248.29L431.75 247.741C428.45 246.642 425.15 246.092 421.85 244.993C418.55 244.444 415.25 243.345 411.95 242.795C398.75 239.498 385.55 236.75 371.8 234.552C358.05 231.804 344.3 229.606 330.55 227.408C316.8 225.21 302.5 222.462 288.2 219.714C273.9 216.966 259.6 213.12 245.85 209.273C231.55 204.876 217.8 200.48 204.6 194.435C191.4 188.94 178.2 182.345 165.55 175.751C152.9 169.156 140.8 161.462 128.7 153.769L124.3 151.021L122.1 149.372L121 148.273L120.45 147.724L119.9 147.174C117.15 144.976 114.4 142.778 111.1 140.58C105.6 136.183 99.55 131.787 94.05 127.391C83.05 118.598 72.05 109.805 61.05 100.463L57.2 97.1657L55 95.5171L52.8 93.8684C50.05 91.6703 47.85 88.9226 45.1 86.7244L41.25 82.8776L37.4 79.0308L35.75 76.8326C35.2 76.283 34.65 75.7335 34.1 74.6344L30.8 70.7876L34.65 74.0849C35.2001 74.6344 35.75 75.1839 36.85 75.7335L39.05 77.3821L42.9 80.6794L47.3 83.9767C50.05 86.1748 52.8 88.373 55.55 90.0216L57.75 91.6703L59.9501 93.3189L64.35 96.0666C75.9 103.76 88.0001 111.454 100.1 118.598C106.15 122.445 112.2 125.742 118.25 129.039C121.55 130.688 124.3 132.337 127.6 133.985H128.15L128.7 134.535L129.8 135.084L132 136.183L136.4 138.382C149.05 144.427 161.7 149.922 174.35 154.868C200.2 164.76 226.6 171.904 253 176.3C279.95 180.696 306.9 182.345 334.95 183.444C348.7 183.994 363 184.543 377.3 185.642C391.6 186.741 406.45 187.841 420.75 189.489C424.6 190.039 427.9 190.588 431.75 190.588C435.6 191.138 438.9 191.687 442.75 192.237H443.85C444.4 192.237 444.95 192.237 445.5 192.237L448.25 192.786L454.3 193.886L457.05 194.435C458.15 194.435 459.25 194.985 459.8 194.985L467.5 197.732C483.45 201.579 498.85 207.624 513.15 214.768C527.45 221.912 541.75 230.705 554.4 241.146C567.05 251.038 578.6 262.029 589.6 274.119C595.1 280.164 600.05 286.209 605 292.254C607.75 295.551 609.95 298.849 612.15 301.596C614.35 304.894 616.55 308.191 618.75 311.488C623.15 318.083 627.55 324.677 631.4 331.821C633.6 335.118 635.25 338.965 637.45 342.812C638.55 344.461 639.1 346.659 640.2 348.308L640.75 349.956V351.605L641.3 352.154L641.85 353.803L642.4 354.902V355.452L642.95 356.001L562.65 384.577V384.028C562.65 384.028 562.65 383.478 562.65 382.929V382.379V381.83L562.1 380.731C561.55 379.632 561 377.983 561 376.884C559.9 374.136 558.8 371.388 557.7 368.641C555.5 363.145 552.75 357.65 550 352.154C548.9 349.956 547.25 347.208 545.6 344.461ZM562.65 384.577C562.65 384.577 563.2 384.577 562.65 384.577V384.577ZM3.30005 82.328C3.85004 82.8776 4.39996 83.9766 4.94995 84.5262L6.59998 86.7244L9.90002 90.5712L13.2 94.418C15.4 97.1657 18.15 99.3639 20.35 102.112L22 103.76L23.65 105.409L27.5 109.256C37.4 119.147 47.85 128.49 58.85 137.282C64.35 141.679 69.3 146.625 74.8 151.021C77.55 153.219 80.3 155.417 83.05 157.616L83.6 158.165L84.15 158.715L85.25 159.264L87.45 160.913L91.85 164.21C102.85 172.453 114.4 180.147 126.5 187.291C150.15 201.579 174.9 213.12 200.2 222.462C226.05 231.255 252.45 237.849 279.95 243.894C293.7 246.642 307.45 249.939 321.75 253.236C335.5 256.534 349.8 260.38 364.1 264.227C367.4 265.326 371.25 266.425 374.55 267.525C377.85 268.624 381.7 269.723 385 270.822L386.1 271.371C386.65 271.371 387.2 271.371 387.2 271.921L389.95 273.02L395.45 275.218L398.75 274.669C399.85 275.218 400.4 275.218 401.5 275.768L407 277.966C421.85 284.56 436.15 292.804 448.8 302.695C462 312.587 474.1 323.578 484.55 335.668C495.55 347.758 504.9 360.947 513.7 374.136C518.1 380.731 521.95 387.875 525.8 395.019C527.45 398.316 529.65 402.163 531.3 405.46C532.95 409.307 534.6 412.604 536.25 416.451C539.55 423.595 542.3 431.289 545.05 438.982C546.15 442.829 547.8 446.676 548.9 450.523C549.45 452.721 550 454.37 550.55 456.568L551.1 458.216V458.766V459.865L551.65 461.514V462.613V463.162V463.712L468.05 478V477.451C468.05 477.451 468.05 476.901 468.05 476.351V475.802V475.252V474.153C468.05 473.054 467.5 471.405 467.5 469.757C466.95 467.009 466.4 464.261 465.85 460.964C464.75 454.919 463.1 449.424 461.45 443.379C460.35 440.631 459.8 437.334 458.7 434.586C457.6 431.838 456.5 428.541 455.4 425.793C453.2 420.298 451 414.253 448.25 408.757C443.3 397.767 437.25 387.325 430.65 377.433C424.05 367.542 416.35 358.199 407.55 349.956C399.3 341.713 389.4 334.569 379.5 327.974L375.65 325.776C375.1 325.227 374.55 325.227 373.45 324.677L371.25 323.578L367.4 321.38L365.2 320.281C364.65 320.281 364.65 319.731 364.1 319.731L363 319.182C359.7 317.533 356.95 316.434 353.65 314.785C350.35 313.686 347.6 312.038 344.3 310.389C331.65 304.894 319 299.948 306.35 295.002C293.7 290.056 280.5 285.659 266.75 280.714C253.55 275.768 239.8 271.371 226.6 265.876C213.4 260.38 199.65 254.885 186.45 248.29C173.25 241.696 160.6 234.552 148.5 226.858C136.4 219.165 124.3 210.372 113.3 201.579C101.75 192.786 91.3 183.444 80.85 173.552L77.0001 169.706L74.8 168.057L73.7 166.958L73.15 166.408L72.6 165.859C69.85 163.111 67.6501 160.913 65.4501 158.165C60.5001 153.219 55.55 147.724 51.15 142.778C41.8 132.337 32.45 121.346 23.65 110.355L20.35 105.958L18.7 103.76L17.05 101.562C14.85 98.8143 12.65 96.0666 11.0001 92.7694L7.70001 88.373L4.94995 83.9767L3.30005 81.7785C3.30005 83.9766 3.30005 83.4271 3.30005 82.328L0 77.9317L3.30005 82.328Z" fill="#231F20"/>
</svg>
