<svg width="747" height="185" viewBox="0 0 747 185" fill="none" xmlns="http://www.w3.org/2000/svg">
<path opacity="0.1" fill-rule="evenodd" clip-rule="evenodd" d="M767.505 283.954L767.049 283.164L767.216 282.541L766.76 281.752L766.304 280.962C765.392 279.382 765.103 277.97 764.191 276.39C762.991 273.398 761.167 270.239 759.343 267.08C756.318 260.929 752.671 254.611 748.856 248.915C747.032 245.756 745.042 243.22 743.218 240.061C741.394 236.902 739.403 234.366 736.957 231.04C732.52 225.178 727.915 219.939 723.478 214.076C714.27 203.598 704.272 193.575 693.317 184.632C682.362 175.688 671.073 167.99 658.828 161.371C646.583 154.752 633.381 149.212 620.301 145.707L615.319 144.372C614.696 144.205 613.45 143.871 612.827 143.704L610.336 143.037L605.353 141.702L602.862 141.034C602.239 140.867 602.239 140.867 601.616 140.7L600.37 140.367C596.466 139.988 592.729 138.987 588.825 138.608C584.921 138.23 581.184 137.228 577.28 136.85C561.831 134.713 545.593 133.032 529.187 131.975C512.781 130.917 496.376 129.859 479.97 128.801C463.565 127.743 446.536 126.518 429.675 124.671C412.813 122.823 395.952 120.975 378.801 117.715C361.651 114.455 345.29 110.738 328.64 105.609C312.613 100.647 296.13 94.8956 280.437 88.6878C264.743 82.4801 249.384 75.0265 234.647 67.7399L228.753 64.8253L225.805 63.3679L224.726 62.4113L224.104 62.2444L223.481 62.0775C220.078 59.8304 215.885 58.0393 212.481 55.7922C205.675 51.298 198.078 47.2598 191.272 42.7657C177.036 33.6104 163.423 24.622 149.977 15.0108L144.872 11.6402L142.091 9.55998L139.934 7.64667C136.531 5.39958 133.294 2.52963 129.891 0.282536L124.953 -3.71097L120.015 -7.7045L117.857 -9.61782C117.401 -10.4076 116.323 -11.3642 115.7 -11.5311L111.552 -15.9806L116.657 -12.61C117.112 -11.8202 118.358 -11.4864 118.814 -10.6967L121.594 -8.61647L126.699 -5.24584L131.804 -1.87518C135.208 0.371909 138.778 1.99611 142.181 4.2432L143.716 5.98962L145.873 7.90295L151.768 10.8176C166.338 18.7271 181.074 26.0137 195.978 32.6775C203.741 36.0928 210.881 39.3412 218.644 42.7566C222.215 44.3808 226.408 46.1719 229.978 47.7961L230.601 47.963L231.223 48.1299L232.469 48.4636L235.583 49.2981L241.022 51.423C256.259 56.841 271.664 61.6361 287.235 65.8084C318.377 74.1529 350.353 79.3831 381.919 81.1651C413.484 82.9471 445.262 81.4479 478.618 79.0367C494.902 78.0591 511.808 77.2483 528.714 76.4376C545.621 75.6269 562.36 75.439 579.722 75.4181C583.793 75.1737 588.32 75.719 592.391 75.4746C596.462 75.2302 600.988 75.7756 605.059 75.5312L606.761 76.6547C607.384 76.8216 608.007 76.9885 608.796 76.5325L612.077 76.7441L619.262 77.3341L622.544 77.5457C623.789 77.8795 625.035 78.2133 625.825 77.7573L632.843 78.9702C651.406 81.9414 670.258 86.3253 688.443 93.2006C706.627 100.076 723.689 108.653 739.626 118.932C755.564 129.211 770.545 140.568 784.569 153.005C791.497 159.534 798.426 166.064 804.732 172.427C808.424 176.087 811.494 179.58 814.563 183.072C817.633 186.565 820.702 190.058 823.772 193.551C829.911 200.537 835.26 207.978 841.065 216.21C843.968 220.325 846.414 223.651 849.15 228.39C850.518 230.759 852.052 232.506 852.797 234.708L853.709 236.287L854.955 236.621L855.411 237.411L856.323 238.991L856.779 239.78L857.235 240.57L857.524 241.983L767.505 283.954ZM669.582 405.254C669.582 405.254 669.749 404.631 669.126 404.464L669.293 403.841L669.46 403.218L669.171 401.806C668.882 400.393 668.593 398.98 667.848 396.778C666.814 393.163 665.613 390.171 664.579 386.556C662.344 379.949 660.109 373.341 657.251 366.567C656.05 363.575 654.393 359.793 653.192 356.801C651.368 353.642 650.334 350.027 648.511 346.868C645.486 340.717 641.838 334.399 638.191 328.08C630.729 316.067 622.477 304.51 613.435 293.408C604.227 282.93 594.229 272.907 583.107 264.586C571.985 256.266 560.074 248.401 547.662 242.405L542.846 240.447C542.223 240.28 540.977 239.946 540.522 239.156L538.03 238.489L533.214 236.531L530.723 235.863C530.1 235.696 530.1 235.696 529.477 235.529L528.232 235.196C524.494 234.194 520.924 232.57 517.187 231.569C513.45 230.567 509.88 228.943 506.143 227.942C490.739 223.147 475.791 219.141 459.597 214.802C444.026 210.63 428.287 207.08 411.927 203.364C395.566 199.648 379.372 195.309 363.178 190.97C346.984 186.63 330.334 181.502 314.641 175.294C298.781 169.709 282.632 162.711 267.439 154.635C252.08 147.181 237.677 138.649 222.818 129.327C208.582 120.172 194.513 110.393 181.067 100.782L176.129 96.7887L173.348 94.7085L172.27 93.7519L171.647 93.585L171.191 92.7952C167.955 89.9253 164.718 87.0553 161.315 84.8082C154.842 79.0683 148.825 74.1181 142.353 68.3782C130.03 57.0652 117.707 45.7523 106.174 33.9833L102.026 29.5338L99.8686 27.6205L97.8779 25.0843C95.2644 22.3813 92.195 18.8884 89.5815 16.1854L85.4332 11.7359L81.4518 6.66351L79.4612 4.12733C79.0053 3.33758 77.9264 2.38092 77.4705 1.59115L73.4891 -3.48123L77.6374 0.968275C78.0933 1.75804 79.1722 2.71471 79.795 2.88159L81.9525 4.79488L86.1008 9.24439L91.0388 13.2379C94.2752 16.1079 96.8887 18.8109 100.292 21.058L102.45 22.9713L104.607 24.8846L109.545 28.8781C122.202 38.9454 135.648 48.5566 149.094 58.1678C155.9 62.662 162.707 67.1562 169.347 72.2732C172.75 74.5203 176.153 76.7674 179.556 79.0145L180.179 79.1814L180.802 79.3483L181.881 80.305L184.828 81.7623L190.1 84.51C204.047 92.2526 218.616 100.162 233.52 106.826C262.537 120.609 293.012 131.445 323.865 138.377C354.551 145.932 386.239 149.75 419.339 153.278C435.578 154.959 452.439 156.806 469.134 159.277C485.996 161.125 502.69 163.595 519.841 166.855C524.368 167.401 528.105 168.402 532.465 169.57C536.824 170.739 540.728 171.117 545.088 172.285L546.957 172.786C547.58 172.953 548.203 173.12 548.825 173.287L551.94 174.121L558.791 175.957L562.528 176.958C563.774 177.292 565.019 177.626 566.265 177.96L572.949 180.418C590.678 186.504 608.529 194.625 625.256 204.448C641.983 214.271 656.964 225.628 670.822 238.688C684.846 251.124 697.747 265.262 709.068 280.313C715.04 287.921 720.389 295.363 725.738 302.804C728.641 306.92 730.921 310.869 733.2 314.818C735.48 318.767 738.383 322.882 740.662 326.831C745.222 334.729 749.614 343.249 754.007 351.77C756.12 356.341 758.4 360.29 759.89 364.695C760.635 366.897 762.002 369.267 762.747 371.469L763.659 373.049L764.115 373.838L764.571 374.628L765.316 376.831L765.772 377.62L766.228 378.41L766.684 379.2L669.582 405.254ZM537.418 469.98C536.384 466.365 535.973 462.917 534.772 459.924C532.704 452.694 530.469 446.087 528.234 439.48C523.141 426.099 517.259 413.173 510.586 400.704C503.914 388.235 495.662 376.677 486.454 366.199C477.245 355.72 467.08 346.321 455.959 338L451.477 334.796C450.854 334.629 449.775 333.672 449.152 333.506L446.828 332.215L442.346 329.011L440.021 327.721C439.398 327.554 439.398 327.554 438.942 326.764L437.863 325.808C434.46 323.561 430.89 321.936 427.487 319.689C423.917 318.065 420.513 315.818 416.943 314.194C402.996 306.451 388.883 299.331 373.979 292.668C359.242 285.381 344.339 278.717 329.435 272.053C314.532 265.39 299.172 257.936 283.813 250.483C268.454 243.029 253.428 234.33 239.025 225.797C224.166 216.475 209.93 207.32 196.818 196.463C183.539 186.229 170.593 174.749 158.271 163.436C145.948 152.123 134.582 139.731 123.216 127.34L119.068 122.89L117.077 120.354L116.165 118.774L115.709 117.985L115.253 117.195C112.807 113.869 110.36 110.543 107.291 107.05C102.397 100.398 96.8813 93.5795 91.9881 86.9276C82.2016 73.6238 72.4151 60.32 62.7955 46.3933L59.437 41.4879L57.4464 38.9517L55.4557 36.4155C53.009 33.0896 51.3521 29.3076 48.9055 25.9817L45.7139 20.4533L42.5222 14.925L41.3213 11.9328C40.8653 11.143 40.4094 10.3533 40.1204 8.94066L37.5516 3.57921L40.9101 8.48468C41.3661 9.27445 41.822 10.0642 42.9008 11.0208L44.8915 13.557L48.25 18.4625L52.2314 23.5349C54.678 26.8608 57.1246 30.1868 59.7381 32.8898L61.7288 35.426L63.7195 37.9622L67.8677 42.4117C78.6109 54.6366 89.9769 67.0284 101.51 78.7974C107.193 84.9933 113.043 90.5663 118.893 96.1394C122.129 99.0093 124.742 101.712 127.979 104.582L128.602 104.749L129.058 105.539L130.136 106.496L132.294 108.409L136.609 112.236C149.099 122.926 161.755 132.993 174.578 142.437C200.848 161.493 228.575 177.601 257.136 190.595C286.32 203.755 316.339 213.802 347.77 223.559C363.174 228.354 379.201 233.316 395.061 238.901C410.922 244.486 427.405 250.237 443.098 256.445C447.291 258.236 450.861 259.861 455.221 261.029C459.414 262.82 462.984 264.444 467.177 266.235L468.423 266.569C469.046 266.736 469.668 266.903 470.291 267.07L473.239 268.527L479.756 271.609L482.703 273.066C483.949 273.4 485.028 274.356 485.651 274.523L493.536 279.974C510.43 289.174 526.034 300.699 540.058 313.135C554.083 325.572 567.606 339.877 578.76 355.55C590.082 370.6 599.823 386.562 608.609 403.603C613.001 412.124 616.771 420.477 620.541 428.831C622.653 433.403 624.143 437.807 625.8 441.589C627.29 445.994 628.78 450.399 630.27 454.804C633.25 463.613 636.23 472.423 638.42 481.689C639.91 486.093 640.611 490.954 641.934 495.982C642.679 498.184 642.634 500.843 643.379 503.045L643.501 505.08L643 506.949L643.456 507.739L643.578 509.774L643.868 511.187L643.701 511.81L644.157 512.6L544.543 520.623L544.71 520C544.71 520 544.876 519.377 545.043 518.754L545.21 518.132L545.377 517.509L545.088 516.096C544.799 514.683 544.677 512.648 545.011 511.402C544.599 507.954 544.188 504.506 543.777 501.058C542.955 494.161 541.509 487.098 540.064 480.035C539.486 477.21 538.452 473.595 537.418 469.98ZM544.543 520.623C544.543 520.623 545.165 520.79 544.543 520.623V520.623ZM2.90457 8.31502C3.36054 9.10479 3.64955 10.5174 4.10545 11.3072L5.30639 14.2993L7.87523 19.6608L10.4439 25.0222C12.1009 28.8042 14.5475 32.1301 16.2044 35.9121L17.5722 38.2813L18.94 40.6507L22.1317 46.179C30.3387 60.3947 39.3354 74.1545 49.1219 87.4583C54.0152 94.1102 58.1187 101.218 63.012 107.87C65.4586 111.196 67.9052 114.522 70.3518 117.848L70.8078 118.638L71.2638 119.427L72.3425 120.384L74.3332 122.92L78.3145 127.993C88.268 140.673 99.0111 152.898 110.544 164.667C132.987 188.038 157.51 208.629 183.324 226.895C209.927 244.704 237.821 260.19 267.127 275.386C281.863 282.672 296.433 290.582 311.626 298.658C326.195 306.568 341.221 315.267 356.247 323.966C359.65 326.213 363.676 328.627 367.079 330.874C370.483 333.122 374.509 335.536 377.912 337.783L378.991 338.739C379.614 338.906 380.237 339.073 380.07 339.696L382.85 341.776L388.411 345.937L392.315 346.315C393.394 347.272 394.016 347.439 395.095 348.395L400.656 352.556C415.47 364.536 429.161 378.218 440.482 393.269C452.426 408.486 462.79 424.615 470.953 441.489C479.738 458.53 486.321 476.316 492.281 493.935C495.261 502.745 497.451 512.01 499.641 521.276C500.508 525.514 501.831 530.542 502.698 534.779C503.399 539.64 504.266 543.878 504.966 548.739C506.533 557.838 507.311 567.392 508.089 576.947C508.166 581.641 508.866 586.502 508.944 591.196C508.899 593.854 509.021 595.889 508.976 598.548L509.099 600.583L508.932 601.206L508.598 602.452L508.72 604.487L508.386 605.733L508.219 606.356L508.052 606.979L409.041 597.806L409.208 597.184C409.208 597.184 409.375 596.561 409.541 595.938L409.708 595.315L409.875 594.692L410.209 593.446C410.543 592.201 410.421 590.165 410.921 588.296C411.133 585.015 411.345 581.734 411.723 577.83C412.313 570.644 412.114 563.915 412.081 556.563C411.67 553.114 412.049 549.21 411.637 545.762C411.226 542.314 410.982 538.243 410.571 534.795C409.748 527.899 409.093 520.379 407.648 513.316C405.38 499.357 401.7 485.686 397.23 472.472C392.76 459.258 386.877 446.332 379.415 434.319C372.576 422.472 363.535 411.371 354.326 400.893L350.634 397.233C350.178 396.443 349.555 396.276 348.476 395.319L346.319 393.406L342.626 389.746L340.469 387.833C339.846 387.666 340.013 387.043 339.39 386.877L338.311 385.92C335.075 383.05 332.294 380.97 329.058 378.1C325.655 375.853 323.041 373.15 319.805 370.28C307.148 360.212 294.325 350.768 281.502 341.324C268.679 331.879 255.065 322.891 240.996 313.113C227.55 303.502 213.314 294.346 200.035 284.112C186.756 273.878 172.854 263.477 159.908 251.997C146.963 240.517 134.807 228.582 123.441 216.19C112.075 203.798 101.043 190.16 91.2564 176.857C80.847 163.386 71.8502 149.626 63.0204 135.244L59.8288 129.715L57.8381 127.179L56.9262 125.599L56.4703 124.81L56.0143 124.02C53.7346 120.071 51.9108 116.912 50.2539 113.13C46.1504 106.022 42.2138 98.2916 38.7332 91.3506C31.3159 76.6788 24.0655 61.3842 17.438 46.2565L15.0361 40.2722L13.8351 37.28L12.6342 34.2878C10.9774 30.5059 9.32045 26.724 8.45331 22.4861L6.05137 16.5017L4.27235 10.6843L3.07147 7.69215C2.40388 10.1836 2.57077 9.56077 2.90457 8.31502L0.502633 2.33067L2.90457 8.31502Z" fill="#8E898F"/>
</svg>
