<svg width="839" height="769" viewBox="0 0 839 769" fill="none" xmlns="http://www.w3.org/2000/svg">
<path opacity="0.05" fill-rule="evenodd" clip-rule="evenodd" d="M1115.68 226.163L1114.8 225.279V224.395L1113.91 223.51L1113.03 222.626C1111.26 220.858 1110.38 219.09 1108.61 217.322C1105.96 213.785 1102.42 210.249 1098.88 206.713C1092.7 199.64 1085.62 192.567 1078.55 186.378C1075.01 182.842 1071.48 180.19 1067.94 176.653C1064.41 173.117 1060.87 170.464 1056.45 166.928C1048.49 160.739 1040.54 155.435 1032.58 149.246C1016.67 138.637 999.87 128.912 982.188 120.955C964.507 112.998 946.826 106.809 928.261 102.389C909.696 97.9683 890.246 95.316 871.681 95.316H864.609C863.725 95.316 861.957 95.316 861.072 95.316H857.536H850.464H846.928C846.043 95.316 846.043 95.316 845.159 95.316H843.391C838.087 96.2001 832.783 96.2001 827.478 97.0842C822.174 97.9683 816.87 97.9683 811.565 98.8524C790.348 101.505 768.246 105.041 746.145 109.462C724.043 113.882 701.942 118.303 679.841 122.723C657.739 127.144 634.754 131.564 611.768 135.101C588.783 138.637 565.797 142.173 541.928 143.941C518.058 145.71 495.073 146.594 471.203 145.71C448.217 144.826 424.348 143.057 401.362 140.405C378.377 137.753 355.391 133.332 333.29 128.912L324.449 127.144L320.029 126.26L318.261 125.375H317.377H316.493C311.188 123.607 305 122.723 299.696 120.955C289.087 117.419 277.594 114.766 266.985 111.23C244.884 104.157 223.667 97.0842 202.449 89.1273L194.493 86.475L190.073 84.7068L186.536 82.9386C181.232 81.1704 175.928 78.5181 170.623 76.7499L162.667 73.2135L154.71 69.6771L151.174 67.9089C150.29 67.0248 148.522 66.1407 147.638 66.1407L140.565 61.7202L148.522 64.3725C149.406 65.2566 151.174 65.2566 152.058 66.1407L156.478 67.9089L164.435 70.5612L172.391 73.2135C177.696 74.9817 183 75.8658 188.304 77.634L190.957 79.4022L194.493 81.1704L203.333 82.9386C225.435 88.2432 247.536 92.6637 269.638 96.2001C281.13 97.9683 291.739 99.7365 303.232 101.505C308.536 102.389 314.725 103.273 320.029 104.157H320.913H321.797H323.565H327.985L335.942 105.041C358.043 106.809 380.145 107.693 402.246 107.693C446.449 107.693 490.652 103.273 533.087 94.4319C575.522 85.5909 617.073 72.3294 660.391 57.2997C681.609 50.2269 703.71 43.1541 725.812 36.0813C747.913 29.0085 770.014 22.8198 793 16.6311C798.304 14.8629 804.493 13.9788 809.797 12.2106C815.101 10.4424 821.29 9.55834 826.594 7.79015L829.246 8.67425C830.13 8.67425 831.014 8.67424 831.899 7.79015L836.319 6.90605L846.043 5.13785L850.464 4.25375C852.232 4.25375 854 4.25375 854.884 3.36965L864.609 2.48555C890.246 -0.166752 916.768 -1.05085 943.29 1.60145C969.812 4.25375 995.449 9.55835 1020.2 17.5152C1044.96 25.4721 1068.83 35.1972 1091.81 46.6905C1103.3 52.8792 1114.8 59.0679 1125.41 65.2566C1131.59 68.793 1136.9 72.3294 1142.2 75.8658C1147.51 79.4022 1152.81 82.9386 1158.12 86.475C1168.72 93.5478 1178.45 101.505 1189.06 110.346C1194.36 114.766 1198.78 118.303 1204.09 123.607C1206.74 126.26 1209.39 128.028 1211.16 130.68L1212.93 132.448H1214.7L1215.58 133.332L1217.35 135.101L1218.23 135.985L1219.12 136.869L1220 138.637L1115.68 226.163ZM1029.04 421.549C1029.04 421.549 1029.04 420.665 1028.16 420.665V419.781V418.897L1027.28 417.128C1026.39 415.36 1025.51 413.592 1023.74 410.94C1021.09 406.519 1018.43 402.983 1015.78 398.562C1010.48 390.605 1005.17 382.648 998.986 374.692C996.333 371.155 992.797 366.735 990.145 363.198C986.609 359.662 983.957 355.241 980.42 351.705C974.232 344.632 967.159 337.559 960.087 330.487C945.942 317.225 930.913 304.848 915 293.354C899.087 282.745 882.29 273.02 864.609 265.947C846.928 258.874 828.362 252.686 809.797 249.149L802.725 248.265C801.841 248.265 800.072 248.265 799.188 247.381H795.652L788.58 246.497H785.043C784.159 246.497 784.159 246.497 783.275 246.497H781.507C776.203 246.497 770.899 245.613 765.594 245.613C760.29 245.613 754.986 244.729 749.681 244.729C727.58 243.845 706.362 243.845 683.377 243.845C661.275 243.845 639.174 244.729 616.188 245.613C593.203 246.497 570.217 246.497 547.232 246.497C524.246 246.497 500.377 245.613 477.391 242.961C454.406 241.192 430.536 237.656 407.551 232.351C384.565 227.931 362.464 221.742 339.478 214.669C317.377 207.597 295.275 199.64 274.058 191.683L266.101 188.146L261.681 186.378L259.913 185.494H259.029L258.145 184.61C252.841 181.958 247.536 179.305 242.232 177.537C231.623 172.233 221.899 167.812 211.29 162.508C190.957 151.898 170.623 141.289 151.174 129.796L144.101 125.375L140.565 123.607L137.029 120.955C132.609 118.303 127.304 114.766 122.884 112.114L115.812 107.693L108.739 102.389L105.203 99.7365C104.319 98.8524 102.551 97.9683 101.667 97.0842L94.5941 91.7796L101.667 96.2001C102.551 97.0842 104.319 97.9683 105.203 97.9683L108.739 99.7365L115.812 104.157L123.768 107.693C129.073 110.346 133.493 112.998 138.797 114.766L142.333 116.534L145.87 118.303L153.826 121.839C174.159 130.68 195.377 138.637 216.594 146.594C227.203 150.13 237.812 153.667 248.42 158.087C253.725 159.855 259.029 161.623 264.333 163.392H265.217H266.101L267.87 164.276L272.29 165.16L280.246 166.928C301.464 172.233 323.565 177.537 345.667 181.074C388.985 189.031 433.188 192.567 476.507 190.799C519.826 189.915 563.145 183.726 608.232 176.653C630.333 173.117 653.319 169.58 676.304 166.928C699.29 163.392 722.275 160.739 746.145 158.971C752.333 158.087 757.638 158.087 763.826 158.087C770.014 158.087 775.319 157.203 781.507 157.203H784.159C785.044 157.203 785.928 157.203 786.812 157.203H791.232H800.957H806.261C808.029 157.203 809.797 157.203 811.565 157.203L821.29 158.087C846.928 159.855 873.449 164.276 899.087 171.349C924.725 178.421 948.594 188.146 971.58 200.524C994.565 212.017 1016.67 226.163 1037 242.077C1047.61 250.033 1057.33 257.99 1067.06 265.947C1072.36 270.368 1076.78 274.788 1081.2 279.209C1085.62 283.629 1090.93 288.05 1095.35 292.47C1104.19 301.311 1113.03 311.036 1121.87 320.761C1126.29 326.066 1130.71 330.487 1134.25 335.791C1136.01 338.443 1138.67 341.096 1140.43 343.748L1142.2 345.516L1143.09 346.4L1143.97 347.284L1145.74 349.937L1146.62 350.821L1147.51 351.705L1148.39 352.589L1029.04 421.549ZM876.986 554.164C874.333 549.743 872.565 545.323 869.913 541.786C864.609 532.945 859.304 524.988 854 517.032C842.507 501.118 830.13 486.088 816.87 471.943C803.609 457.797 788.58 445.419 772.667 434.81C756.754 424.201 739.957 415.36 722.275 408.287L715.203 405.635C714.319 405.635 712.551 404.751 711.667 404.751L708.13 403.867L701.058 401.215L697.522 400.33C696.638 400.33 696.638 400.33 695.754 399.446L693.985 398.562C688.681 396.794 683.377 395.91 678.072 394.142C672.768 393.258 667.464 391.489 662.159 390.605C640.942 385.301 619.725 380.88 597.623 377.344C575.522 372.923 553.42 369.387 531.319 365.851C509.217 362.314 486.232 357.894 463.246 353.473C440.261 349.053 417.275 342.864 395.174 336.675C372.188 329.602 350.087 322.53 328.87 312.805C307.652 303.964 286.435 293.354 266.101 282.745C245.768 272.136 226.319 259.759 206.87 247.381L199.797 242.961L196.261 240.308L194.493 238.54L193.609 237.656L192.725 236.772C188.304 233.236 183.884 229.699 178.58 226.163C169.739 219.09 160.014 212.017 151.174 204.944C133.493 190.799 115.812 176.653 98.1304 161.623L91.942 156.319L88.4058 153.667L84.8696 151.014C80.4493 147.478 76.913 143.057 72.4927 139.521L66.3043 133.332L60.116 127.144L57.4637 123.607C56.5797 122.723 55.6957 121.839 54.8116 120.071L49.5073 113.882L55.6957 119.187C56.5797 120.071 57.4637 120.955 59.2318 121.839L62.7681 124.491L68.9565 129.796L76.0291 135.101C80.4493 138.637 84.8695 142.173 89.2898 144.826L92.826 147.478L96.3623 150.13L103.435 154.551C122 166.928 141.449 179.305 160.899 190.799C170.623 196.987 180.348 202.292 190.073 207.597C195.377 210.249 199.797 212.901 205.101 215.554H205.986L206.87 216.438L208.638 217.322L212.174 219.09L219.246 222.626C239.58 232.351 259.913 241.192 280.246 249.149C321.797 265.063 364.232 276.556 406.667 283.629C449.985 290.702 493.304 293.354 538.391 295.123C560.493 296.007 583.478 296.891 606.464 298.659C629.449 300.427 653.319 302.195 676.304 304.848C682.493 305.732 687.797 306.616 693.985 306.616C700.174 307.5 705.478 308.384 711.667 309.268H713.435C714.319 309.268 715.203 309.268 716.087 309.268L720.507 310.152L730.232 311.92L734.652 312.805C736.42 312.805 738.188 313.689 739.072 313.689L751.449 318.109C777.087 324.298 801.841 334.023 824.826 345.516C847.812 357.01 870.797 371.155 891.13 387.953C911.464 403.867 930.029 421.549 947.71 440.999C956.551 450.724 964.507 460.449 972.464 470.174C976.884 475.479 980.42 480.784 983.956 485.204C987.493 490.509 991.029 495.813 994.565 501.118C1001.64 511.727 1008.71 522.336 1014.9 533.83C1018.43 539.134 1021.09 545.323 1024.62 551.511C1026.39 554.164 1027.28 557.7 1029.04 560.352L1029.93 563.005V565.657L1030.81 566.541L1031.7 569.194L1032.58 570.962V571.846L1033.46 572.73L904.391 618.703V617.819C904.391 617.819 904.391 616.935 904.391 616.051V615.167V614.283L903.507 612.514C902.623 610.746 901.739 608.094 901.739 606.326C899.971 601.905 898.203 597.485 896.435 593.064C892.899 584.223 888.478 575.382 884.058 566.541C882.29 563.005 879.638 558.584 876.986 554.164ZM904.391 618.703C904.391 618.703 905.275 618.703 904.391 618.703V618.703ZM5.30444 132.448C6.18848 133.332 7.07239 135.1 7.95642 135.985L10.6086 139.521L15.9131 145.71L21.2174 151.898C24.7535 156.319 29.1738 159.855 32.7101 164.276L35.3623 166.928L38.0145 169.58L44.2029 175.769C60.116 191.683 76.913 206.713 94.5941 220.858C103.435 227.931 111.391 235.888 120.232 242.961C124.652 246.497 129.072 250.033 133.493 253.57L134.377 254.454L135.261 255.338L137.029 256.222L140.565 258.874L147.638 264.179C165.319 277.441 183.884 289.818 203.333 301.311C241.348 324.298 281.13 342.864 321.797 357.894C363.348 372.039 405.783 382.648 449.985 392.374C472.087 396.794 494.188 402.099 517.174 407.403C539.275 412.708 562.261 418.897 585.246 425.085C590.551 426.853 596.739 428.622 602.043 430.39C607.348 432.158 613.536 433.926 618.841 435.694L620.609 436.579C621.493 436.579 622.377 436.578 622.377 437.463L626.797 439.231L635.638 442.767L640.942 441.883C642.71 442.767 643.594 442.767 645.362 443.651L654.203 447.188C678.072 457.797 701.058 471.058 721.391 486.972C742.609 502.886 762.058 520.568 778.855 540.018C796.536 559.468 811.565 580.687 825.71 601.905C832.783 612.514 838.971 624.008 845.159 635.501C847.812 640.806 851.348 646.994 854 652.299C856.652 658.488 859.304 663.792 861.957 669.981C867.261 681.474 871.681 693.852 876.101 706.229C877.87 712.418 880.522 718.606 882.29 724.795C883.174 728.331 884.058 730.984 884.942 734.52L885.826 737.172V738.057V739.825L886.71 742.477V744.245V745.129V746.013L752.333 769V768.116C752.333 768.116 752.333 767.232 752.333 766.348V765.464V764.58V762.811C752.333 761.043 751.449 758.391 751.449 755.739C750.565 751.318 749.681 746.898 748.797 741.593C747.029 731.868 744.377 723.027 741.725 713.302C739.957 708.881 739.073 703.577 737.304 699.156C735.536 694.736 733.768 689.431 732 685.01C728.464 676.169 724.928 666.444 720.507 657.603C712.551 639.921 702.826 623.124 692.217 607.21C681.609 591.296 669.232 576.266 655.087 563.005C641.826 549.743 625.913 538.25 610 527.641L603.812 524.104C602.928 523.22 602.043 523.22 600.275 522.336L596.739 520.568L590.551 517.032L587.015 515.263C586.13 515.263 586.13 514.379 585.246 514.379L583.478 513.495C578.174 510.843 573.754 509.075 568.449 506.422C563.145 504.654 558.725 502.002 553.42 499.35C533.087 490.509 512.754 482.552 492.42 474.595C472.087 466.638 450.87 459.565 428.768 451.608C407.551 443.651 385.449 436.579 364.232 427.738C343.014 418.897 320.913 410.056 299.696 399.446C278.478 388.837 258.145 377.344 238.696 364.966C219.246 352.589 199.797 338.443 182.116 324.298C163.551 310.152 146.754 295.123 129.957 279.209L123.768 273.02L120.232 270.368L118.464 268.6L117.58 267.715L116.696 266.831C112.275 262.411 108.739 258.874 105.203 254.454C97.2465 246.497 89.2899 237.656 82.2174 229.699C67.1885 212.901 52.1594 195.219 38.0145 177.537L32.7101 170.464L30.058 166.928L27.4058 163.392C23.8696 158.971 20.3334 154.551 17.6812 149.246L12.3767 142.173L7.95642 135.101L5.30444 131.564C5.30444 135.101 5.30444 134.216 5.30444 132.448L0 125.375L5.30444 132.448Z" fill="#8E898F"/>
</svg>
